<?xml version="1.0" standalone="no"?><!DOCTYPE svg PUBLIC "-//W3C//DTD SVG 1.1//EN" "http://www.w3.org/Graphics/SVG/1.1/DTD/svg11.dtd" ><svg xmlns="http://www.w3.org/2000/svg"><metadata></metadata><defs><font id="fonteditor" horiz-adv-x="984"><font-face font-family="" font-weight="400" font-stretch="normal" units-per-em="1000" panose-1="2 0 5 3 0 0 0 0 0 0" ascent="1128" descent="-310" x-height="0" bbox="-84 -200 972 845" underline-thickness="50" underline-position="-125" unicode-range="U+0025-9f9f" /><missing-glyph horiz-adv-x="575" d="M80 0 L80 742 L495 742 L495 0 L80 0 ZM150 66 L426 66 L426 677 L150 677 L150 66 Z" /><glyph glyph-name="percent" unicode="%" d="M209 323 Q137 323 100.5 365 Q64 407 64 513 Q64 619 100.5 661.5 Q137 704 209 704 Q282 704 319 661.5 Q356 619 356 513 Q356 407 319 365 Q282 323 209 323 ZM177 0 L565 694 L651 694 L262 0 L177 0 ZM209 390 Q245 390 258 415 Q271 440 271 513 Q271 586 258 611 Q245 636 209 636 Q175 636 161.5 610.5 Q148 585 148 513 Q148 441 161.5 415.5 Q175 390 209 390 ZM618 -10 Q546 -10 509.5 32 Q473 74 473 180 Q473 286 509.5 328.5 Q546 371 618 371 Q691 371 728 328.5 Q765 286 765 180 Q765 74 728 32 Q691 -10 618 -10 ZM618 57 Q654 57 667.5 82 Q681 107 681 180 Q681 253 667.5 278 Q654 303 618 303 Q584 303 570.5 277.5 Q557 252 557 180 Q557 108 570.5 82.5 Q584 57 618 57 Z" /><glyph glyph-name="period" unicode="." d="M160 -6 Q110 -6 95 8.5 Q80 23 80 74 Q80 126 94.5 140 Q109 154 160 154 Q209 154 224.5 139.5 Q240 125 240 74 Q240 24 224.5 9 Q209 -6 160 -6 Z" /><glyph glyph-name="zero" unicode="0" d="M393.5 6 Q351 -10 292 -10 Q233 -10 190.5 6 Q148 22 114 61 Q80 100 63 171 Q46 242 46 347 Q46 451 63 522.5 Q80 594 114 633 Q148 672 190.5 688 Q233 704 292 704 Q351 704 394 688 Q437 672 470.5 633 Q504 594 521 522.5 Q538 451 538 347 Q538 242 521 171 Q504 100 470 61 Q436 22 393.5 6 ZM292 98 Q358 98 385 150 Q412 202 412 347 Q412 446 399 500.5 Q386 555 361 575.5 Q336 596 292 596 Q227 596 200 544 Q173 492 173 347 Q173 248 186 193.5 Q199 139 223.5 118.5 Q248 98 292 98 Z" /><glyph glyph-name="one" unicode="1" d="M268 0 L268 579 L97 546 L97 652 L304 694 L396 694 L396 0 L268 0 Z" /><glyph glyph-name="two" unicode="2" d="M53 0 L53 118 Q246 272 313 349.5 Q380 427 380 492 Q380 599 250 599 Q174 599 97 576 L97 682 Q172 704 272 704 Q385 704 446.5 655 Q508 606 508 507 Q508 417 456.5 343.5 Q405 270 250 147 L207 113 L207 105 L529 105 L529 0 L53 0 Z" /><glyph glyph-name="three" unicode="3" d="M226 -10 Q136 -10 68 3 L68 112 Q143 95 220 95 Q381 95 381 202 Q381 262 336.5 285.5 Q292 309 201 309 L147 309 L147 406 L200 406 Q368 406 368 509 Q368 559 334.5 580 Q301 601 234 601 Q164 601 97 581 L97 684 Q157 704 248 704 Q367 704 429.5 660 Q492 616 492 517 Q492 402 376 364 L376 358 Q510 333 510 194 Q510 -10 226 -10 Z" /><glyph glyph-name="four" unicode="4" d="M543 263 L543 156 L465 156 L465 0 L344 0 L344 156 L29 156 L29 283 L317 694 L465 694 L465 263 L543 263 ZM136 263 L344 263 L344 563 L338 563 L136 269 L136 263 Z" /><glyph glyph-name="five" unicode="5" d="M232 -10 Q152 -10 83 3 L83 112 Q155 95 223 95 Q304 95 348.5 123 Q393 151 393 218 Q393 284 353.5 311.5 Q314 339 223 339 Q166 339 82 324 L130 694 L477 694 L477 586 L230 586 L206 428 Q242 434 282 434 Q522 434 522 221 Q522 104 446.5 47 Q371 -10 232 -10 Z" /><glyph glyph-name="six" unicode="6" d="M293 -10 Q50 -10 50 267 Q50 475 146 589.5 Q242 704 443 704 L442 596 Q324 595 257 543.5 Q190 492 180 403 L183 403 Q236 449 322 449 Q424 449 478.5 393 Q533 337 533 227 Q533 117 473 53.5 Q413 -10 293 -10 ZM290 91 Q351 91 383.5 125.5 Q416 160 416 226 Q416 290 385.5 322.5 Q355 355 300 355 Q170 355 170 236 Q170 91 290 91 Z" /><glyph glyph-name="seven" unicode="7" d="M125 0 L401 586 L54 586 L54 694 L518 694 L518 571 L257 0 L125 0 Z" /><glyph glyph-name="eight" unicode="8" d="M476 37 Q412 -11 292 -11 Q172 -11 108 37.5 Q44 86 44 183 Q44 313 161 357 L161 361 Q66 406 66 519 Q66 608 123 656.5 Q180 705 292 705 Q404 705 461 656.5 Q518 608 518 519 Q518 456 493.5 419 Q469 382 418 361 L418 357 Q540 318 540 182 Q540 85 476 37 ZM292 404 Q351 404 378.5 432 Q406 460 406 508 Q406 607 292 607 Q178 607 178 508 Q178 404 292 404 ZM161 193 Q161 90 292 90 Q423 90 423 193 Q423 309 292 309 Q161 309 161 193 Z" /><glyph glyph-name="nine" unicode="9" d="M141 -11 L141 97 Q258 97 327 146.5 Q396 196 405 286 L401 286 Q349 240 267 240 Q161 240 105 295.5 Q49 351 49 461 Q49 571 110 637.5 Q171 704 289 704 Q532 704 532 418 Q532 206 440.5 97.5 Q349 -11 141 -11 ZM284 333 Q413 333 413 453 Q413 523 382 563 Q351 603 291 603 Q229 603 197 566 Q165 529 165 461 Q165 399 197 366 Q229 333 284 333 Z" /><glyph glyph-name="A" unicode="a" d="M561 0 L497 184 L207 184 L141 0 L6 0 L266 694 L442 694 L700 0 L561 0 ZM246 294 L458 294 L359 577 L347 577 L246 294 Z" /><glyph glyph-name="B" unicode="b" d="M82 0 L82 694 L305 694 Q447 694 501 650 Q555 606 555 508 Q555 395 454 364 L454 360 Q576 332 576 200 Q576 99 520.5 49.5 Q465 0 325 0 L82 0 ZM213 402 L270 402 Q355 402 390.5 421.5 Q426 441 426 496 Q426 554 393 571 Q360 588 270 588 L213 588 L213 402 ZM213 107 L291 107 Q382 107 413 126.5 Q444 146 444 206 Q444 261 411.5 283 Q379 305 291 305 L213 305 L213 107 Z" /><glyph glyph-name="C" unicode="c" d="M392 -10 Q312 -10 255.5 5.5 Q199 21 153.5 59 Q108 97 85.5 169 Q63 241 63 347 Q63 539 148 621.5 Q233 704 394 704 Q490 704 553 682 L553 567 Q484 591 402 591 Q297 591 250 537 Q203 483 203 348 Q203 207 248 156 Q293 105 397 105 Q486 105 561 132 L561 19 Q487 -10 392 -10 Z" /><glyph glyph-name="D" unicode="d" d="M82 694 L307 694 Q372 694 420 686 Q468 678 512 655 Q556 632 584 594 Q612 556 628 494 Q644 432 644 347 Q644 249 620.5 180 Q597 111 551 72.5 Q505 34 445.5 17 Q386 0 307 0 L82 0 L82 694 ZM213 113 L301 113 Q407 113 458 164.5 Q509 216 509 347 Q509 484 458.5 533.5 Q408 583 301 583 L213 583 L213 113 Z" /><glyph glyph-name="E" unicode="e" d="M213 115 L511 115 L511 0 L82 0 L82 694 L493 694 L493 580 L213 580 L213 412 L473 412 L473 303 L213 303 L213 115 Z" /><glyph glyph-name="F" unicode="f" d="M493 580 L213 580 L213 397 L473 397 L473 283 L213 283 L213 0 L82 0 L82 694 L493 694 L493 580 Z" /><glyph glyph-name="G" unicode="g" d="M399 -10 Q315 -10 257 5 Q199 20 153 59 Q107 98 85 169 Q63 240 63 347 Q63 540 150 622 Q237 704 406 704 Q529 704 590 679 L590 563 Q515 591 415 591 Q304 591 254 538.5 Q204 486 204 347 Q204 247 226.5 193 Q249 139 291 120 Q333 101 409 101 Q467 101 496 109 L496 281 L371 281 L371 391 L619 391 L619 20 Q522 -10 399 -10 Z" /><glyph glyph-name="H" unicode="h" d="M510 694 L641 694 L641 0 L510 0 L510 317 L213 317 L213 0 L82 0 L82 694 L213 694 L213 426 L510 426 L510 694 Z" /><glyph glyph-name="I" unicode="i" d="M82 0 L82 694 L213 694 L213 0 L82 0 Z" /><glyph glyph-name="J" unicode="j" d="M-8 -186 Q-50 -186 -84 -180 L-84 -74 Q-46 -80 -18 -80 Q83 -80 83 46 L83 694 L213 694 L213 38 Q213 -72 156.5 -129 Q100 -186 -8 -186 Z" /><glyph glyph-name="K" unicode="k" d="M361 372 L634 0 L473 0 L254 311 L213 311 L213 0 L82 0 L82 694 L213 694 L213 420 L254 420 L469 694 L625 694 L361 372 Z" /><glyph glyph-name="L" unicode="l" d="M213 115 L498 115 L498 0 L82 0 L82 694 L213 694 L213 115 Z" /><glyph glyph-name="M" unicode="m" d="M82 0 L82 694 L294 694 L430 284 L436 284 L576 694 L782 694 L782 0 L653 0 L653 566 L647 566 L498 140 L364 140 L216 566 L210 566 L210 0 L82 0 Z" /><glyph glyph-name="N" unicode="n" d="M82 0 L82 694 L283 694 L535 171 L541 171 L541 694 L669 694 L669 0 L491 0 L217 556 L211 556 L211 0 L82 0 Z" /><glyph glyph-name="O" unicode="o" d="M506.5 6 Q452 -10 373 -10 Q294 -10 239.5 6.5 Q185 23 143.5 62.5 Q102 102 82.5 172 Q63 242 63 347 Q63 450 82.5 520.5 Q102 591 143.5 631 Q185 671 240 687.5 Q295 704 373 704 Q451 704 506 687.5 Q561 671 602 631 Q643 591 662.5 521 Q682 451 682 347 Q682 242 662.5 172 Q643 102 602 62 Q561 22 506.5 6 ZM235 153.5 Q270 100 373 100 Q476 100 510.5 153.5 Q545 207 545 347 Q545 485 510 540.5 Q475 596 373 596 Q270 596 235 541 Q200 486 200 347 Q200 207 235 153.5 Z" /><glyph glyph-name="P" unicode="p" d="M82 0 L82 694 L304 694 Q454 694 512.5 641.5 Q571 589 571 463 Q571 333 509 279 Q447 225 304 225 L213 225 L213 0 L82 0 ZM213 331 L288 331 Q373 331 405 358.5 Q437 386 437 461 Q437 532 404 560 Q371 588 288 588 L213 588 L213 331 Z" /><glyph glyph-name="Q" unicode="q" d="M682 347 Q682 189 636.5 109 Q591 29 497 4 L615 -145 L461 -145 L371 -10 Q293 -10 238 6.5 Q183 23 142.5 63 Q102 103 82.5 173 Q63 243 63 347 Q63 450 82.5 520.5 Q102 591 143.5 631 Q185 671 240 687.5 Q295 704 373 704 Q451 704 506 687.5 Q561 671 602 631 Q643 591 662.5 521 Q682 451 682 347 ZM200 347 Q200 207 235 153.5 Q270 100 373 100 Q476 100 510.5 153.5 Q545 207 545 347 Q545 485 510 540.5 Q475 596 373 596 Q270 596 235 541 Q200 486 200 347 Z" /><glyph glyph-name="R" unicode="r" d="M630 0 L476 0 L303 262 L213 262 L213 0 L82 0 L82 694 L298 694 Q440 694 502.5 645 Q565 596 565 479 Q565 392 533 344 Q501 296 431 277 L630 0 ZM213 362 L280 362 Q367 362 400.5 385 Q434 408 434 479 Q434 544 400.5 566 Q367 588 280 588 L213 588 L213 362 Z" /><glyph glyph-name="S" unicode="s" d="M259 -10 Q130 -10 55 15 L55 132 Q131 103 255 103 Q328 103 358.5 123.5 Q389 144 389 197 Q389 246 363.5 266.5 Q338 287 252 309 Q141 335 100.5 375.5 Q60 416 60 506 Q60 610 121.5 657.5 Q183 705 306 705 Q414 705 483 680 L483 569 Q411 595 310 595 Q244 595 216 577 Q188 559 188 509 Q188 468 210.5 450.5 Q233 433 314 413 Q435 383 477 338.5 Q519 294 519 195 Q519 92 456 41 Q393 -10 259 -10 Z" /><glyph glyph-name="T" unicode="t" d="M526 694 L526 579 L337 579 L337 0 L206 0 L206 579 L18 579 L18 694 L526 694 Z" /><glyph glyph-name="U" unicode="u" d="M570.5 47 Q500 -10 359 -10 Q218 -10 148.5 44.5 Q79 99 79 228 L79 694 L210 694 L210 246 Q210 169 242.5 136 Q275 103 360 103 Q447 103 479 136.5 Q511 170 511 246 L511 694 L641 694 L641 228 Q641 104 570.5 47 Z" /><glyph glyph-name="V" unicode="v" d="M252 0 L14 694 L157 694 L334 139 L340 139 L522 694 L657 694 L415 0 L252 0 Z" /><glyph glyph-name="W" unicode="w" d="M175 0 L21 694 L158 694 L268 155 L274 155 L392 622 L544 622 L659 155 L665 155 L776 694 L911 694 L750 0 L585 0 L467 465 L461 465 L339 0 L175 0 Z" /><glyph glyph-name="X" unicode="x" d="M18 0 L239 353 L34 694 L187 694 L332 433 L338 433 L490 694 L639 694 L429 359 L646 0 L491 0 L337 273 L331 273 L168 0 L18 0 Z" /><glyph glyph-name="Y" unicode="y" d="M253 0 L253 283 L4 694 L157 694 L319 404 L325 404 L489 694 L636 694 L385 285 L385 0 L253 0 Z" /><glyph glyph-name="Z" unicode="z" d="M54 0 L54 121 L416 574 L415 580 L74 580 L74 694 L575 694 L575 578 L209 121 L209 115 L600 115 L600 0 L54 0 Z" /><glyph glyph-name="a" unicode="a" d="M301 550 Q428 550 481.5 506.5 Q535 463 535 377 L535 0 L424 0 L411 69 Q390 33 342.5 11.5 Q295 -10 231 -10 Q46 -10 46 153 Q46 245 101 285 Q156 325 265 325 L410 325 L410 349 Q410 400 385 422.5 Q360 445 288 445 Q233 445 172 434 L172 541 Q225 550 301 550 ZM258 88 Q372 88 410 165 L410 236 L282 236 Q220 236 195 219.5 Q170 203 170 157 Q170 121 190.5 104.5 Q211 88 258 88 Z" /><glyph glyph-name="b" unicode="b" d="M371 550 Q436 550 479.5 530.5 Q523 511 546.5 472.5 Q570 434 579.5 386 Q589 338 589 270 Q589 208 579.5 161 Q570 114 547 73.5 Q524 33 479.5 11.5 Q435 -10 371 -10 Q236 -10 202 82 L192 0 L79 0 L79 760 L204 760 L204 464 Q245 550 371 550 ZM337 87 Q369 87 391.5 97 Q414 107 427 123 Q440 139 448 164 Q456 189 458 213 Q460 237 460 270 Q460 361 435.5 407.5 Q411 454 337 454 Q259 454 228 408.5 Q197 363 197 270 Q197 180 228.5 133.5 Q260 87 337 87 Z" /><glyph glyph-name="c" unicode="c" d="M311 -10 Q179 -10 114.5 51.5 Q50 113 50 270 Q50 427 114.5 488.5 Q179 550 311 550 Q397 550 451 532 L451 425 Q396 446 324 446 Q244 446 211.5 408 Q179 370 179 269 Q179 169 211.5 132 Q244 95 326 95 Q400 95 455 116 L455 10 Q393 -10 311 -10 Z" /><glyph glyph-name="d" unicode="d" d="M436 760 L560 760 L560 0 L449 0 L437 79 Q401 -10 269 -10 Q145 -10 97.5 61 Q50 132 50 270 Q50 331 60 378.5 Q70 426 93.5 466.5 Q117 507 161 528.5 Q205 550 269 550 Q402 550 436 463 L436 760 ZM303 87 Q381 87 411 132 Q441 177 441 270 Q441 359 410.5 406.5 Q380 454 303 454 Q271 454 248 443.5 Q225 433 212 417.5 Q199 402 191.5 376.5 Q184 351 182 327 Q180 303 180 270 Q180 179 204.5 133 Q229 87 303 87 Z" /><glyph glyph-name="e" unicode="e" d="M535 317 Q535 278 530 246 L176 223 Q178 154 214.5 122.5 Q251 91 331 91 Q377 91 427 102 Q477 113 507 128 L507 26 Q482 11 427 0.5 Q372 -10 309 -10 Q178 -10 114 51.5 Q50 113 50 270 Q50 427 114 488.5 Q178 550 309 550 Q377 550 423 532 Q469 514 492.5 480.5 Q516 447 525.5 408 Q535 369 535 317 ZM176 312 L419 330 Q419 389 397 421.5 Q375 454 309 454 Q237 454 207.5 419.5 Q178 385 176 312 Z" /><glyph glyph-name="f" unicode="f" d="M316 671 Q260 671 243 645 Q226 619 226 540 L339 540 L339 441 L226 441 L226 0 L101 0 L101 441 L15 441 L15 540 L101 540 L101 545 Q101 613 114.5 657.5 Q128 702 156.5 725 Q185 748 219 756 Q253 764 303 764 Q332 764 365 759 L365 667 Q345 671 316 671 Z" /><glyph glyph-name="g" unicode="g" d="M438 540 L562 540 L562 41 Q562 -76 494.5 -138 Q427 -200 275 -200 Q203 -200 129 -187 L129 -86 Q185 -101 268 -101 Q358 -101 398 -67.5 Q438 -34 438 47 L438 85 Q420 43 381.5 21.5 Q343 0 271 0 Q206 0 162 19.5 Q118 39 94 77 Q70 115 60 162.5 Q50 210 50 275 Q50 335 60 381.5 Q70 428 93.5 467.5 Q117 507 162 528.5 Q207 550 271 550 Q403 550 438 461 L438 540 ZM303 94 Q385 94 414 137.5 Q443 181 443 275 Q443 365 413.5 409.5 Q384 454 303 454 Q271 454 248 444 Q225 434 212 418.5 Q199 403 191.5 378 Q184 353 182 330 Q180 307 180 275 Q180 233 184.5 204 Q189 175 201 148 Q213 121 238.5 107.5 Q264 94 303 94 Z" /><glyph glyph-name="h" unicode="h" d="M374 550 Q472 550 513 505 Q554 460 554 370 L554 0 L429 0 L429 335 Q429 395 409.5 420.5 Q390 446 336 446 Q230 446 204 357 L204 0 L79 0 L79 760 L204 760 L204 470 Q248 550 374 550 Z" /><glyph glyph-name="i" unicode="i" d="M197 635 Q183 623 140 623 Q97 623 83 635 Q69 647 69 691 Q69 735 82.5 746.5 Q96 758 140 758 Q184 758 197.5 746.5 Q211 735 211 691 Q211 647 197 635 ZM77 0 L77 540 L202 540 L202 0 L77 0 Z" /><glyph glyph-name="j" unicode="j" d="M197 635 Q183 623 140 623 Q97 623 83 635 Q69 647 69 691 Q69 735 82.5 746.5 Q96 758 140 758 Q184 758 197.5 746.5 Q211 735 211 691 Q211 647 197 635 ZM5 -200 Q-26 -200 -59 -195 L-59 -100 Q-39 -104 -4 -104 Q46 -104 61.5 -80.5 Q77 -57 77 11 L77 540 L202 540 L202 3 Q202 -60 189.5 -100.5 Q177 -141 150.5 -162.5 Q124 -184 90 -192 Q56 -200 5 -200 Z" /><glyph glyph-name="k" unicode="k" d="M335 289 L548 0 L394 0 L230 237 L204 237 L204 0 L79 0 L79 760 L204 760 L204 334 L235 334 L391 540 L539 540 L335 289 Z" /><glyph glyph-name="l" unicode="l" d="M223 -6 Q144 -6 111 25 Q78 56 78 126 L78 760 L203 760 L203 156 Q203 119 213 106.5 Q223 94 250 94 Q268 94 283 98 L283 0 Q256 -6 223 -6 Z" /><glyph glyph-name="m" unicode="m" d="M681 550 Q773 550 816.5 504 Q860 458 860 363 L860 0 L735 0 L735 335 Q735 394 715.5 420 Q696 446 646 446 Q598 446 570 427 Q542 408 530 362 L530 0 L405 0 L405 335 Q405 394 386 420 Q367 446 318 446 Q271 446 243.5 428 Q216 410 204 365 L204 0 L79 0 L79 540 L204 540 L204 476 Q247 550 357 550 Q475 550 512 470 Q554 550 681 550 Z" /><glyph glyph-name="n" unicode="n" d="M374 550 Q472 550 513 505 Q554 460 554 370 L554 0 L429 0 L429 335 Q429 395 410 420.5 Q391 446 336 446 Q284 446 252 427 Q220 408 204 360 L204 0 L79 0 L79 540 L204 540 L204 472 Q247 550 374 550 Z" /><glyph glyph-name="o" unicode="o" d="M309 -10 Q178 -10 114 51.5 Q50 113 50 270 Q50 427 114 488.5 Q178 550 309 550 Q441 550 505 488.5 Q569 427 569 270 Q569 113 505 51.5 Q441 -10 309 -10 ZM309 87 Q384 87 412 126 Q440 165 440 270 Q440 375 411.5 414.5 Q383 454 309 454 Q235 454 207 414.5 Q179 375 179 270 Q179 166 207.5 126.5 Q236 87 309 87 Z" /><glyph glyph-name="p" unicode="p" d="M371 550 Q436 550 479.5 530.5 Q523 511 546.5 472.5 Q570 434 579.5 386 Q589 338 589 270 Q589 208 579.5 161 Q570 114 547 73.5 Q524 33 479.5 11.5 Q435 -10 371 -10 Q300 -10 261.5 12 Q223 34 204 77 L204 -200 L79 -200 L79 540 L204 540 L204 464 Q245 550 371 550 ZM337 87 Q369 87 391.5 97 Q414 107 427 123 Q440 139 448 164 Q456 189 458 213 Q460 237 460 270 Q460 361 435.5 407.5 Q411 454 337 454 Q259 454 228 408.5 Q197 363 197 270 Q197 180 228.5 133.5 Q260 87 337 87 Z" /><glyph glyph-name="q" unicode="q" d="M436 540 L561 540 L561 -200 L436 -200 L436 82 Q401 -10 269 -10 Q145 -10 97.5 61 Q50 132 50 270 Q50 331 60 378.5 Q70 426 93.5 466.5 Q117 507 161 528.5 Q205 550 269 550 Q402 550 436 463 L436 540 ZM303 87 Q381 87 411 132 Q441 177 441 270 Q441 359 410.5 406.5 Q380 454 303 454 Q271 454 248 443.5 Q225 433 212 417.5 Q199 402 191.5 376.5 Q184 351 182 327 Q180 303 180 270 Q180 179 204.5 133 Q229 87 303 87 Z" /><glyph glyph-name="r" unicode="r" d="M366 550 L377 550 L373 438 L360 438 Q228 438 204 321 L204 0 L79 0 L79 540 L204 540 L204 443 Q242 550 366 550 Z" /><glyph glyph-name="s" unicode="s" d="M220 -6 Q119 -6 53 11 L53 116 Q128 92 214 92 Q268 92 292 105.5 Q316 119 316 156 Q316 194 295.5 209 Q275 224 206 240 Q121 259 90.5 292 Q60 325 60 394 Q60 550 268 550 Q368 550 412 532 L406 434 Q353 454 272 454 Q220 454 198.5 441 Q177 428 177 395 Q177 364 194.5 353 Q212 342 278 325 Q369 303 401.5 269 Q434 235 434 160 Q434 72 380 33 Q326 -6 220 -6 Z" /><glyph glyph-name="t" unicode="t" d="M332 440 L213 440 L213 180 Q213 127 225.5 110 Q238 93 280 93 Q310 93 329 98 L329 -1 Q294 -6 262 -6 Q163 -6 125.5 30 Q88 66 88 170 L88 440 L13 440 L13 540 L88 540 L88 668 L213 668 L213 540 L332 540 L332 440 Z" /><glyph glyph-name="u" unicode="u" d="M421 540 L546 540 L546 0 L434 0 L423 69 Q381 -10 256 -10 Q158 -10 116.5 35 Q75 80 75 169 L75 540 L200 540 L200 205 Q200 146 219.5 120 Q239 94 294 94 Q343 94 374.5 112.5 Q406 131 421 180 L421 540 Z" /><glyph glyph-name="v" unicode="v" d="M204 0 L6 540 L142 540 L278 129 L284 129 L421 540 L555 540 L356 0 L204 0 Z" /><glyph glyph-name="w" unicode="w" d="M164 0 L18 540 L150 540 L244 129 L250 129 L358 540 L501 540 L611 129 L617 129 L712 540 L841 540 L692 0 L536 0 L432 394 L426 394 L321 0 L164 0 Z" /><glyph glyph-name="x" unicode="x" d="M10 0 L197 276 L22 540 L167 540 L282 351 L288 351 L403 540 L546 540 L371 277 L556 0 L409 0 L287 199 L281 199 L156 0 L10 0 Z" /><glyph glyph-name="y" unicode="y" d="M72 -200 L72 -92 Q139 -92 171 -69.5 Q203 -47 219 3 L6 540 L144 540 L285 134 L291 134 L423 540 L555 540 L370 39 Q336 -54 303 -102 Q270 -150 215.5 -175 Q161 -200 72 -200 Z" /><glyph glyph-name="z" unicode="z" d="M48 0 L48 105 L320 433 L320 439 L68 439 L68 540 L475 540 L475 441 L198 110 L198 104 L494 104 L494 0 L48 0 Z" /><glyph glyph-name="Identity.8050" unicode="&#x4e00;" d="M934 328 L50 328 L50 440 L934 440 L934 328 Z" /><glyph glyph-name="Identity.8051" unicode="&#x4e01;" d="M919 750 L919 645 L566 645 L566 55 Q566 -27 533 -55 Q500 -83 407 -89 L313 -95 L280 16 L377 22 Q422 24 435.5 36 Q449 48 449 89 L449 645 L67 645 L67 750 L919 750 Z" /><glyph glyph-name="Identity.8053" unicode="&#x4e03;" d="M780 104 Q788 154 790 194 L891 160 Q890 124 878 51 Q866 -21 834 -45.5 Q802 -70 719 -74 Q612 -80 508 -74 Q414 -68 379.5 -37.5 Q345 -7 345 82 L345 381 L66 335 L50 435 L345 484 L345 800 L450 796 L450 501 L924 579 L936 479 L450 399 L450 100 Q450 57 461 45.5 Q472 34 519 30 Q608 22 697 30 Q746 34 759 45.5 Q772 57 780 104 Z" /><glyph glyph-name="Identity.8057" unicode="&#x4e07;" d="M925 653 L417 653 Q416 635 413.5 583 Q411 531 409 508 L409 505 L816 505 Q814 482 802.5 307 Q791 132 789 108 Q779 4 743 -29.5 Q707 -63 605 -69 L509 -74 L475 31 L572 35 Q638 37 657.5 55.5 Q677 74 683 142 Q684 151 689 215.5 Q694 280 698 334 Q702 388 702 406 L401 406 Q382 237 323.5 122 Q265 7 130 -107 L44 -26 Q191 96 241.5 202.5 Q292 309 304 509 Q306 527 308 579.5 Q310 632 311 653 L67 653 L67 756 L925 756 L925 653 Z" /><glyph glyph-name="Identity.8058" unicode="&#x4e08;" d="M940 6 L889 -100 Q607 -9 474 94 Q357 -7 99 -111 L46 -6 Q287 77 393 166 Q287 279 202 488 L297 528 Q370 337 462 240 Q500 295 516.5 362 Q533 429 535 524 Q535 533 536 540 L80 540 L80 638 L537 638 Q538 698 538 807 L641 801 L641 638 L902 638 L902 540 L641 540 L641 527 Q641 408 619 322 Q597 236 545 168 Q664 82 940 6 Z" /><glyph glyph-name="Identity.8059" unicode="&#x4e09;" d="M862 630 L122 630 L122 733 L862 733 L862 630 ZM820 319 L165 319 L165 417 L820 417 L820 319 ZM925 -35 L60 -35 L60 64 L925 64 L925 -35 Z" /><glyph glyph-name="Identity.8060" unicode="&#x4e0a;" d="M520 38 L934 38 L934 -60 L54 -60 L54 38 L418 38 L418 806 L520 802 L520 531 L873 531 L873 433 L520 433 L520 38 Z" /><glyph glyph-name="Identity.8061" unicode="&#x4e0b;" d="M923 648 L523 648 L523 462 L566 527 Q802 360 866 303 L811 207 Q700 310 523 436 L523 -95 L417 -95 L417 648 L63 648 L63 747 L923 747 L923 648 Z" /><glyph glyph-name="Identity.8063" unicode="&#x4e0d;" d="M889 644 L597 644 Q557 567 497 484 L541 482 L541 -93 L438 -93 L438 407 Q308 249 119 97 L51 189 Q338 394 481 644 L99 644 L99 746 L889 746 L889 644 ZM549 408 L609 486 Q773 352 924 206 L862 111 Q704 275 549 408 Z" /><glyph glyph-name="Identity.8064" unicode="&#x4e0e;" d="M896 582 L315 582 L306 447 L847 446 Q847 421 837.5 258.5 Q828 96 825 77 Q819 -25 785 -57 Q751 -89 651 -93 L530 -99 L500 3 L621 9 Q683 11 701.5 28 Q720 45 724 107 Q725 116 728.5 168.5 Q732 221 736.5 281 Q741 341 741 347 L190 347 L222 794 L329 790 L322 679 L896 679 L896 582 ZM685 230 L685 132 L49 132 L49 230 L685 230 Z" /><glyph glyph-name="Identity.8066" unicode="&#x4e10;" d="M911 665 L534 665 L534 550 L865 550 L865 458 L534 458 L534 345 L854 345 Q852 328 843.5 204 Q835 80 834 65 Q826 -14 783.5 -45.5 Q741 -77 650 -83 L518 -91 L489 6 L639 13 Q687 15 704 33.5 Q721 52 729 103 Q742 190 742 253 L131 253 L159 606 L262 599 L243 345 L436 345 L436 665 L74 665 L74 757 L911 757 L911 665 Z" /><glyph glyph-name="Identity.8067" unicode="&#x4e11;" d="M790 41 L931 41 L931 -57 L51 -57 L51 41 L254 41 L286 322 L116 322 L116 421 L297 421 L324 658 L125 658 L125 757 L826 757 L790 41 ZM428 658 L401 421 L700 421 L713 658 L428 658 ZM390 322 L358 41 L680 41 L695 322 L390 322 Z" /><glyph glyph-name="Identity.8069" unicode="&#x4e13;" d="M927 414 L386 414 Q368 366 345 318 L839 317 L839 225 Q759 156 633 39 Q741 -2 781 -20 L753 -128 Q643 -77 475.5 -13 Q308 51 177 94 L209 188 Q366 138 528 78 Q561 107 623 164 Q685 221 687 223 L224 223 L224 305 Q242 340 274 414 L57 414 L57 508 L310 508 L343 606 L120 606 L120 700 L372 700 Q388 758 400 809 L504 798 Q500 779 491 743 Q482 707 480 700 L864 700 L864 606 L453 606 Q449 593 438 559.5 Q427 526 421 508 L927 508 L927 414 Z" /><glyph glyph-name="Identity.8070" unicode="&#x4e14;" d="M793 26 L938 26 L938 -68 L47 -68 L47 26 L192 26 L192 773 L793 773 L793 26 ZM691 675 L293 675 L293 529 L691 529 L691 675 ZM691 285 L691 434 L293 434 L293 285 L691 285 ZM293 190 L293 26 L691 26 L691 190 L293 190 Z" /><glyph glyph-name="Identity.8072" unicode="&#x4e16;" d="M786 171 L413 171 L413 485 L275 485 L275 34 L902 34 L902 -60 L173 -60 L173 485 L45 485 L45 584 L173 584 L173 780 L275 776 L275 584 L413 584 L413 804 L514 800 L514 584 L688 584 L688 805 L786 801 L786 584 L933 584 L933 485 L786 485 L786 171 ZM688 485 L514 485 L514 268 L688 268 L688 485 Z" /><glyph glyph-name="Identity.8074" unicode="&#x4e18;" d="M700 39 L929 39 L929 -51 L57 -51 L57 39 L208 39 L208 723 Q535 740 801 803 L829 704 Q598 652 312 628 L312 457 L880 457 L880 364 L700 364 L700 39 ZM312 364 L312 39 L596 39 L596 364 L312 364 Z" /><glyph glyph-name="Identity.8075" unicode="&#x4e19;" d="M924 756 L924 661 L542 661 L542 548 L856 548 L856 41 Q856 -34 829 -61.5 Q802 -89 721 -95 L652 -100 L620 4 L690 8 Q734 10 745.5 22.5 Q757 35 757 77 L757 451 L538 451 Q535 420 529 391 Q647 299 751 201 L701 108 Q604 206 495 296 Q439 185 279 72 L231 134 L231 -88 L133 -88 L133 548 L442 548 L442 661 L59 661 L59 756 L924 756 ZM231 451 L231 172 Q333 240 379 302.5 Q425 365 437 451 L231 451 Z" /><glyph glyph-name="Identity.8076" unicode="&#x4e1a;" d="M650 41 L930 41 L930 -59 L56 -59 L56 41 L335 41 L335 242 L246 186 Q168 413 81 592 L176 637 Q258 475 335 265 L335 797 L441 793 L441 41 L546 41 L546 797 L650 793 L650 254 Q742 424 813 632 L910 588 Q882 507 829 386 Q776 265 731 183 L650 227 L650 41 Z" /><glyph glyph-name="Identity.8077" unicode="&#x4e1b;" d="M328 457 Q305 345 258.5 254 Q212 163 129 56 L48 127 Q164 262 207.5 377 Q251 492 259 696 Q264 734 264 800 L362 796 Q362 755 356 693 Q353 635 347 584 Q429 493 511 380 L443 305 Q405 363 328 457 ZM416 52 L338 119 Q483 258 533.5 382.5 Q584 507 588 728 Q589 737 589.5 763.5 Q590 790 590 800 L689 796 L686 729 Q684 659 680 598 Q700 455 762 346.5 Q824 238 938 140 L862 57 Q704 206 642 395 Q612 299 557.5 217 Q503 135 416 52 ZM96 -64 L96 31 L884 31 L884 -64 L96 -64 Z" /><glyph glyph-name="Identity.8078" unicode="&#x4e1c;" d="M852 285 L563 285 L563 32 Q563 -38 535.5 -62 Q508 -86 430 -92 L371 -97 L342 1 L405 5 Q444 7 455.5 17 Q467 27 467 57 L467 285 L143 285 L143 383 Q195 453 270 592 L79 592 L79 687 L319 687 Q349 745 382 823 L483 783 Q470 749 440 687 L896 687 L896 592 L392 592 Q302 425 267 381 L467 381 L467 551 L563 547 L563 381 L852 381 L852 285 ZM607 180 L678 256 Q823 132 927 18 L860 -71 Q741 65 607 180 ZM274 254 L354 188 Q274 67 104 -80 L36 5 Q101 57 168 125 Q235 193 274 254 Z" /><glyph glyph-name="Identity.8079" unicode="&#x4e1d;" d="M285 422 Q265 421 226.5 419.5 Q188 418 158 416.5 Q128 415 105 413 L82 505 Q92 507 100 511.5 Q108 516 111 518.5 Q114 521 122 528.5 Q130 536 131 537 Q151 559 206 652 Q261 745 290 811 L377 767 Q352 712 299.5 628.5 Q247 545 219 512 L346 514 Q392 585 432 656 L510 610 Q464 525 386.5 406 Q309 287 276 254 L453 266 L451 169 Q425 169 312 160.5 Q199 152 139 144 L117 239 Q145 247 173 270 Q202 296 285 422 ZM483 412 L458 501 Q482 511 506 535 Q524 553 580 647.5 Q636 742 667 810 L751 765 Q719 701 669.5 619.5 Q620 538 595 511 L730 513 Q789 604 813 649 L891 601 Q845 516 765.5 401.5 Q686 287 646 251 L879 268 L877 173 Q853 173 505 144 L488 238 Q523 246 549 272 Q591 314 668 423 Q509 415 483 412 ZM50 20 L934 20 L934 -73 L50 -73 L50 20 Z" /><glyph glyph-name="Identity.8084" unicode="&#x4e22;" d="M930 219 L474 219 Q354 80 294 34 L675 48 Q626 103 581 144 L651 212 Q807 61 883 -29 L820 -114 L758 -43 Q379 -56 199 -69 Q189 -70 170 -73.5 Q151 -77 142 -77 L113 29 Q142 35 170 51 Q204 75 255.5 123.5 Q307 172 348 219 L57 219 L57 315 L448 315 L448 434 L141 434 L141 526 L448 526 L448 643 Q271 629 129 623 L116 719 Q287 725 497.5 742 Q708 759 840 779 L860 683 Q757 670 543 650 L543 526 L846 526 L846 434 L543 434 L543 315 L930 315 L930 219 Z" /><glyph glyph-name="Identity.8086" unicode="&#x4e24;" d="M910 680 L644 680 Q644 662 643.5 622.5 Q643 583 643 565 L858 565 L858 45 Q858 -26 831 -50 Q804 -74 731 -80 L661 -86 L631 10 L706 16 Q738 18 748 28.5 Q758 39 758 68 L758 167 L713 113 Q689 149 600 258 Q558 134 461 15 L382 65 Q464 164 502 255.5 Q540 347 546 473 L411 473 Q408 428 402 387 Q449 336 498 272 L434 196 Q407 236 375 275 Q337 168 247 54 L200 90 L200 -73 L106 -73 L106 565 L320 565 Q321 600 321 680 L51 680 L51 771 L910 771 L910 680 ZM413 565 L548 565 Q548 582 548.5 622 Q549 662 549 680 L416 680 L413 565 ZM200 473 L200 152 Q257 229 281 297.5 Q305 366 315 473 L200 473 ZM758 211 L758 473 L640 473 Q637 417 628 366 Q709 273 758 211 Z" /><glyph glyph-name="Identity.8087" unicode="&#x4e25;" d="M656 432 L927 432 L927 345 L239 345 L239 252 Q239 138 212 61.5 Q185 -15 114 -115 L27 -68 Q95 22 119 90 Q143 158 143 276 L143 432 L262 432 Q188 543 130 604 L205 668 Q281 586 333 505 L265 432 L359 432 L359 673 L83 673 L83 761 L922 761 L922 673 L656 673 L656 432 ZM460 673 L460 432 L554 432 L554 673 L460 673 ZM746 434 L672 496 Q756 586 803 666 L880 611 Q856 570 815.5 515.5 Q775 461 746 434 Z" /><glyph glyph-name="Identity.8089" unicode="&#x4e27;" d="M936 411 L936 319 L483 319 Q527 236 579 184 Q701 251 793 319 L844 237 Q775 182 660 118 Q756 54 934 13 L895 -89 Q691 -35 573 57.5 Q455 150 378 319 L297 319 L297 26 L523 101 L531 -4 Q499 -11 386 -47.5 Q273 -84 209 -110 L168 -15 Q188 -5 192.5 5.5 Q197 16 197 36 L197 319 L52 319 L52 411 L297 411 Q220 511 162 564 L221 616 L96 616 L96 706 L446 706 L446 808 L546 804 L546 706 L888 706 L888 616 L762 616 L822 563 Q734 456 686 411 L936 411 ZM446 616 L250 616 Q336 530 375 475 L317 411 L446 411 L446 616 ZM736 616 L546 616 L546 411 L659 411 L602 468 Q687 547 736 616 Z" /><glyph glyph-name="Identity.8092" unicode="&#x4e2a;" d="M957 417 L894 314 Q768 400 661.5 501 Q555 602 492 704 Q355 495 87 314 L29 418 Q165 503 275.5 607.5 Q386 712 451 819 L533 819 Q683 592 957 417 ZM443 -96 L443 488 L548 484 L548 -96 L443 -96 Z" /><glyph glyph-name="Identity.8095" unicode="&#x4e2d;" d="M875 627 L875 184 L546 184 L546 -100 L443 -100 L443 184 L108 184 L108 627 L443 627 L443 807 L546 803 L546 627 L875 627 ZM213 282 L443 282 L443 526 L213 526 L213 282 ZM771 282 L771 526 L546 526 L546 282 L771 282 Z" /><glyph glyph-name="Identity.8098" unicode="&#x4e30;" d="M927 212 L927 115 L545 115 L545 -99 L446 -99 L446 115 L55 115 L55 212 L446 212 L446 349 L144 349 L144 445 L446 445 L446 576 L100 576 L100 674 L446 674 L446 805 L545 801 L545 674 L882 674 L882 576 L545 576 L545 445 L838 445 L838 349 L545 349 L545 212 L927 212 Z" /><glyph glyph-name="Identity.8100" unicode="&#x4e32;" d="M880 350 L880 36 L543 36 L543 -99 L446 -99 L446 36 L106 36 L106 350 L446 350 L446 426 L147 426 L147 711 L446 711 L446 807 L543 803 L543 711 L839 711 L839 426 L543 426 L543 350 L880 350 ZM244 511 L446 511 L446 626 L244 626 L244 511 ZM743 626 L543 626 L543 511 L743 511 L743 626 ZM202 122 L446 122 L446 267 L202 267 L202 122 ZM783 122 L783 267 L543 267 L543 122 L783 122 Z" /><glyph glyph-name="Identity.8102" unicode="&#x4e34;" d="M937 697 L937 597 L673 597 Q737 533 783 470 L725 404 L885 404 L885 -86 L792 -86 L792 -35 L519 -35 L519 -86 L425 -86 L425 404 L712 404 Q641 496 586 551 L637 597 L551 597 Q495 487 439 404 L357 468 L357 -95 L258 -95 L258 800 L357 796 L357 476 Q412 551 459 645 Q506 739 530 824 L630 794 Q615 749 595 697 L937 697 ZM99 2 L99 714 L193 710 L193 2 L99 2 ZM519 313 L519 56 L609 56 L609 313 L519 313 ZM792 56 L792 313 L696 313 L696 56 L792 56 Z" /><glyph glyph-name="Identity.8106" unicode="&#x4e38;" d="M836 189 L931 155 Q921 44 917 22 Q907 -34 882 -57.5 Q857 -81 801 -85 Q755 -88 712 -85 Q651 -81 625 -55.5 Q599 -30 599 41 L599 534 L406 534 Q401 407 389 324 Q459 288 554 229 L520 123 Q413 190 365 217 Q338 129 280.5 58 Q223 -13 108 -111 L39 -32 Q148 54 200 117 Q252 180 277 268 Q143 341 92 365 L138 454 Q218 417 297 374 Q301 411 307 534 L74 534 L74 633 L309 633 L311 804 L412 800 Q412 705 409 633 L695 633 L695 55 Q695 32 702.5 24.5 Q710 17 733 15 Q758 12 785 15 Q806 17 813.5 25 Q821 33 826 58 Q832 89 836 189 Z" /><glyph glyph-name="Identity.8107" unicode="&#x4e39;" d="M932 368 L932 272 L790 272 L790 46 Q790 -31 759.5 -57.5 Q729 -84 642 -93 L574 -100 L543 -2 L618 5 Q664 9 677.5 21 Q691 33 691 75 L691 272 L308 272 Q304 148 277 69.5 Q250 -9 172 -115 L82 -57 Q156 39 181.5 103 Q207 167 211 272 L53 272 L53 368 L212 368 L212 768 L790 768 L790 368 L932 368 ZM309 368 L691 368 L691 672 L311 672 L309 368 ZM388 574 L458 642 Q524 580 609 471 L543 393 Q469 493 388 574 Z" /><glyph glyph-name="Identity.8108" unicode="&#x4e3a;" d="M516 591 L876 591 Q849 116 847 56 Q843 -19 806 -45.5 Q769 -72 668 -81 L575 -89 L541 16 L635 24 Q705 30 723 42.5 Q741 55 747 105 Q752 151 759.5 316 Q767 481 768 489 L505 489 Q478 296 392.5 162.5 Q307 29 130 -107 L52 -24 Q216 97 294 210.5 Q372 324 399 489 L96 489 L96 591 L288 591 Q196 705 155 743 L226 807 Q288 750 357 664 L294 591 L411 591 Q413 615 418 697.5 Q423 780 426 802 L530 798 Q530 775 523.5 692 Q517 609 516 591 ZM701 247 L631 168 Q612 196 559.5 257 Q507 318 480 345 L551 413 Q637 327 701 247 Z" /><glyph glyph-name="Identity.8109" unicode="&#x4e3b;" d="M546 29 L930 29 L930 -66 L54 -66 L54 29 L444 29 L444 257 L138 257 L138 356 L444 356 L444 544 L96 544 L96 645 L456 645 Q424 762 414 793 L516 808 L565 645 L888 645 L888 544 L546 544 L546 356 L846 356 L846 257 L546 257 L546 29 Z" /><glyph glyph-name="Identity.8111" unicode="&#x4e3d;" d="M54 765 L933 765 L933 672 L54 672 L54 765 ZM116 -85 L116 582 L454 582 L454 6 Q454 -50 431.5 -70 Q409 -90 344 -96 L292 -100 L263 -5 L319 -1 Q347 1 355 10 Q363 19 363 45 L363 212 L304 159 Q261 258 205 344 L205 -85 L116 -85 ZM524 -85 L524 582 L873 582 L873 6 Q873 -50 848.5 -70 Q824 -90 758 -96 L707 -101 L678 -6 L737 -1 Q766 1 774 9.5 Q782 18 782 45 L782 209 L721 158 Q674 258 611 348 L611 -85 L524 -85 ZM363 484 L205 484 L205 368 L259 403 Q320 317 363 228 L363 484 ZM782 484 L611 484 L611 360 L670 403 Q738 316 782 226 L782 484 Z" /><glyph glyph-name="Identity.8112" unicode="&#x4e3e;" d="M741 259 L543 259 L543 154 L886 154 L886 62 L543 62 L543 -103 L439 -103 L439 62 L97 62 L97 154 L439 154 L439 259 L243 259 L243 312 Q178 257 81 200 L33 287 Q220 386 309 518 L74 518 L74 611 L257 611 Q242 640 208.5 692 Q175 744 155 768 L239 812 Q325 698 343 661 L269 611 L487 611 Q478 638 447.5 698.5 Q417 759 401 786 L491 820 Q505 800 533 744.5 Q561 689 573 657 L489 611 L629 611 Q700 718 741 809 L834 775 Q802 706 741 611 L911 611 L911 518 L679 518 Q725 450 790 397 Q855 344 952 292 L906 203 Q814 254 741 317 L741 259 ZM286 350 L439 350 L439 473 L543 469 L543 350 L704 350 Q624 426 572 518 L417 518 Q370 431 286 350 Z" /><glyph glyph-name="Identity.8117" unicode="&#x4e43;" d="M686 466 L884 466 Q884 446 871 264.5 Q858 83 855 62 Q849 -19 811.5 -46.5 Q774 -74 671 -80 L572 -87 L539 16 L641 22 Q704 26 722.5 40 Q741 54 747 102 Q763 247 770 363 L576 363 L576 458 L659 651 L386 651 Q385 592 379 509 Q364 297 302 155.5 Q240 14 115 -118 L30 -39 Q152 78 208 197.5 Q264 317 276 510 Q280 567 280 651 L88 651 L88 751 L768 751 L771 650 L686 466 Z" /><glyph glyph-name="Identity.8119" unicode="&#x4e45;" d="M592 348 Q702 138 947 1 L879 -102 Q649 53 528 255 Q392 75 102 -111 L39 -8 Q252 114 382.5 255 Q513 396 578 573 L346 573 Q262 426 149 306 L73 387 Q244 573 337 818 L443 785 Q427 739 399 678 L700 678 L700 575 Q651 443 592 348 Z" /><glyph glyph-name="Identity.8122" unicode="&#x4e48;" d="M429 805 L526 745 Q455 625 343.5 493.5 Q232 362 126 269 L47 354 Q153 440 258 564.5 Q363 689 429 805 ZM924 -26 L836 -103 Q812 -56 786 -10 Q752 -12 606.5 -19.5 Q461 -27 339 -34.5 Q217 -42 164 -49 L137 69 Q181 81 210 105 Q307 186 441.5 351 Q576 516 659 660 L755 599 Q666 455 538.5 298.5 Q411 142 326 72 L723 95 Q652 213 603 284 L688 346 Q838 131 924 -26 Z" /><glyph glyph-name="Identity.8123" unicode="&#x4e49;" d="M593 590 L506 525 Q434 668 373 762 L460 815 Q516 736 593 590 ZM938 0 L884 -117 Q643 -4 503 115 Q369 1 109 -116 L49 -7 Q295 94 419 196 Q258 368 150 691 L248 732 Q300 577 360 465.5 Q420 354 499 271 Q645 431 717 747 L822 709 Q778 530 721.5 407 Q665 284 583 194 Q712 91 938 0 Z" /><glyph glyph-name="Identity.8125" unicode="&#x4e4b;" d="M531 40 Q734 32 938 40 L919 -59 Q728 -67 537 -59 Q415 -55 358 -38 Q301 -21 255 30 Q228 61 217 61 Q209 61 181 32 Q149 -2 104 -65 L33 24 Q45 41 64.5 65 Q84 89 109 118.5 Q134 148 142 157 Q163 180 177 188 Q191 196 211 196 Q225 196 237 191 Q366 264 499 361.5 Q632 459 720 538 L140 538 L140 639 L462 639 Q429 760 422 779 L524 794 Q530 777 546.5 720.5 Q563 664 571 639 L861 639 L861 536 Q773 440 617 319 Q461 198 313 113 Q351 70 394.5 56 Q438 42 531 40 Z" /><glyph glyph-name="Identity.8126" unicode="&#x4e4c;" d="M283 360 L886 360 Q886 346 877.5 214 Q869 82 869 68 Q863 -17 825 -47.5 Q787 -78 692 -84 L606 -90 L577 6 L662 12 Q722 16 742.5 31.5 Q763 47 767 91 Q769 108 774 180 Q779 252 779 269 L180 269 L180 720 L361 720 Q387 782 399 823 L504 800 Q499 773 478 720 L790 720 Q790 639 779 533 Q775 467 741.5 440 Q708 413 630 409 L524 403 L496 494 L607 500 Q648 502 661.5 511.5 Q675 521 679 551 Q681 562 682.5 589 Q684 616 685 629 L283 629 L283 360 ZM712 169 L712 76 L64 76 L64 169 L712 169 Z" /><glyph glyph-name="Identity.8127" unicode="&#x4e4d;" d="M924 577 L469 577 L469 442 L845 442 L845 348 L469 348 L469 209 L879 209 L879 114 L469 114 L469 -103 L374 -103 L374 577 L292 577 Q222 448 120 327 L42 400 Q213 591 293 817 L387 785 Q359 712 342 675 L924 675 L924 577 Z" /><glyph glyph-name="Identity.8128" unicode="&#x4e4e;" d="M938 355 L938 258 L547 258 L547 40 Q547 -36 521 -61.5 Q495 -87 402 -95 L323 -101 L291 -3 L388 3 Q425 5 437 16.5 Q449 28 449 63 L449 258 L47 258 L47 355 L449 355 L449 645 Q257 631 105 625 L94 728 Q276 732 493 748.5 Q710 765 843 786 L859 685 Q777 675 547 653 L547 355 L938 355 ZM687 371 L608 432 Q643 471 692 534 Q741 597 762 632 L840 570 Q771 466 687 371 ZM151 567 L227 629 Q307 534 365 444 L296 369 Q233 469 151 567 Z" /><glyph glyph-name="Identity.8129" unicode="&#x4e4f;" d="M837 789 L857 685 Q703 658 490 634 Q277 610 117 602 L102 705 Q251 711 468.5 736 Q686 761 837 789 ZM526 22 Q737 15 948 22 L931 -77 Q732 -84 535 -77 Q414 -73 360 -58 Q306 -43 262 4 Q235 35 221 35 Q198 35 174 5 Q169 -1 153.5 -22 Q138 -43 125.5 -59.5 Q113 -76 107 -83 L37 7 Q71 54 148 131 Q170 152 182 157.5 Q194 163 215 163 Q236 164 260 144 Q409 215 689 388 L141 388 L141 486 L458 486 Q446 532 423 600 L525 615 Q533 592 567 486 L843 486 L843 388 Q753 318 609 228 Q465 138 327 72 Q359 44 401 34 Q443 24 526 22 Z" /><glyph glyph-name="Identity.8130" unicode="&#x4e50;" d="M883 323 L565 323 L565 28 Q565 -38 535.5 -63.5 Q506 -89 431 -95 L367 -101 L336 2 L399 8 Q436 12 448 21.5 Q460 31 460 59 L460 323 L121 323 L162 736 Q516 744 814 794 L835 693 Q632 661 259 637 L235 422 L460 422 L460 616 L565 612 L565 422 L883 422 L883 323 ZM261 284 L347 229 Q267 98 115 -64 L37 4 Q181 148 261 284 ZM628 219 L706 284 Q848 131 934 19 L856 -63 Q737 97 628 219 Z" /><glyph glyph-name="Identity.8132" unicode="&#x4e52;" d="M720 259 L933 259 L933 164 L51 164 L51 259 L213 259 L213 730 Q605 751 816 796 L836 698 Q634 654 316 635 L316 525 L895 525 L895 431 L720 431 L720 259 ZM316 431 L316 259 L616 259 L616 431 L316 431 ZM144 -120 L84 -28 Q150 3 240.5 61 Q331 119 386 163 L448 88 Q383 33 299 -24.5 Q215 -82 144 -120 Z" /><glyph glyph-name="Identity.8133" unicode="&#x4e53;" d="M933 260 L933 164 L585 164 Q651 129 742 73 Q833 17 892 -26 L836 -116 Q673 1 532 81 L582 164 L51 164 L51 260 L213 260 L213 731 Q603 750 815 796 L835 698 Q626 653 316 634 L316 525 L895 525 L895 431 L717 431 L717 260 L933 260 ZM316 431 L316 260 L613 260 L613 431 L316 431 Z" /><glyph glyph-name="Identity.8134" unicode="&#x4e54;" d="M952 253 L902 151 Q791 193 696 266 L696 -97 L592 -97 L592 303 L654 301 Q582 365 529 452 L463 452 Q414 368 338 302 L412 298 L412 225 Q412 104 365 24.5 Q318 -55 192 -126 L129 -41 Q191 -3 226.5 25.5 Q262 54 280.5 87 Q299 120 304.5 151 Q310 182 310 234 L310 279 Q228 213 85 144 L35 236 Q146 283 219.5 334 Q293 385 342 452 L74 452 L74 548 L396 548 Q417 595 433 661 Q282 651 139 646 L130 743 Q485 748 825 797 L846 700 Q730 684 546 669 Q530 597 509 548 L907 548 L907 452 L642 452 Q692 385 765 339 Q838 293 952 253 Z" /><glyph glyph-name="Identity.8136" unicode="&#x4e56;" d="M543 596 L928 596 L928 501 L543 501 L543 -99 L443 -99 L443 501 L57 501 L57 596 L443 596 L443 676 Q326 668 146 662 L141 757 Q480 762 830 798 L840 703 Q748 694 543 681 L543 596 ZM269 380 L269 467 L364 463 L364 52 L269 52 L269 111 Q118 59 86 43 L59 146 Q73 148 151 174 Q229 200 269 216 L269 284 L88 284 L88 380 L269 380 ZM830 187 Q832 196 834.5 218 Q837 240 838 246 L925 213 Q924 188 916 147 Q904 85 880.5 62.5 Q857 40 793 38 Q759 37 728 38 Q671 40 646 66 Q621 92 621 155 L621 467 L713 463 L713 345 Q806 391 865 433 L910 356 Q827 302 713 248 L713 178 Q713 156 721 147.5 Q729 139 749 137 Q766 135 783 137 Q807 140 816 149.5 Q825 159 830 187 Z" /><glyph glyph-name="Identity.8138" unicode="&#x4e58;" d="M541 519 L541 294 Q606 200 703.5 133.5 Q801 67 941 13 L903 -82 Q659 32 541 166 L541 -101 L447 -101 L447 170 Q328 31 92 -82 L44 9 Q201 80 290 142.5 Q379 205 447 299 L447 519 L75 519 L75 604 L447 604 L447 677 Q229 669 155 668 L151 752 Q484 758 822 786 L832 699 Q722 689 541 681 L541 604 L914 604 L914 519 L541 519 ZM88 184 L72 260 Q120 268 270 313 L270 363 L96 363 L96 435 L270 435 L270 496 L355 492 L355 198 L270 198 L270 240 L88 184 ZM628 496 L712 492 L712 409 Q805 450 859 482 L892 418 Q833 385 712 337 L712 293 Q712 276 719 269.5 Q726 263 745 261 Q765 259 786 261 Q812 263 821.5 271 Q831 279 836 301 Q839 317 841 352 L916 326 Q914 304 908 275 Q898 222 877.5 203 Q857 184 802 182 Q763 180 725 182 Q672 184 650 206.5 Q628 229 628 282 L628 496 Z" /><glyph glyph-name="Identity.8139" unicode="&#x4e59;" d="M805 743 L805 644 Q651 524 535 428 Q419 332 356 274 Q293 216 254.5 174 Q216 132 205 113.5 Q194 95 194 84 Q194 61 210.5 53.5 Q227 46 282 44 Q508 31 708 44 Q761 48 777.5 62.5 Q794 77 803 121 Q813 167 815 234 L915 198 Q906 101 903 83 Q891 7 852 -23 Q813 -53 718 -59 Q484 -71 251 -59 Q167 -54 124.5 -23 Q82 8 82 72 Q82 108 95 137.5 Q108 167 161.5 227.5 Q215 288 327.5 386.5 Q440 485 634 643 L139 643 L139 743 L805 743 Z" /><glyph glyph-name="Identity.8143" unicode="&#x4e5d;" d="M851 199 L945 169 Q941 79 933 29 Q923 -29 898 -50.5 Q873 -72 808 -76 Q757 -79 708 -76 Q648 -74 620 -46.5 Q592 -19 592 49 L592 510 L408 510 Q402 348 372.5 245.5 Q343 143 284.5 65 Q226 -13 110 -112 L37 -29 Q117 38 161 84 Q205 130 239.5 192 Q274 254 287.5 327 Q301 400 304 510 L77 510 L77 616 L307 616 Q312 741 312 805 L415 801 Q415 800 414 729.5 Q413 659 411 616 L695 616 L695 67 Q695 45 703.5 37 Q712 29 735 27 Q760 24 789 27 Q817 29 826 38 Q835 47 839 71 Q850 138 851 199 Z" /><glyph glyph-name="Identity.8144" unicode="&#x4e5e;" d="M792 190 L895 156 Q892 92 887 55 Q877 -18 840.5 -46 Q804 -74 710 -78 Q496 -89 282 -78 Q141 -72 139 21 Q139 89 225.5 167.5 Q312 246 553 406 L218 406 L218 495 Q169 439 135 407 L70 494 Q243 660 311 820 L409 781 Q388 736 371 707 L878 707 L878 609 L308 609 Q264 548 225 503 L761 503 L761 412 Q529 264 416.5 184.5 Q304 105 284.5 83.5 Q265 62 265 43 Q265 39 265.5 36 Q266 33 267 31 Q268 29 269.5 27.5 Q271 26 274.5 25 Q278 24 281 24 Q284 24 289.5 23.5 Q295 23 300 23 Q305 23 313 22.5 Q321 22 329 22 Q508 11 691 22 Q741 25 759.5 41 Q778 57 784 95 Q791 141 792 190 Z" /><glyph glyph-name="Identity.8145" unicode="&#x4e5f;" d="M840 179 L939 144 Q937 88 928 36 Q918 -27 887.5 -50.5 Q857 -74 779 -78 Q562 -88 344 -78 Q255 -74 219 -39.5 Q183 -5 183 83 L183 399 L63 368 L46 465 L183 499 L183 692 L282 688 L282 523 L443 563 L443 804 L543 800 L543 588 L844 662 Q844 633 837.5 478 Q831 323 828 304 Q824 239 795 215.5 Q766 192 693 186 L635 180 L601 281 L654 287 Q702 293 714.5 303 Q727 313 729 349 Q730 374 732.5 418 Q735 462 737 494.5 Q739 527 739 540 L543 490 L543 95 L443 95 L443 465 L282 424 L282 117 Q282 58 301 41 Q320 24 380 20 Q558 10 736 20 Q796 24 812 37 Q828 50 834 96 Q840 136 840 179 Z" /><glyph glyph-name="Identity.8146" unicode="&#x4e60;" d="M504 19 L611 25 Q679 29 700.5 48 Q722 67 726 127 Q729 170 738.5 393.5 Q748 617 748 647 L102 647 L102 751 L859 751 Q857 725 847 420.5 Q837 116 835 86 Q829 -8 789.5 -41 Q750 -74 647 -80 L536 -87 L504 19 ZM517 424 L465 325 Q305 456 181 537 L246 618 Q378 531 517 424 ZM684 406 L710 299 Q459 182 110 37 L69 143 Q405 271 684 406 Z" /><glyph glyph-name="Identity.8147" unicode="&#x4e61;" d="M746 502 L851 485 Q837 414 834 402 Q805 289 756.5 211.5 Q708 134 619.5 74.5 Q531 15 409.5 -26.5 Q288 -68 99 -108 L56 -10 Q308 42 443 97.5 Q578 153 647 239 Q311 219 186 199 L157 297 Q203 308 234 329 Q322 381 452 485 Q248 474 167 461 L140 559 Q167 566 212 595 Q250 618 320 686.5 Q390 755 451 827 L530 766 Q398 616 315 565 L560 576 Q664 670 726 737 L801 667 Q701 559 585.5 462.5 Q470 366 375 310 L701 330 Q721 377 734 430 Q745 474 746 502 Z" /><glyph glyph-name="Identity.8152" unicode="&#x4e66;" d="M783 639 L760 381 L901 381 Q901 356 877 110 Q871 42 833 14 Q795 -14 711 -20 L627 -26 L595 76 L689 82 Q736 84 753.5 97.5 Q771 111 775 149 L792 281 L440 281 L440 -103 L343 -103 L343 281 L44 281 L44 381 L343 381 L343 566 L119 566 L119 664 L343 664 L343 810 L440 806 L440 664 L752 664 Q693 712 649 742 L711 821 Q791 764 932 648 L874 559 Q847 586 783 639 ZM440 566 L440 381 L659 381 L676 566 L440 566 Z" /><glyph glyph-name="Identity.8162" unicode="&#x4e70;" d="M709 520 L782 662 L113 662 L113 757 L887 757 L887 661 L798 481 L709 520 ZM474 522 L434 431 Q332 505 202 571 L246 651 Q381 585 474 522 ZM926 180 L586 180 L575 155 Q751 71 909 -22 L869 -118 Q740 -33 524 76 Q470 12 371.5 -34 Q273 -80 114 -119 L73 -19 Q249 19 342 65 Q435 111 476 180 L62 180 L62 272 L357 272 Q222 368 123 420 L168 502 Q277 444 407 354 L373 272 L511 272 Q525 334 527 433 Q527 453 529 534.5 Q531 616 531 635 L632 631 Q632 489 627 421 Q622 335 611 272 L926 272 L926 180 Z" /><glyph glyph-name="Identity.8163" unicode="&#x4e71;" d="M840 192 L936 159 Q928 67 925 41 Q915 -28 887 -55 Q859 -82 790 -86 Q745 -89 701 -86 Q626 -80 597 -51.5 Q568 -23 568 56 L568 794 L664 790 L664 74 Q664 39 676 29.5 Q688 20 724 16 Q746 13 769 16 Q804 20 815 31 Q826 42 832 75 Q838 113 840 192 ZM341 656 L341 528 L526 528 L526 434 L341 434 L341 308 L486 308 L486 -76 L101 -76 L101 308 L244 308 L244 434 L44 434 L44 528 L244 528 L244 644 Q198 638 80 629 L73 727 Q317 746 480 779 L497 681 Q441 670 341 656 ZM389 22 L389 209 L196 209 L196 22 L389 22 Z" /><glyph glyph-name="Identity.8165" unicode="&#x4e73;" d="M850 185 L942 155 Q941 94 932 39 Q922 -24 894.5 -49 Q867 -74 804 -78 Q758 -81 715 -78 Q643 -74 614 -46 Q585 -18 585 55 L585 794 L680 790 L680 69 Q680 41 691.5 32.5 Q703 24 735 21 Q758 18 784 21 Q816 25 826.5 35 Q837 45 841 72 Q845 106 850 185 ZM80 649 L74 742 Q342 752 536 791 L547 700 Q465 685 321 669 Q362 579 377 525 L303 489 Q286 553 245 639 L310 668 Q284 665 157 654 Q202 576 224 512 L150 468 Q144 492 122 540.5 Q100 589 82 619 L148 654 Q125 651 80 649 ZM465 674 L543 640 Q520 570 463 467 L538 467 L538 383 L376 257 Q475 270 539 280 L542 192 L363 167 L363 25 Q363 -34 337 -57 Q311 -80 242 -86 L182 -91 L152 -2 L213 2 Q246 5 257 13.5 Q268 22 268 48 L268 155 Q229 150 153 140 Q77 130 51 126 L48 216 Q135 225 268 243 L268 286 L398 380 L96 380 L96 467 L443 467 L382 499 Q406 537 465 674 Z" /><glyph glyph-name="Identity.8176" unicode="&#x4e7e;" d="M840 161 L931 131 Q924 53 919 30 Q907 -32 885 -51.5 Q863 -71 802 -75 Q699 -82 597 -75 Q475 -65 475 16 Q475 29 480 54 L324 54 L324 -98 L230 -98 L230 54 L50 54 L50 142 L230 142 L230 212 L90 212 L90 565 L229 565 L229 631 L73 631 L73 716 L229 716 L229 807 L324 803 L324 716 L476 716 L476 631 L324 631 L324 565 L456 565 L456 503 Q543 634 596 819 L688 795 Q665 723 652 689 L919 689 L919 593 L613 593 Q573 511 556 481 L843 481 L843 392 Q745 279 683.5 197.5 Q622 116 604 83.5 Q586 51 586 39 Q586 27 592.5 23 Q599 19 623 17 Q713 9 777 17 Q808 21 817.5 29.5 Q827 38 831 61 Q838 100 840 161 ZM484 142 L484 69 Q518 177 723 392 L532 392 L532 445 L456 499 L456 212 L324 212 L324 142 L484 142 ZM365 483 L183 483 L183 429 L365 429 L365 483 ZM183 351 L183 293 L365 293 L365 351 L183 351 Z" /><glyph glyph-name="Identity.8184" unicode="&#x4e86;" d="M552 418 L552 42 Q552 -32 522.5 -57 Q493 -82 407 -88 L323 -94 L291 11 L374 17 Q420 19 433.5 30 Q447 41 447 80 L447 472 L722 648 L89 648 L89 750 L896 750 L896 648 L552 418 Z" /><glyph glyph-name="Identity.8186" unicode="&#x4e88;" d="M555 441 L920 441 L920 347 Q889 302 832 224 Q775 146 770 139 L683 195 Q724 243 805 347 L544 347 L544 34 Q544 -39 517.5 -63 Q491 -87 411 -93 L332 -99 L310 -1 L376 5 Q420 9 432.5 20 Q445 31 445 72 L445 347 L59 347 L59 441 L458 441 Q328 542 270 583 L327 659 Q414 599 487 540 Q622 637 683 675 L147 675 L147 770 L845 770 L845 672 Q743 610 566 474 Q568 473 573 468 L555 441 Z" /><glyph glyph-name="Identity.8187" unicode="&#x4e89;" d="M931 390 L931 304 L822 304 L822 117 L530 117 L530 36 Q530 -29 500 -54.5 Q470 -80 393 -86 L323 -92 L293 -1 L366 5 Q409 7 421 24 Q433 41 435 117 L132 117 L132 200 L435 200 L435 304 L46 304 L46 390 L436 390 L436 486 L166 486 L166 507 L122 471 L56 550 Q136 606 208 680.5 Q280 755 328 831 L423 795 Q404 763 395 751 L730 751 L730 661 L636 569 L822 569 L822 390 L931 390 ZM597 660 L324 660 Q284 614 236 569 L504 569 L597 660 ZM530 486 L530 390 L728 390 L728 486 L530 486 ZM728 200 L728 304 L530 304 L530 200 L728 200 Z" /><glyph glyph-name="Identity.8189" unicode="&#x4e8b;" d="M932 263 L932 192 L844 192 L844 51 L538 51 L538 29 Q538 -39 511 -64 Q484 -89 409 -95 L338 -101 L309 -12 L387 -6 Q423 -4 433.5 5.5 Q444 15 444 47 L444 51 L108 51 L108 126 L444 126 L444 192 L43 192 L43 263 L444 263 L444 315 L116 315 L116 387 L444 387 L444 435 L150 435 L150 622 L444 622 L444 670 L70 670 L70 745 L444 745 L444 811 L538 807 L538 745 L905 745 L905 670 L538 670 L538 622 L826 622 L826 435 L538 435 L538 387 L844 387 L844 263 L932 263 ZM242 502 L444 502 L444 554 L242 554 L242 502 ZM731 554 L538 554 L538 502 L731 502 L731 554 ZM538 315 L538 263 L755 263 L755 315 L538 315 ZM755 126 L755 192 L538 192 L538 126 L755 126 Z" /><glyph glyph-name="Identity.8190" unicode="&#x4e8c;" d="M839 595 L145 595 L145 701 L839 701 L839 595 ZM930 -24 L54 -24 L54 80 L930 80 L930 -24 Z" /><glyph glyph-name="Identity.8192" unicode="&#x4e8e;" d="M929 442 L929 345 L560 345 L560 47 Q560 -27 528 -54.5 Q496 -82 410 -88 L329 -94 L295 10 L381 16 Q425 18 438.5 30 Q452 42 452 78 L452 345 L53 345 L53 442 L452 442 L452 657 L134 657 L134 754 L849 754 L849 657 L560 657 L560 442 L929 442 Z" /><glyph glyph-name="Identity.8193" unicode="&#x4e8f;" d="M831 751 L831 656 L150 656 L150 751 L831 751 ZM926 435 L357 435 L331 324 L798 324 Q796 308 785.5 200 Q775 92 774 80 Q764 -15 724.5 -47 Q685 -79 578 -85 L456 -92 L426 10 L548 16 Q614 20 635 35.5 Q656 51 662 106 Q673 225 674 231 L197 231 L244 435 L56 435 L56 532 L926 532 L926 435 Z" /><glyph glyph-name="Identity.8195" unicode="&#x4e91;" d="M836 759 L836 661 L148 661 L148 759 L836 759 ZM921 391 L503 391 Q455 306 388.5 209.5 Q322 113 282 73 L686 95 Q601 212 554 265 L638 326 Q770 172 897 -8 L818 -90 L756 -1 Q737 -2 621.5 -7 Q506 -12 395 -18 Q284 -24 207 -31 Q191 -33 133 -41 L103 61 Q116 66 126.5 71.5 Q137 77 141.5 80 Q146 83 153.5 90 Q161 97 164 99 Q213 145 272.5 227.5 Q332 310 378 391 L63 391 L63 490 L921 490 L921 391 Z" /><glyph glyph-name="Identity.8196" unicode="&#x4e92;" d="M752 36 L937 36 L937 -60 L47 -60 L47 36 L646 36 L657 172 L189 172 L266 652 L97 652 L97 751 L890 751 L890 652 L370 652 L350 532 L787 532 L752 36 ZM307 269 L665 269 L679 433 L334 433 L307 269 Z" /><glyph glyph-name="Identity.8198" unicode="&#x4e94;" d="M769 51 L932 51 L932 -43 L53 -43 L53 51 L255 51 L307 356 L125 356 L125 453 L323 453 L357 651 L105 651 L105 749 L887 749 L887 651 L463 651 L429 453 L783 453 L769 51 ZM412 356 L359 51 L664 51 L676 356 L412 356 Z" /><glyph glyph-name="Identity.8199" unicode="&#x4e95;" d="M933 319 L933 221 L724 221 L724 -99 L621 -99 L621 221 L379 221 Q365 107 321.5 33 Q278 -41 176 -128 L95 -46 Q186 30 223.5 84.5 Q261 139 273 221 L52 221 L52 319 L280 319 Q281 336 281 373 L281 529 L93 529 L93 629 L281 629 L281 795 L386 791 L386 629 L621 629 L621 797 L724 793 L724 629 L893 629 L893 529 L724 529 L724 319 L933 319 ZM385 319 L621 319 L621 529 L386 529 L386 383 Q386 339 385 319 Z" /><glyph glyph-name="Identity.8204" unicode="&#x4e9a;" d="M647 32 L929 32 L929 -62 L57 -62 L57 32 L338 32 L338 669 L95 669 L95 766 L891 766 L891 669 L647 669 L647 221 Q762 429 807 568 L897 518 Q867 442 817 334.5 Q767 227 727 158 L647 206 L647 32 ZM439 669 L439 32 L546 32 L546 669 L439 669 ZM89 519 L177 567 Q250 436 336 219 L249 158 Q177 357 89 519 Z" /><glyph glyph-name="Identity.8205" unicode="&#x4e9b;" d="M837 502 L930 469 Q920 400 917 385 Q904 330 879.5 307 Q855 284 797 280 Q720 275 645 280 Q591 283 564.5 308.5 Q538 334 538 394 L538 806 L639 802 L639 614 Q778 679 854 735 L898 637 Q803 575 639 505 L639 427 Q639 396 650.5 386 Q662 376 694 372 Q732 367 767 372 Q800 376 812 388 Q824 400 828 429 Q831 447 837 502 ZM79 256 L63 355 Q86 357 130 364 L130 719 L231 715 L231 381 L312 396 L312 801 L408 797 L408 642 L519 642 L519 552 L408 552 L408 414 L514 435 L523 334 Q497 329 404.5 312.5 Q312 296 204 277.5 Q96 259 79 256 ZM802 127 L184 127 L184 218 L802 218 L802 127 ZM70 -64 L70 31 L917 31 L917 -64 L70 -64 Z" /><glyph glyph-name="Identity.8211" unicode="&#x4ea1;" d="M927 539 L289 539 L289 35 L860 35 L860 -60 L181 -60 L181 539 L59 539 L59 640 L467 640 Q433 766 425 789 L527 804 Q567 677 576 640 L927 640 L927 539 Z" /><glyph glyph-name="Identity.8214" unicode="&#x4ea4;" d="M905 686 L905 587 L79 587 L79 686 L451 686 Q428 769 421 788 L523 803 Q531 781 559 686 L905 686 ZM898 359 L840 267 Q787 318 700 391 Q613 464 557 502 L617 579 Q771 471 898 359 ZM141 254 L82 345 Q227 440 343 576 L417 507 Q300 370 141 254 ZM945 -7 L907 -118 Q625 -35 491 66 Q356 -36 82 -126 L39 -21 Q287 49 413 136 Q334 221 271 337 L357 389 Q418 276 492 202 Q566 276 618 389 L710 343 Q647 215 571 138 Q695 54 945 -7 Z" /><glyph glyph-name="Identity.8215" unicode="&#x4ea5;" d="M558 685 L909 685 L909 590 L467 590 Q375 466 318 427 L532 435 Q581 489 648 585 L733 524 Q629 366 485.5 256 Q342 146 112 45 L64 137 Q307 233 440 346 Q409 344 347 341 Q285 338 238.5 335.5 Q192 333 162 331 L139 420 Q174 428 208 450 Q227 462 267.5 504.5 Q308 547 340 590 L74 590 L74 685 L451 685 Q432 757 419 795 L520 810 Q531 784 558 685 ZM755 413 L832 352 Q740 228 625 133 Q772 61 887 -18 L837 -121 Q790 -84 696 -25.5 Q602 33 536 66 Q388 -34 161 -128 L108 -30 Q338 54 492 159.5 Q646 265 755 413 Z" /><glyph glyph-name="Identity.8216" unicode="&#x4ea6;" d="M929 129 L838 72 Q776 223 660 433 L660 25 Q660 -44 633.5 -71 Q607 -98 530 -104 L460 -110 L429 -6 L501 0 Q537 2 548 13 Q559 24 559 59 L559 575 L443 575 Q443 463 439 387 Q433 249 410 162 Q387 75 341 11 Q295 -53 206 -128 L124 -51 Q250 47 290 131 Q330 215 338 396 Q343 486 343 575 L74 575 L74 669 L450 669 Q427 759 417 790 L522 802 Q542 734 558 669 L907 669 L907 575 L660 575 L660 438 L743 482 Q829 341 929 129 ZM194 484 L286 458 Q237 285 124 88 L38 136 Q148 319 194 484 Z" /><glyph glyph-name="Identity.8217" unicode="&#x4ea7;" d="M930 607 L738 607 Q711 478 699 432 L900 432 L900 335 L240 335 L240 266 Q240 142 212 56.5 Q184 -29 118 -122 L27 -64 Q96 20 119.5 91.5 Q143 163 143 286 L143 432 L325 432 Q311 520 296 607 L72 607 L72 704 L467 704 Q442 784 437 800 L539 815 Q542 807 549 786 Q556 765 563 744 Q570 723 576 704 L930 704 L930 607 ZM430 432 L599 432 Q611 474 637 607 L399 607 Q406 577 417.5 507 Q429 437 430 432 Z" /><glyph glyph-name="Identity.8219" unicode="&#x4ea9;" d="M562 698 L925 698 L925 604 L62 604 L62 698 L454 698 Q445 730 426 787 L528 802 Q536 782 562 698 ZM147 -91 L147 513 L839 513 L839 -91 L742 -91 L742 -42 L245 -42 L245 -91 L147 -91 ZM444 415 L245 415 L245 284 L444 284 L444 415 ZM742 284 L742 415 L543 415 L543 284 L742 284 ZM245 50 L444 50 L444 191 L245 191 L245 50 ZM543 50 L742 50 L742 191 L543 191 L543 50 Z" /><glyph glyph-name="Identity.8221" unicode="&#x4eab;" d="M905 716 L905 637 L78 637 L78 716 L456 716 L431 790 L533 804 Q537 793 547.5 763.5 Q558 734 564 716 L905 716 ZM808 389 L177 389 L177 589 L808 589 L808 389 ZM268 520 L268 461 L714 461 L714 520 L268 520 ZM934 177 L934 96 L549 96 L549 15 Q549 -47 524 -68.5 Q499 -90 420 -96 L341 -102 L312 -9 L393 -3 Q430 -1 441 8 Q452 17 452 47 L452 96 L50 96 L50 177 L452 177 L452 193 L655 272 L138 272 L138 348 L838 348 L838 272 L595 177 L934 177 Z" /><glyph glyph-name="Identity.8222" unicode="&#x4eac;" d="M914 706 L914 614 L71 614 L71 706 L446 706 Q434 757 423 790 L525 805 Q530 790 539 756 Q548 722 553 706 L914 706 ZM809 227 L556 227 L556 10 Q556 -48 530 -68.5 Q504 -89 426 -95 L367 -100 L338 3 L395 7 Q432 9 442.5 17 Q453 25 453 52 L453 227 L174 227 L174 536 L809 536 L809 227 ZM276 443 L276 318 L706 318 L706 443 L276 443 ZM279 209 L353 141 Q333 116 297 82.5 Q261 49 237 28.5 Q213 8 162.5 -33.5 Q112 -75 103 -82 L40 6 Q218 130 279 209 ZM628 129 L686 209 Q845 95 940 9 L881 -83 Q843 -42 766 21 Q689 84 628 129 Z" /><glyph glyph-name="Identity.8223" unicode="&#x4ead;" d="M564 719 L917 719 L917 637 L68 637 L68 719 L456 719 L433 794 L535 809 Q543 782 564 719 ZM186 595 L799 595 L799 412 L186 412 L186 595 ZM707 479 L707 527 L279 527 L279 479 L707 479 ZM95 182 L95 358 L892 358 L892 180 L800 180 L800 275 L186 275 L186 182 L95 182 ZM197 140 L197 223 L789 223 L789 140 L561 140 L561 21 Q561 -43 535.5 -64 Q510 -85 433 -91 L361 -97 L332 -4 L408 2 Q441 4 452 13.5 Q463 23 463 51 L463 140 L197 140 Z" /><glyph glyph-name="Identity.8224" unicode="&#x4eae;" d="M907 727 L907 647 L78 647 L78 727 L450 727 L429 795 L531 810 Q533 805 543 775 Q553 745 558 727 L907 727 ZM194 596 L793 596 L793 397 L194 397 L194 596 ZM697 467 L697 524 L291 524 L291 467 L697 467 ZM890 171 L793 171 L793 266 L193 266 L193 172 L96 172 L96 346 L890 346 L890 171 ZM833 118 L925 88 Q916 18 915 13 Q903 -44 876.5 -65.5 Q850 -87 786 -91 Q740 -94 693 -91 Q628 -87 604 -66.5 Q580 -46 580 13 L580 130 L378 130 L378 100 Q378 28 311.5 -25.5 Q245 -79 93 -117 L48 -22 Q192 11 235 45.5 Q278 80 278 156 L278 216 L678 216 L678 44 Q678 20 687 13.5 Q696 7 724 5 Q746 2 771 5 Q799 9 809 18.5 Q819 28 825 52 Q827 64 833 118 Z" /><glyph glyph-name="Identity.8228" unicode="&#x4eb2;" d="M717 479 L926 479 L926 387 L555 387 L555 289 L887 289 L887 199 L555 199 L555 25 Q555 -42 530.5 -64 Q506 -86 432 -92 L375 -97 L342 6 L397 10 Q435 14 444 23.5 Q453 33 453 64 L453 199 L98 199 L98 289 L453 289 L453 387 L56 387 L56 479 L283 479 Q269 570 260 620 L117 620 L117 713 L454 713 L428 793 L530 808 Q549 750 562 713 L866 713 L866 620 L748 620 Q743 592 717 479 ZM645 620 L363 620 L389 479 L614 479 Q636 568 645 620 ZM290 195 L356 125 Q269 31 114 -82 L53 1 Q179 80 290 195 ZM615 108 L669 189 Q716 161 788.5 109 Q861 57 909 18 L858 -72 Q778 2 615 108 Z" /><glyph glyph-name="Identity.8236" unicode="&#x4eba;" d="M534 576 Q592 225 927 -16 L854 -111 Q716 5 627 123.5 Q538 242 491 376 Q402 110 128 -101 L52 -11 Q260 139 348.5 301.5 Q437 464 439 703 Q440 726 440 794 L541 790 Q541 772 540.5 724 Q540 676 540 663 Q538 620 534 576 Z" /><glyph glyph-name="Identity.8241" unicode="&#x4ebf;" d="M253 813 L346 779 Q312 674 271 583 L271 -94 L175 -94 L175 400 Q153 362 93 269 L24 362 Q91 445 153 566.5 Q215 688 253 813 ZM837 220 L938 188 Q929 93 924 69 Q909 -8 877 -38 Q845 -68 766 -72 Q623 -82 480 -72 Q334 -61 334 50 Q334 101 357.5 154.5 Q381 208 467 326.5 Q553 445 723 646 L401 646 L401 746 L859 746 L859 645 Q679 433 585.5 309.5 Q492 186 470.5 143 Q449 100 449 68 Q449 60 450.5 54 Q452 48 455.5 44 Q459 40 461.5 38 Q464 36 470.5 34.5 Q477 33 480 32.5 Q483 32 491.5 31 Q500 30 503 30 Q622 20 742 30 Q788 34 802.5 49 Q817 64 826 108 Q835 159 837 220 Z" /><glyph glyph-name="Identity.8242" unicode="&#x4ec0;" d="M269 821 L366 783 Q328 676 290 597 L290 -96 L189 -96 L189 417 Q138 336 90 274 L23 364 Q94 449 161 575 Q228 701 269 821 ZM942 481 L942 378 L684 378 L684 -99 L584 -99 L584 378 L336 378 L336 481 L584 481 L584 805 L684 801 L684 481 L942 481 Z" /><glyph glyph-name="Identity.8243" unicode="&#x4ec1;" d="M255 818 L354 787 Q330 693 277 571 L277 -97 L177 -97 L177 382 Q138 317 93 255 L22 353 Q86 443 153 572.5 Q220 702 255 818 ZM894 688 L894 583 L369 583 L369 688 L894 688 ZM322 70 L941 70 L941 -29 L322 -29 L322 70 Z" /><glyph glyph-name="Identity.8247" unicode="&#x4ec5;" d="M691 201 Q792 92 956 -18 L893 -117 Q725 3 621 117 Q512 -1 337 -116 L272 -19 L272 -101 L173 -101 L173 397 Q127 326 82 268 L24 368 Q88 454 152.5 576.5 Q217 699 251 809 L351 778 Q314 664 272 577 L272 -17 Q452 98 550 202 Q426 371 378 602 L476 632 Q523 424 621 287 Q729 433 771 650 L357 650 L357 751 L879 751 L879 651 Q823 378 691 201 Z" /><glyph glyph-name="Identity.8248" unicode="&#x4ec6;" d="M296 812 L390 776 Q353 676 306 583 L306 -93 L202 -93 L202 406 Q145 322 89 259 L29 351 Q208 561 296 812 ZM943 339 L891 231 Q797 320 653 419 L653 -101 L550 -101 L550 804 L653 800 L653 476 L685 528 Q854 414 943 339 Z" /><glyph glyph-name="Identity.8249" unicode="&#x4ec7;" d="M871 178 L955 149 Q947 54 942 20 Q933 -34 912 -55.5 Q891 -77 839 -79 Q806 -81 771 -79 Q720 -77 694 -55 Q668 -33 668 20 L668 515 L540 515 L540 512 Q534 261 493.5 139.5 Q453 18 330 -107 L262 -47 L262 -98 L165 -98 L165 395 Q128 332 87 277 L21 367 Q81 453 141 575 Q201 697 233 809 L331 783 Q298 672 262 590 L262 -24 Q338 53 375 120.5 Q412 188 427.5 274 Q443 360 447 515 L318 515 L318 614 L450 614 Q450 645 450.5 711.5 Q451 778 452 803 L546 799 Q546 785 545.5 749.5 Q545 714 544 679 Q543 644 542 614 L766 614 L766 51 Q766 33 772 28 Q778 23 797 21 Q813 20 829 21 Q843 23 848.5 30.5 Q854 38 858 56 Q867 99 871 178 Z" /><glyph glyph-name="Identity.8252" unicode="&#x4eca;" d="M957 458 L904 361 Q775 430 663 526.5 Q551 623 493 722 Q434 626 325 531 Q216 436 82 361 L27 458 Q315 609 452 826 L537 826 Q675 600 957 458 ZM589 397 L514 325 Q489 364 446.5 421 Q404 478 376 508 L447 572 Q533 480 589 397 ZM536 -106 L438 -48 Q576 85 674 225 L141 225 L141 324 L808 324 L808 228 Q695 68 536 -106 Z" /><glyph glyph-name="Identity.8253" unicode="&#x4ecb;" d="M955 425 L898 322 Q620 465 492 705 Q358 477 83 320 L24 420 Q178 502 283 600 Q388 698 450 822 L533 822 Q604 690 707 594 Q810 498 955 425 ZM595 -93 L595 448 L699 444 L699 -93 L595 -93 ZM390 442 L390 311 Q390 147 344 55 Q298 -37 163 -127 L92 -40 Q173 18 212 62 Q251 106 268 160.5 Q285 215 285 302 L285 446 L390 442 Z" /><glyph glyph-name="Identity.8255" unicode="&#x4ecd;" d="M775 454 L909 454 L888 50 Q884 -23 853 -49.5 Q822 -76 728 -84 L650 -91 L619 9 L690 16 Q744 22 765.5 37 Q787 52 790 95 Q792 126 795.5 191 Q799 256 801.5 301.5 Q804 347 805 359 L672 359 L672 452 L728 654 L535 654 Q533 417 517.5 291 Q502 165 462.5 74 Q423 -17 338 -114 L266 -52 L266 -99 L167 -99 L167 379 Q130 322 88 270 L25 364 Q88 442 151 563 Q214 684 249 800 L349 767 Q317 668 266 557 L266 -36 Q344 57 378 132 Q412 207 425.5 320 Q439 433 439 654 L357 654 L357 749 L837 749 L835 659 L775 454 Z" /><glyph glyph-name="Identity.8256" unicode="&#x4ece;" d="M962 -34 L883 -115 Q704 91 645 318 Q585 94 390 -116 L311 -37 Q475 135 530.5 281 Q586 427 592 674 Q592 683 592.5 734.5 Q593 786 593 799 L699 795 Q699 716 693 674 Q691 626 688 599 Q703 395 770 245 Q837 95 962 -34 ZM507 275 L434 195 Q390 274 322 375 Q299 247 251 143.5 Q203 40 114 -89 L22 -26 Q108 96 151 184.5 Q194 273 216.5 383.5 Q239 494 243 657 Q243 673 245.5 728.5 Q248 784 246 798 L352 794 Q352 780 349.5 720 Q347 660 347 654 Q346 585 341 525 Q438 399 507 275 Z" /><glyph glyph-name="Identity.8259" unicode="&#x4ed1;" d="M495 706 Q410 583 249 467 L326 464 L326 292 Q424 323 531.5 370.5 Q639 418 710 463 L754 358 Q682 314 550 259 Q418 204 326 175 L326 81 Q326 45 338.5 32 Q351 19 388 17 Q515 8 644 17 Q693 21 710 36 Q727 51 733 91 Q740 129 741 175 L846 140 Q845 100 832 35 Q820 -27 784 -54.5 Q748 -82 673 -86 Q497 -95 372 -86 Q288 -82 254 -48.5 Q220 -15 220 77 L220 446 Q151 399 83 362 L28 459 Q166 530 276 621 Q386 712 451 813 L534 813 Q666 611 962 464 L903 364 Q773 433 664.5 522.5 Q556 612 495 706 Z" /><glyph glyph-name="Identity.8261" unicode="&#x4ed3;" d="M464 226 L561 232 Q610 236 624.5 247 Q639 258 641 297 L643 386 L307 386 L307 95 Q307 46 321 29 Q335 12 382 8 Q528 -3 675 8 Q724 12 740 27.5 Q756 43 765 88 Q770 115 775 177 L876 137 Q871 80 864 40 Q850 -36 819 -61 Q788 -86 703 -92 Q531 -102 360 -92 Q272 -86 241 -56 Q210 -26 210 67 L210 438 Q154 397 78 352 L27 455 Q164 531 274.5 627 Q385 723 446 824 L537 824 Q663 620 956 466 L906 361 Q803 418 743 464 Q739 400 739 272 Q735 193 705.5 166.5 Q676 140 592 134 L494 126 L464 226 ZM267 481 L720 481 Q567 597 492 715 Q413 597 267 481 Z" /><glyph glyph-name="Identity.8262" unicode="&#x4ed4;" d="M255 806 L353 780 Q320 678 266 566 L266 -98 L166 -98 L166 384 Q124 316 89 270 L24 360 Q92 452 158 575 Q224 698 255 806 ZM942 402 L942 304 L685 304 L685 28 Q685 -40 659 -63 Q633 -86 553 -92 L480 -98 L448 6 L521 12 Q560 14 571.5 24 Q583 34 583 67 L583 304 L312 304 L312 402 L583 402 L583 507 L757 653 L390 653 L390 753 L906 753 L906 654 L685 467 L685 402 L942 402 Z" /><glyph glyph-name="Identity.8264" unicode="&#x4ed6;" d="M848 163 L946 134 Q944 81 937 35 Q927 -27 899 -49.5 Q871 -72 793 -78 Q647 -89 501 -78 Q424 -74 394.5 -45 Q365 -16 365 61 L365 395 L290 371 L268 463 L365 494 L365 704 L458 700 L458 524 L559 556 L559 805 L651 801 L651 586 L872 657 Q871 615 867.5 516.5 Q864 418 862 356 Q860 294 860 286 Q856 228 830.5 207.5 Q805 187 736 181 L706 178 L675 276 L707 279 Q740 281 751.5 290.5 Q763 300 765 330 Q773 445 773 527 L651 488 L651 98 L559 98 L559 458 L458 425 L458 91 Q458 46 470.5 34 Q483 22 534 18 Q642 7 750 18 Q807 24 821 34.5 Q835 45 841 83 Q846 112 848 163 ZM241 795 L336 773 Q296 655 262 582 L262 -94 L169 -94 L166 403 Q127 338 85 281 L26 368 Q86 443 147.5 562 Q209 681 241 795 Z" /><glyph glyph-name="Identity.8265" unicode="&#x4ed7;" d="M952 -4 L908 -103 Q707 -25 596 68 Q508 -20 318 -116 L274 -41 L274 -97 L178 -97 L178 392 Q134 323 83 259 L26 348 Q95 444 158.5 568 Q222 692 252 802 L348 776 Q318 665 274 570 L274 -22 Q446 62 523 139 Q410 266 364 479 L454 503 Q489 324 583 215 Q643 322 643 523 L643 540 L313 540 L313 637 L644 637 L644 804 L745 800 L745 637 L920 637 L920 540 L744 540 L744 535 Q742 397 723.5 305.5 Q705 214 658 143 Q762 61 952 -4 Z" /><glyph glyph-name="Identity.8266" unicode="&#x4ed8;" d="M248 803 L350 775 Q311 658 278 586 L278 -92 L175 -92 L175 393 Q135 329 92 275 L20 360 Q84 440 147 560.5 Q210 681 248 803 ZM937 613 L937 512 L785 512 L785 35 Q785 -37 752.5 -64 Q720 -91 640 -97 L560 -103 L528 3 L614 9 Q654 12 667 23 Q680 34 680 67 L680 512 L318 512 L318 613 L680 613 L680 793 L785 789 L785 613 L937 613 ZM361 400 L443 456 Q519 359 594 229 L515 160 Q434 297 361 400 Z" /><glyph glyph-name="Identity.8267" unicode="&#x4ed9;" d="M227 807 L321 781 Q299 698 250 584 L250 -99 L153 -99 L153 399 Q134 367 82 291 L19 381 Q82 465 140 582 Q198 699 227 807 ZM790 637 L887 633 L887 -84 L790 -84 L790 -46 L345 -46 L345 636 L441 632 L441 49 L559 49 L559 804 L659 800 L659 49 L790 49 L790 637 Z" /><glyph glyph-name="Identity.8277" unicode="&#x4ee3;" d="M267 802 L366 772 Q331 668 286 576 L286 -95 L187 -95 L187 396 Q142 324 89 252 L29 344 Q97 426 164.5 554 Q232 682 267 802 ZM818 84 Q831 125 840 173 L926 123 Q905 45 895 18 Q871 -46 843.5 -70.5 Q816 -95 769 -95 Q732 -95 698 -71.5 Q664 -48 626 8 Q543 128 510 406 L308 388 L300 486 L500 504 Q498 522 496 558.5 Q494 595 493 613 Q493 614 483 799 L584 799 Q584 781 593 610 Q594 594 596 561.5 Q598 529 600 513 L927 543 L934 444 L610 415 Q644 151 710 62 Q740 18 769 18 Q787 18 796.5 30.5 Q806 43 818 84 ZM856 636 L800 556 Q774 585 722.5 634 Q671 683 641 707 L697 776 Q792 700 856 636 Z" /><glyph glyph-name="Identity.8278" unicode="&#x4ee4;" d="M451 818 L536 818 Q667 608 958 465 L903 359 Q775 425 663 521 Q551 617 492 714 Q374 526 83 362 L25 466 Q301 600 451 818 ZM582 439 L513 363 L829 363 L829 258 Q792 227 712 150 Q632 73 598 43 Q615 35 704 -11 L662 -119 Q571 -68 432.5 2 Q294 72 210 109 L257 206 Q277 197 494 95 Q508 107 581.5 173 Q655 239 684 262 L139 262 L139 363 L511 363 Q467 431 379 526 L460 591 Q533 512 582 439 Z" /><glyph glyph-name="Identity.8279" unicode="&#x4ee5;" d="M560 544 L479 480 Q426 588 327 750 L406 802 Q471 706 560 544 ZM948 2 L875 -85 Q802 14 698 123 Q612 3 404 -112 L341 -19 Q427 26 487 71.5 Q547 117 587 163 Q627 209 652 268.5 Q677 328 689.5 389 Q702 450 710 537 Q715 596 715 778 L814 774 Q814 593 810 529 Q796 328 751 221 Q900 59 948 2 ZM457 345 L518 256 Q466 217 346.5 119 Q227 21 151 -50 L81 34 Q103 48 108 61.5 Q113 75 113 100 L113 755 L214 751 L214 147 L457 345 Z" /><glyph glyph-name="Identity.8284" unicode="&#x4eea;" d="M247 807 L348 777 Q312 652 269 556 L269 -96 L168 -96 L168 372 Q146 338 86 257 L18 361 Q94 449 154 565.5 Q214 682 247 807 ZM690 591 L601 533 Q551 665 494 759 L582 806 Q638 718 690 591 ZM688 180 Q794 69 954 -21 L902 -120 Q739 -21 620 101 Q518 -3 328 -112 L270 -19 Q460 93 550 181 Q398 378 335 677 L432 710 Q485 435 620 260 Q683 345 720.5 455.5 Q758 566 783 731 L883 708 Q849 522 803.5 398 Q758 274 688 180 Z" /><glyph glyph-name="Identity.8286" unicode="&#x4eec;" d="M366 755 L432 817 Q498 751 559 669 L491 597 Q430 687 366 755 ZM228 810 L320 785 Q292 689 251 593 L251 -92 L156 -92 L156 399 Q124 341 86 284 L23 372 Q81 456 140.5 579.5 Q200 703 228 810 ZM569 752 L900 752 L900 47 Q900 -37 871.5 -61.5 Q843 -86 752 -95 L693 -101 L663 -5 L723 1 Q777 7 788.5 17 Q800 27 800 72 L800 658 L569 658 L569 752 ZM349 -86 L349 621 L445 617 L445 -86 L349 -86 Z" /><glyph glyph-name="Identity.8290" unicode="&#x4ef0;" d="M227 817 L319 784 Q297 698 255 590 L255 -92 L159 -92 L159 392 Q119 322 77 269 L22 367 Q81 458 138 579.5 Q195 701 227 817 ZM574 746 L890 746 L890 173 Q890 108 866.5 85 Q843 62 780 53 L739 48 L707 152 L741 157 Q774 161 784 171 Q794 181 794 211 L794 645 L669 645 L669 -98 L574 -98 L574 705 Q491 657 441 639 L441 180 L554 238 L558 124 Q543 116 466.5 78 Q390 40 351 19 L318 125 Q342 141 342 166 L342 722 Q418 741 540 802 L574 717 L574 746 Z" /><glyph glyph-name="Identity.8292" unicode="&#x4ef2;" d="M235 812 L329 779 Q285 649 258 589 L258 -93 L165 -93 L165 406 Q119 331 82 280 L16 368 Q79 455 139 573.5 Q199 692 235 812 ZM892 639 L892 168 L658 168 L658 -100 L560 -100 L560 168 L336 168 L336 639 L560 639 L560 807 L658 803 L658 639 L892 639 ZM436 272 L560 272 L560 537 L436 537 L436 272 ZM791 272 L791 537 L658 537 L658 272 L791 272 Z" /><glyph glyph-name="Identity.8296" unicode="&#x4ef6;" d="M232 811 L332 779 Q301 673 268 589 L268 -99 L168 -99 L168 384 Q128 314 81 255 L25 352 Q83 437 141.5 566 Q200 695 232 811 ZM943 301 L943 205 L687 205 L687 -101 L589 -101 L589 205 L307 205 L307 301 L589 301 L589 514 L463 514 Q433 418 403 349 L301 385 Q375 555 421 762 L519 732 Q504 659 490 609 L589 609 L589 808 L687 804 L687 609 L899 609 L899 514 L687 514 L687 301 L943 301 Z" /><glyph glyph-name="Identity.8297" unicode="&#x4ef7;" d="M563 817 L645 817 Q693 703 775.5 608 Q858 513 961 454 L906 361 Q692 500 606 705 Q544 559 429 444 L522 440 L522 305 Q522 149 490.5 69 Q459 -11 359 -115 L274 -53 Q367 34 397.5 104.5 Q428 175 428 303 L428 443 Q387 402 324 352 L265 442 Q482 600 563 817 ZM246 804 L340 774 Q309 675 262 578 L262 -96 L166 -96 L166 400 Q128 338 82 273 L18 361 Q174 574 246 804 ZM680 -95 L680 442 L773 438 L773 -95 L680 -95 Z" /><glyph glyph-name="Identity.8301" unicode="&#x4efb;" d="M249 806 L345 778 Q314 679 271 586 L271 -94 L170 -94 L170 400 Q143 357 85 279 L26 371 Q90 458 152 575 Q214 692 249 806 ZM941 314 L669 314 L669 42 L904 42 L904 -56 L334 -56 L334 42 L566 42 L566 314 L310 314 L310 416 L566 416 L566 628 Q458 616 355 610 L345 713 Q634 727 869 781 L892 677 Q816 660 669 640 L669 416 L941 416 L941 314 Z" /><glyph glyph-name="Identity.8303" unicode="&#x4efd;" d="M615 788 L714 812 Q780 568 957 412 L879 344 Q856 365 827 397 Q825 359 818 220.5 Q811 82 809 60 Q803 -18 767 -45.5 Q731 -73 652 -82 L598 -88 L567 14 L629 20 Q676 24 689.5 39.5 Q703 55 709 108 Q712 132 718 222.5 Q724 313 724 330 L541 330 Q541 327 540.5 323 Q540 319 540 317 Q530 166 486.5 76.5 Q443 -13 328 -110 L261 -52 L261 -95 L164 -95 L164 389 Q125 327 79 269 L21 360 Q168 569 239 805 L331 774 Q297 657 261 576 L261 -28 Q359 46 395.5 117.5 Q432 189 440 319 L440 330 L357 330 L357 377 Q344 360 331 348 L261 415 Q411 568 484 786 L582 753 Q524 584 400 429 L799 429 Q671 584 615 788 Z" /><glyph glyph-name="Identity.8305" unicode="&#x4eff;" d="M237 805 L343 779 Q310 680 264 580 L264 -92 L164 -92 L164 395 Q128 337 80 273 L18 362 Q170 583 237 805 ZM938 570 L552 570 L548 458 Q548 447 547 442 L857 442 Q857 422 848.5 263 Q840 104 837 63 Q834 19 826 -6.5 Q818 -32 798 -47.5 Q778 -63 752.5 -68.5 Q727 -74 679 -79 L616 -85 L585 18 L641 24 Q697 30 713 42 Q729 54 735 97 Q738 124 743.5 220 Q749 316 749 339 L541 339 Q529 186 487 86.5 Q445 -13 348 -113 L265 -37 Q312 10 341 49 Q370 88 389.5 125.5 Q409 163 420 217 Q431 271 436.5 324 Q442 377 447 470 Q447 517 451 570 L322 570 L322 673 L585 673 Q567 742 551 785 L654 800 Q670 758 694 673 L938 673 L938 570 Z" /><glyph glyph-name="Identity.8307" unicode="&#x4f01;" d="M494 710 Q435 625 321 529.5 Q207 434 80 359 L25 458 Q162 533 274.5 626.5 Q387 720 452 815 L535 815 Q672 616 960 458 L905 359 Q782 429 667 526 Q552 623 494 710 ZM555 236 L555 29 L915 29 L915 -68 L56 -68 L56 29 L188 29 L188 384 L288 380 L288 29 L455 29 L455 536 L555 532 L555 335 L825 335 L825 236 L555 236 Z" /><glyph glyph-name="Identity.8316" unicode="&#x4f0a;" d="M233 805 L331 780 Q298 667 253 563 L253 -100 L157 -100 L157 380 Q123 325 80 269 L16 357 Q78 440 139 564.5 Q200 689 233 805 ZM940 513 L940 415 L856 415 L856 166 L550 166 Q529 74 483 11.5 Q437 -51 342 -127 L265 -44 Q344 11 384 56.5 Q424 102 446 166 L303 166 L303 268 L467 268 Q473 320 475 415 L279 415 L279 513 L475 513 L475 656 L333 656 L333 753 L856 753 L856 513 L940 513 ZM572 656 L572 513 L757 513 L757 656 L572 656 ZM757 268 L757 415 L572 415 Q570 326 565 268 L757 268 Z" /><glyph glyph-name="Identity.8319" unicode="&#x4f0d;" d="M241 814 L339 791 Q311 688 268 591 L268 -99 L168 -99 L168 401 Q125 332 81 277 L20 363 Q183 609 241 814 ZM838 36 L944 36 L944 -58 L287 -58 L287 36 L402 36 L443 349 L337 349 L337 447 L456 447 L483 649 L337 649 L337 744 L909 744 L909 649 L588 649 L561 447 L848 447 L838 36 ZM548 349 L505 36 L735 36 L742 349 L548 349 Z" /><glyph glyph-name="Identity.8321" unicode="&#x4f0f;" d="M919 453 L640 453 Q682 166 955 -21 L878 -108 Q785 -43 713 50.5 Q641 144 597 252 Q534 71 336 -111 L272 -52 L272 -95 L172 -95 L172 393 Q145 349 90 272 L23 369 Q84 447 149.5 572.5 Q215 698 249 813 L350 779 Q319 681 272 577 L272 -18 Q405 95 466 204.5 Q527 314 537 453 L316 453 L316 551 L539 551 L538 805 L639 801 L639 551 L919 551 L919 453 ZM885 637 L821 559 Q759 636 673 722 L739 786 Q823 713 885 637 Z" /><glyph glyph-name="Identity.8322" unicode="&#x4f10;" d="M822 76 Q838 125 848 165 L931 117 Q921 77 898 15 Q875 -44 842 -74.5 Q809 -105 773 -105 Q685 -105 611 16 Q590 49 571 94 Q469 24 338 -36 L291 61 Q428 121 536 194 Q507 299 489 449 L314 428 L304 526 L479 547 L473 609 Q473 614 460 803 L560 805 Q563 703 571 598 Q574 566 575 559 L772 583 Q693 662 607 726 L661 800 Q765 724 829 664 L772 584 L923 602 L933 504 L586 461 Q605 324 622 260 Q730 351 800 464 L878 401 Q782 262 654 158 Q675 103 706 56 Q739 5 771 5 Q796 5 822 76 ZM262 803 L360 770 Q323 659 278 566 L278 -96 L178 -96 L178 387 Q142 330 89 262 L25 350 Q92 434 160 561 Q228 688 262 803 Z" /><glyph glyph-name="Identity.8323" unicode="&#x4f11;" d="M961 100 L894 9 Q736 170 643 394 L643 -101 L544 -101 L544 362 Q460 166 316 3 L260 65 L260 -101 L165 -101 L165 393 Q123 327 75 267 L15 354 Q79 437 143 560 Q207 683 242 799 L338 771 Q304 668 260 569 L260 106 Q433 289 525 530 L324 530 L324 634 L544 634 L544 807 L643 803 L643 634 L906 634 L906 530 L672 530 Q766 286 961 100 Z" /><glyph glyph-name="Identity.8329" unicode="&#x4f17;" d="M502 193 L438 110 Q388 177 331 241 Q285 78 121 -104 L35 -31 Q148 82 198 176 Q248 270 256 402 Q256 405 258 429 Q260 453 261 467 Q183 413 105 370 L50 471 Q193 540 291 622.5 Q389 705 453 808 L536 808 Q662 606 936 471 L882 370 Q620 509 495 697 Q418 583 290 488 L364 485 Q362 473 360 441 Q358 409 357 396 L354 363 Q418 294 502 193 ZM683 370 Q704 252 770.5 157.5 Q837 63 951 -20 L882 -105 Q709 33 644 188 Q613 107 557.5 34 Q502 -39 415 -117 L335 -36 Q464 67 520 165 Q576 263 584 395 Q587 425 590 489 L692 485 Q690 473 688 439 Q686 405 685 392 Q685 384 683 370 Z" /><glyph glyph-name="Identity.8330" unicode="&#x4f18;" d="M915 489 L583 489 Q571 294 517 165.5 Q463 37 331 -107 L266 -53 L266 -96 L168 -96 L168 394 Q130 334 81 272 L19 359 Q84 444 148.5 568 Q213 692 245 807 L343 779 Q307 665 266 574 L266 -16 Q374 96 417 205 Q460 314 477 489 L309 489 L309 588 L484 588 Q489 673 489 804 L590 800 L586 588 L794 588 Q772 616 726 661.5 Q680 707 654 728 L716 795 Q789 733 855 661 L799 588 L915 588 L915 489 ZM847 196 L940 163 Q932 37 932 36 Q924 -34 899.5 -58.5 Q875 -83 810 -83 L730 -83 Q669 -83 635.5 -55 Q602 -27 602 42 L602 463 L702 459 L702 68 Q702 38 712.5 27.5 Q723 17 751 17 L796 17 Q818 17 827 28 Q836 39 839 67 Q845 117 847 196 Z" /><glyph glyph-name="Identity.8331" unicode="&#x4f19;" d="M658 448 Q679 294 751.5 186.5 Q824 79 959 -15 L884 -110 Q686 49 616 237 Q539 43 335 -115 L258 -35 L258 -101 L161 -101 L161 372 Q128 318 83 262 L13 357 Q77 437 143 560.5 Q209 684 237 793 L337 768 Q304 656 258 554 L258 -26 Q427 93 491.5 221 Q556 349 552 559 L548 799 L659 795 L659 477 Q659 459 658 448 ZM830 654 L922 606 Q861 467 768 324 L680 373 Q763 493 830 654 ZM529 379 L445 317 Q383 457 294 603 L380 653 Q455 533 529 379 Z" /><glyph glyph-name="Identity.8332" unicode="&#x4f1a;" d="M453 817 L538 817 Q666 629 950 489 L906 391 Q823 435 757 479 L757 414 L232 414 L232 477 Q167 435 81 388 L37 485 Q319 622 453 817 ZM271 504 L721 504 Q566 617 495 719 Q423 612 271 504 ZM84 215 L84 307 L903 307 L903 215 L474 215 Q380 86 313 33 L659 47 Q607 109 577 139 L655 201 Q770 79 863 -42 L791 -119 Q791 -118 770.5 -90 Q750 -62 736 -45 Q395 -57 159 -77 L139 17 Q162 27 188 48 Q272 118 347 215 L84 215 Z" /><glyph glyph-name="Identity.8336" unicode="&#x4f1e;" d="M494 723 Q356 547 72 397 L26 500 Q151 558 269 646 Q387 734 452 820 L534 820 Q671 649 966 499 L915 400 Q784 467 669.5 554.5 Q555 642 494 723 ZM546 577 L546 193 L924 193 L924 95 L546 95 L546 -101 L443 -101 L443 95 L64 95 L64 193 L443 193 L443 581 L546 577 ZM393 305 L320 225 Q235 351 172 422 L251 487 Q274 464 322.5 402 Q371 340 393 305 ZM664 224 L586 296 Q674 388 733 487 L817 420 Q731 296 664 224 Z" /><glyph glyph-name="Identity.8337" unicode="&#x4f1f;" d="M252 808 L351 784 Q315 672 270 574 L270 -94 L172 -94 L172 395 Q121 316 78 263 L20 356 Q87 445 151 567 Q215 689 252 808 ZM622 310 L911 310 Q911 248 898 105 Q892 43 855.5 17 Q819 -9 754 -13 L703 -16 L673 83 L711 85 Q762 89 777.5 99 Q793 109 797 136 Q803 185 805 215 L622 215 L622 -98 L522 -98 L522 215 L294 215 L294 310 L522 310 L522 407 L348 407 L348 498 L522 498 L522 595 L324 595 L324 690 L522 690 L522 807 L622 803 L622 690 L901 690 L901 595 L622 595 L622 498 L867 498 L867 407 L622 407 L622 310 Z" /><glyph glyph-name="Identity.8338" unicode="&#x4f20;" d="M941 399 L547 399 Q534 356 520 314 L863 314 L863 224 Q836 193 727 36 Q801 -3 845 -28 L816 -125 Q729 -73 597.5 -9 Q466 55 372 93 L410 182 Q499 147 642 78 Q696 159 744 223 L412 223 L412 306 Q424 336 444 399 L302 399 L302 491 L470 491 Q485 547 493 586 L354 586 L354 679 L513 679 Q518 700 522 723.5 Q526 747 530 774 Q534 801 536 814 L635 802 Q626 744 614 679 L896 679 L896 586 L594 586 Q580 522 572 491 L941 491 L941 399 ZM248 809 L342 783 Q309 677 266 584 L266 -99 L172 -99 L172 411 Q118 329 78 280 L18 364 Q83 451 145 570 Q207 689 248 809 Z" /><glyph glyph-name="Identity.8342" unicode="&#x4f24;" d="M546 691 L935 691 L935 594 L494 594 Q441 506 379 433 L297 492 Q413 624 489 812 L588 786 Q571 742 546 691 ZM501 549 L600 545 Q598 473 594 425 L879 425 Q879 404 870.5 246 Q862 88 859 47 Q853 -27 820.5 -52.5 Q788 -78 700 -84 L625 -90 L594 8 L679 14 Q731 18 743.5 30 Q756 42 760 92 Q763 119 768 210 Q773 301 773 328 L587 328 Q581 263 572.5 218.5 Q564 174 548 128.5 Q532 83 505.5 45.5 Q479 8 439 -32.5 Q399 -73 341 -119 L268 -50 L268 -97 L170 -97 L170 395 Q132 334 87 275 L27 371 Q91 454 155.5 576.5 Q220 699 252 809 L352 778 Q314 670 268 574 L268 -43 Q390 46 433.5 121 Q477 196 489 328 L331 328 L331 425 L496 425 L501 549 Z" /><glyph glyph-name="Identity.8344" unicode="&#x4f26;" d="M242 812 L342 776 Q312 679 268 582 L268 -100 L167 -100 L167 396 Q119 323 81 274 L21 360 Q85 452 146.5 574.5 Q208 697 242 812 ZM615 697 Q552 574 442 473 L503 471 L503 299 Q646 363 769 449 L820 352 Q764 315 670.5 265.5 Q577 216 503 186 L503 79 Q503 41 516 30 Q529 19 572 15 Q628 10 683 15 Q733 19 747 32 Q761 45 769 88 Q772 103 777 166 L881 132 Q877 81 868 33 Q856 -30 823.5 -55.5 Q791 -81 714 -85 Q634 -90 555 -85 Q467 -81 434 -49.5 Q401 -18 401 75 L401 437 Q368 410 332 383 L273 472 Q362 534 443.5 625 Q525 716 572 809 L657 809 Q700 716 783 626.5 Q866 537 962 475 L903 385 Q694 529 615 697 Z" /><glyph glyph-name="Identity.8348" unicode="&#x4f2a;" d="M611 586 L895 586 Q894 567 885.5 338 Q877 109 872 52 Q866 -23 832 -48.5 Q798 -74 711 -83 L646 -89 L613 13 L681 19 Q736 23 755 37.5 Q774 52 778 99 Q783 144 789 306.5 Q795 469 796 483 L602 483 Q589 391 581 346 L629 395 Q699 325 768 233 L705 163 Q659 228 575 319 Q548 195 491.5 101.5 Q435 8 324 -103 L264 -47 L264 -95 L169 -95 L169 402 Q117 320 85 278 L24 364 Q85 447 144.5 566 Q204 685 236 800 L329 777 Q301 677 264 588 L264 -12 Q396 120 445 217.5 Q494 315 508 483 L303 483 L303 586 L515 586 L526 802 L623 797 Q623 791 620.5 752.5 Q618 714 615 663 Q612 612 611 586 ZM500 660 L441 589 Q422 616 384.5 663 Q347 710 327 730 L391 786 Q447 730 500 660 Z" /><glyph glyph-name="Identity.8353" unicode="&#x4f2f;" d="M239 810 L332 785 Q298 670 262 589 L262 -95 L166 -95 L166 407 Q120 333 84 288 L17 370 Q80 452 142 573 Q204 694 239 810 ZM652 676 L882 676 L882 -97 L786 -97 L786 -43 L474 -43 L474 -99 L377 -99 L377 676 L540 676 Q546 694 578 810 L688 792 Q660 697 652 676 ZM786 578 L474 578 L474 368 L786 368 L786 578 ZM474 49 L786 49 L786 276 L474 276 L474 49 Z" /><glyph glyph-name="Identity.8354" unicode="&#x4f30;" d="M235 807 L335 776 Q301 663 262 579 L262 -99 L160 -99 L160 388 Q126 336 82 279 L23 375 Q171 586 235 807 ZM928 539 L662 539 L662 363 L863 363 L863 -102 L761 -102 L761 -51 L468 -51 L468 -102 L368 -102 L368 363 L563 363 L563 539 L321 539 L321 637 L563 637 L563 801 L662 797 L662 637 L928 637 L928 539 ZM761 41 L761 262 L468 262 L468 41 L761 41 Z" /><glyph glyph-name="Identity.8358" unicode="&#x4f34;" d="M940 231 L940 137 L669 137 L669 -101 L570 -101 L570 137 L310 137 L310 231 L570 231 L570 350 L364 350 L364 442 L570 442 L570 809 L669 805 L669 442 L892 442 L892 350 L669 350 L669 231 L940 231 ZM247 798 L346 772 Q312 666 271 578 L271 -95 L171 -95 L171 399 Q130 338 83 278 L18 364 Q179 576 247 798 ZM823 753 L909 708 Q881 632 793 477 L707 522 Q779 638 823 753 ZM536 532 L455 480 Q437 526 401.5 594.5 Q366 663 340 703 L426 749 Q480 665 536 532 Z" /><glyph glyph-name="Identity.8360" unicode="&#x4f36;" d="M555 818 L641 818 Q737 625 960 484 L899 395 Q687 533 600 713 Q519 552 323 398 L266 468 L266 -93 L170 -93 L170 407 Q133 347 77 274 L19 361 Q84 451 147 575 Q210 699 244 815 L342 784 Q304 669 266 586 L266 487 Q459 628 555 818 ZM496 503 L568 567 Q645 483 681 427 L614 354 Q524 475 496 503 ZM328 262 L328 352 L861 352 L861 259 Q677 58 668 49 Q709 22 765 -17 L718 -113 Q536 23 361 124 L419 207 Q555 124 584 105 Q697 229 733 262 L328 262 Z" /><glyph glyph-name="Identity.8362" unicode="&#x4f38;" d="M232 810 L331 784 Q292 652 250 566 L250 -96 L155 -96 L155 391 Q95 299 84 285 L14 368 Q163 564 232 810 ZM893 676 L893 96 L656 96 L656 -99 L564 -99 L564 96 L344 96 L344 676 L564 676 L564 807 L656 803 L656 676 L893 676 ZM564 581 L435 581 L435 446 L564 446 L564 581 ZM800 581 L656 581 L656 446 L800 446 L800 581 ZM435 191 L564 191 L564 354 L435 354 L435 191 ZM656 191 L800 191 L800 354 L656 354 L656 191 Z" /><glyph glyph-name="Identity.8364" unicode="&#x4f3a;" d="M237 805 L336 783 Q299 661 260 571 L260 -97 L165 -97 L165 392 Q129 336 87 280 L17 364 Q172 572 237 805 ZM357 754 L885 754 L885 33 Q885 -41 859 -65 Q833 -89 751 -95 L681 -101 L649 -4 L719 2 Q767 6 779 16.5 Q791 27 791 63 L791 656 L357 656 L357 754 ZM751 560 L751 469 L310 469 L310 560 L751 560 ZM696 375 L696 45 L353 45 L353 375 L696 375 ZM603 135 L603 285 L446 285 L446 135 L603 135 Z" /><glyph glyph-name="Identity.8366" unicode="&#x4f3c;" d="M237 808 L331 778 Q304 686 263 589 L263 -96 L169 -96 L169 397 Q130 326 87 270 L18 368 Q81 457 142.5 575.5 Q204 694 237 808 ZM688 580 L615 518 Q540 662 488 745 L565 792 Q617 716 688 580 ZM956 -19 L883 -92 Q839 -23 742 116 Q671 4 497 -118 L433 -35 Q511 18 560.5 61.5 Q610 105 646.5 151.5 Q683 198 702.5 256.5 Q722 315 731.5 382 Q741 449 745 549 Q749 644 749 773 L844 769 Q844 665 839 547 Q834 332 789 211 Q884 94 956 -19 ZM605 360 L651 262 Q635 250 544 168.5 Q453 87 409 43 L340 119 Q366 143 366 172 L366 717 L460 713 L460 225 L605 360 Z" /><glyph glyph-name="Identity.8373" unicode="&#x4f43;" d="M227 801 L320 773 Q291 677 253 585 L253 -98 L155 -98 L155 394 Q129 350 78 277 L15 363 Q161 571 227 801 ZM348 744 L892 744 L892 -87 L796 -87 L796 -33 L445 -33 L445 -87 L348 -87 L348 744 ZM569 640 L445 640 L445 406 L569 406 L569 640 ZM796 406 L796 640 L663 640 L663 406 L796 406 ZM445 307 L445 64 L569 64 L569 307 L445 307 ZM663 64 L796 64 L796 307 L663 307 L663 64 Z" /><glyph glyph-name="Identity.8376" unicode="&#x4f46;" d="M237 802 L339 780 Q300 657 263 576 L263 -104 L165 -104 L165 391 Q119 316 74 261 L18 357 Q168 571 237 802 ZM875 754 L875 165 L374 165 L374 754 L875 754 ZM776 658 L472 658 L472 506 L776 506 L776 658 ZM472 261 L776 261 L776 410 L472 410 L472 261 ZM299 30 L941 30 L941 -65 L299 -65 L299 30 Z" /><glyph glyph-name="Identity.8383" unicode="&#x4f4d;" d="M234 810 L336 786 Q298 667 262 586 L262 -91 L164 -91 L164 401 Q122 334 77 276 L12 362 Q164 570 234 810 ZM324 654 L568 654 Q548 732 528 785 L628 800 Q642 760 675 654 L909 654 L909 555 L324 555 L324 654 ZM722 32 L936 32 L936 -61 L295 -61 L295 32 Q341 32 395 32 Q449 32 517.5 32 Q586 32 624 32 Q697 242 764 523 L863 492 Q792 241 722 32 ZM586 134 L497 92 Q432 338 379 489 L471 515 Q534 349 586 134 Z" /><glyph glyph-name="Identity.8384" unicode="&#x4f4e;" d="M237 816 L335 785 Q301 671 259 582 L259 -96 L163 -96 L163 405 Q119 337 72 279 L20 373 Q82 452 144 578 Q206 704 237 816 ZM865 161 L939 120 Q920 29 912 7 Q894 -45 873.5 -69.5 Q853 -94 823 -94 Q745 -94 691 59 Q653 169 634 354 L462 354 L462 121 L613 223 L642 122 Q632 117 532.5 49 Q433 -19 387 -53 L333 30 Q353 42 359 54.5 Q365 67 365 90 L365 723 Q616 737 863 789 L885 688 Q812 671 713 656 Q714 545 722 449 L928 449 L928 354 L731 354 Q749 178 784 82 Q803 34 823 34 Q834 34 847 76 Q858 114 865 161 ZM463 449 L626 449 Q623 487 616 642 Q524 630 463 625 L463 449 ZM508 15 L579 67 Q632 13 670 -46 L606 -111 Q560 -40 508 15 Z" /><glyph glyph-name="Identity.8385" unicode="&#x4f4f;" d="M654 29 L933 29 L933 -66 L297 -66 L297 29 L552 29 L552 261 L342 261 L342 358 L552 358 L552 550 L320 550 L320 648 L558 648 Q539 729 520 788 L619 802 Q623 787 630.5 761 Q638 735 647 700.5 Q656 666 661 648 L902 648 L902 550 L654 550 L654 358 L870 358 L870 261 L654 261 L654 29 ZM235 801 L334 768 Q296 654 257 569 L257 -95 L161 -95 L161 388 Q116 317 85 276 L18 364 Q81 450 141 568 Q201 686 235 801 Z" /><glyph glyph-name="Identity.8387" unicode="&#x4f51;" d="M944 574 L603 574 Q577 498 526 399 L874 399 L874 -95 L772 -95 L772 -41 L515 -41 L515 -95 L415 -95 L415 226 Q374 172 307 99 L269 146 L269 -98 L171 -98 L171 403 Q133 344 71 268 L16 360 Q79 438 147 565.5 Q215 693 247 804 L347 781 Q308 658 269 578 L269 209 Q420 375 495 574 L334 574 L334 673 L526 673 Q544 748 551 801 L657 789 Q643 714 632 673 L944 673 L944 574 ZM772 56 L772 300 L515 300 L515 56 L772 56 Z" /><glyph glyph-name="Identity.8389" unicode="&#x4f53;" d="M909 547 L678 547 Q765 339 972 152 L904 59 Q731 227 637 438 L637 154 L792 154 L792 62 L637 62 L637 -101 L539 -101 L539 62 L392 62 L392 154 L539 154 L539 433 Q455 232 290 59 L255 106 L255 -94 L159 -94 L159 385 Q119 322 80 271 L18 360 Q76 444 135 564.5 Q194 685 228 801 L332 783 Q300 674 255 569 L255 176 Q417 335 503 547 L300 547 L300 648 L539 648 L539 805 L637 801 L637 648 L909 648 L909 547 Z" /><glyph glyph-name="Identity.8391" unicode="&#x4f55;" d="M230 805 L326 779 Q299 681 255 578 L255 -98 L158 -98 L158 394 Q124 340 75 274 L12 354 Q70 434 135 564.5 Q200 695 230 805 ZM940 745 L940 650 L855 650 L855 48 Q855 -33 826.5 -60.5 Q798 -88 707 -96 L633 -102 L602 -2 L682 4 Q725 6 741 19.5 Q757 33 757 76 L757 650 L329 650 L329 745 L940 745 ZM663 536 L663 125 L348 125 L348 536 L663 536 ZM574 213 L574 445 L436 445 L436 213 L574 213 Z" /><glyph glyph-name="Identity.8395" unicode="&#x4f59;" d="M896 231 L553 231 L553 30 Q553 -41 525.5 -64.5 Q498 -88 417 -97 L348 -104 L314 1 L377 7 Q427 13 438.5 21.5 Q450 30 450 66 L450 231 L88 231 L88 329 L450 329 L450 428 L257 428 L257 494 Q183 443 90 396 L43 495 Q184 561 278.5 635 Q373 709 446 810 L539 810 Q611 710 707.5 634.5 Q804 559 946 493 L896 395 Q816 436 734 492 L734 428 L553 428 L553 329 L896 329 L896 231 ZM493 718 Q423 613 300 524 L689 524 Q555 626 493 718 ZM267 214 L345 148 Q278 63 110 -86 L45 -4 Q105 40 167 99.5 Q229 159 267 214 ZM632 136 L693 212 Q744 180 813.5 122.5 Q883 65 929 19 L875 -74 Q829 -23 756.5 38 Q684 99 632 136 Z" /><glyph glyph-name="Identity.8397" unicode="&#x4f5b;" d="M213 806 L305 781 Q276 682 241 590 L241 -93 L151 -93 L151 395 Q125 346 82 283 L14 366 Q153 584 213 806 ZM712 301 L914 301 Q910 229 903 88 Q899 30 878.5 14 Q858 -2 790 -8 L752 -12 L722 85 L760 87 Q790 89 803 96.5 Q816 104 818 124 Q820 134 822.5 168 Q825 202 826 212 L712 212 L712 -100 L620 -100 L620 212 L528 212 Q519 98 474.5 26.5 Q430 -45 328 -119 L257 -49 Q357 21 395 75 Q433 129 439 212 L280 212 L300 493 L441 493 L441 599 L292 599 L292 688 L441 688 L441 804 L532 800 L532 688 L620 688 L620 805 L712 801 L712 688 L878 688 L878 403 L712 403 L712 301 ZM532 599 L532 493 L620 493 L620 599 L532 599 ZM787 599 L712 599 L712 493 L787 493 L787 599 ZM381 403 L371 301 L441 301 L441 403 L381 403 ZM532 301 L620 301 L620 403 L532 403 L532 301 Z" /><glyph glyph-name="Identity.8398" unicode="&#x4f5c;" d="M914 575 L624 574 L624 436 L865 436 L865 336 L624 336 L624 199 L886 199 L886 99 L624 99 L624 -102 L524 -102 L524 574 L491 574 Q425 445 346 351 L279 429 Q403 580 481 811 L577 781 Q551 707 536 672 L914 672 L914 575 ZM241 795 L342 764 Q309 658 264 561 L264 -96 L162 -96 L162 378 Q131 331 87 277 L22 365 Q84 443 142.5 557.5 Q201 672 241 795 Z" /><glyph glyph-name="Identity.8402" unicode="&#x4f60;" d="M371 389 L286 443 Q340 516 388 615.5 Q436 715 462 807 L561 787 Q541 724 524 684 L918 684 L918 589 L836 428 L741 461 L810 589 L482 589 Q439 496 371 389 ZM416 377 L505 352 Q445 151 344 -16 L254 21 L254 -95 L156 -95 L156 395 Q115 331 87 290 L21 368 Q81 455 138.5 571.5 Q196 688 226 799 L326 775 Q289 658 254 581 L254 25 Q353 182 416 377 ZM568 51 L568 519 L665 515 L665 15 Q665 -46 641 -68 Q617 -90 549 -96 L492 -102 L461 -2 L515 4 Q548 8 558 17 Q568 26 568 51 ZM707 339 L793 379 Q913 152 955 33 L872 -23 Q814 130 707 339 Z" /><glyph glyph-name="Identity.8405" unicode="&#x4f63;" d="M212 799 L309 779 Q278 667 240 574 L240 -98 L148 -98 L148 391 Q121 347 83 292 L23 376 Q148 566 212 799 ZM333 756 L892 756 L892 21 Q892 -42 867.5 -66 Q843 -90 778 -96 L724 -101 L693 -1 L737 4 Q773 8 782 16 Q791 24 791 52 L791 179 L646 179 L646 -76 L556 -76 L556 179 L429 179 Q414 16 335 -112 L242 -65 Q300 32 316.5 106.5 Q333 181 333 356 L333 756 ZM556 658 L434 658 L434 510 L556 510 L556 658 ZM791 510 L791 658 L646 658 L646 510 L791 510 ZM434 276 L556 276 L556 413 L434 413 L434 276 ZM646 276 L791 276 L791 413 L646 413 L646 276 Z" /><glyph glyph-name="Identity.8411" unicode="&#x4f69;" d="M902 158 L972 129 Q965 70 951 17 Q925 -79 869 -79 Q844 -79 820 -51 Q796 -23 785 25 Q771 88 766.5 135.5 Q762 183 762 295 L762 671 L378 671 L378 292 Q378 91 284 -83 L220 -46 L220 -92 L136 -92 L136 390 Q114 348 71 278 L18 372 Q74 456 125 574 Q176 692 199 802 L286 782 Q261 672 220 567 L220 -7 Q291 139 291 298 L291 763 L842 763 L842 307 Q842 168 850 106 Q859 41 871 41 Q886 41 895 106 Q896 114 898 132 Q900 150 902 158 ZM405 518 L405 600 L741 600 L741 518 L602 518 L602 430 L736 430 L736 100 Q736 42 721.5 24.5 Q707 7 661 1 L644 -1 L616 81 L630 83 Q642 85 645.5 85.5 Q649 86 655.5 89.5 Q662 93 663.5 99.5 Q665 106 665 118 L665 346 L602 346 L602 -90 L528 -90 L528 346 L473 346 L473 9 L404 9 L404 430 L528 430 L528 518 L405 518 Z" /><glyph glyph-name="Identity.8421" unicode="&#x4f73;" d="M566 466 L566 586 L356 586 L356 678 L566 678 L566 801 L664 797 L664 678 L879 678 L879 586 L664 586 L664 466 L928 466 L928 372 L301 372 L301 466 L566 466 ZM237 800 L333 777 Q306 670 268 586 L268 -102 L168 -102 L168 396 Q123 322 85 267 L22 362 Q182 594 237 800 ZM664 24 L937 24 L937 -69 L295 -69 L295 24 L566 24 L566 165 L356 165 L356 258 L566 258 L566 350 L664 346 L664 258 L879 258 L879 165 L664 165 L664 24 Z" /><glyph glyph-name="Identity.8433" unicode="&#x4f7f;" d="M218 805 L312 780 Q283 667 245 576 L245 -103 L149 -103 L149 384 Q123 339 85 284 L16 356 Q74 441 128.5 561 Q183 681 218 805 ZM954 -1 L928 -104 Q692 -72 557 -1 Q478 -68 300 -119 L253 -22 Q395 14 465 57 Q390 116 336 198 L395 246 L326 246 L326 524 L559 524 L559 603 L304 603 L304 693 L559 693 L559 802 L654 798 L654 693 L916 693 L916 603 L654 603 L654 524 L887 524 L887 246 L654 246 Q649 134 618 76 Q740 22 954 -1 ZM418 440 L418 333 L559 333 L559 440 L418 440 ZM793 440 L654 440 L654 333 L793 333 L793 440 ZM559 246 L410 246 Q461 172 532 124 Q554 165 559 246 Z" /><glyph glyph-name="Identity.8438" unicode="&#x4f84;" d="M234 801 L334 770 Q301 664 258 571 L258 -103 L161 -103 L161 393 Q116 325 73 271 L14 367 Q163 563 234 801 ZM373 474 Q410 506 508 653 L341 653 L341 750 L901 750 L901 653 L628 653 Q541 528 484 462 L733 473 Q676 549 660 568 L738 623 Q826 516 910 389 L834 324 Q825 339 796 384 Q417 366 357 361 L330 447 Q347 451 373 474 ZM658 14 L927 14 L927 -77 L301 -77 L301 14 L561 14 L561 156 L354 156 L354 247 L561 247 L561 353 L658 349 L658 247 L873 247 L873 156 L658 156 L658 14 Z" /><glyph glyph-name="Identity.8442" unicode="&#x4f88;" d="M649 349 L927 349 L927 265 Q839 142 696 49 Q553 -44 307 -120 L268 -33 Q491 31 614 99.5 Q737 168 818 265 L573 265 Q547 239 532 226 Q575 197 628 153 L561 82 Q520 123 460 166 Q410 129 337 84 L284 158 Q464 263 574 398 Q459 341 302 293 L270 380 Q617 472 784 639 L530 639 L501 610 Q546 581 595 541 L529 474 Q495 505 432 550 Q419 540 342 484 L289 554 Q467 671 560 815 L645 783 Q632 763 602 723 L898 723 L898 639 Q791 516 624 423 L686 399 L649 349 ZM232 804 L332 786 Q295 663 252 570 L252 -97 L155 -97 L155 389 Q122 338 86 290 L21 369 Q176 600 232 804 Z" /><glyph glyph-name="Identity.8445" unicode="&#x4f8b;" d="M209 805 L305 785 Q276 680 241 589 L241 -99 L154 -99 L154 401 Q102 310 83 283 L18 366 Q73 454 127 574 Q181 694 209 805 ZM801 784 L890 780 L890 33 Q890 -37 862 -61 Q834 -85 749 -93 L694 -99 L665 -6 L726 0 Q774 4 787.5 15 Q801 26 801 61 L801 784 ZM310 665 L310 760 L637 760 L637 665 L480 665 Q461 572 454 545 L613 545 L613 443 Q577 249 513.5 127 Q450 5 321 -118 L255 -47 Q322 14 370.5 77 Q419 140 448.5 204.5 Q478 269 494.5 325 Q511 381 523 451 L427 451 Q422 438 412 409 Q402 380 396 365 Q453 312 471 291 L425 204 Q403 232 357 276 Q330 221 307 184 L242 251 Q286 331 326.5 446.5 Q367 562 387 665 L310 665 ZM737 675 L737 124 L649 124 L649 679 L737 675 Z" /><glyph glyph-name="Identity.8447" unicode="&#x4f8d;" d="M239 805 L337 773 Q308 691 260 586 L260 -94 L159 -94 L159 403 Q130 355 82 290 L18 384 Q165 572 239 805 ZM658 495 L935 495 L935 401 L295 401 L295 495 L556 495 L556 596 L348 596 L348 689 L556 689 L556 803 L658 797 L658 689 L880 689 L880 596 L658 596 L658 495 ZM794 369 L794 300 L914 300 L914 207 L794 207 L794 29 Q794 -41 766 -62.5 Q738 -84 647 -94 L593 -100 L565 -5 L622 1 Q666 5 678.5 16 Q691 27 691 62 L691 207 L452 207 Q515 148 566 89 L497 7 Q435 85 363 154 L419 207 L317 207 L317 300 L691 300 L691 375 L794 369 Z" /><glyph glyph-name="Identity.8461" unicode="&#x4f9b;" d="M228 818 L325 787 Q294 684 254 593 L254 -92 L152 -92 L152 403 Q105 330 72 289 L10 380 Q73 465 133.5 582.5 Q194 700 228 818 ZM788 303 L930 303 L930 207 L281 207 L281 303 L419 303 L419 532 L319 532 L319 627 L419 627 L419 804 L519 800 L519 627 L689 627 L689 804 L788 800 L788 627 L899 627 L899 532 L788 532 L788 303 ZM519 532 L519 303 L689 303 L689 532 L519 532 ZM339 -104 L274 -27 Q325 12 386 73 Q447 134 490 188 L564 124 Q459 -3 339 -104 ZM645 118 L712 186 Q815 88 916 -21 L852 -103 Q756 13 645 118 Z" /><glyph glyph-name="Identity.8463" unicode="&#x4f9d;" d="M726 280 Q804 139 953 40 L881 -49 Q751 48 679 159.5 Q607 271 562 448 Q534 401 503 358 L503 49 L639 121 L661 20 Q654 17 605 -7 Q556 -31 505.5 -56.5 Q455 -82 417 -102 L371 -19 Q394 -6 400 7 Q406 20 406 43 L406 244 Q355 192 295 142 L249 203 L249 -90 L151 -90 L151 395 Q105 321 78 285 L15 372 Q151 554 225 809 L323 787 Q284 665 249 585 L249 241 Q344 317 408.5 398.5 Q473 480 521 580 L313 580 L313 677 L556 677 Q541 737 522 793 L622 808 Q636 771 662 677 L910 677 L910 580 L627 580 L626 578 Q648 460 685 367 Q759 425 828 500 L891 424 Q821 351 726 280 Z" /><glyph glyph-name="Identity.8466" unicode="&#x4fa0;" d="M924 249 L674 249 Q708 159 774 94.5 Q840 30 948 -18 L893 -115 Q697 -11 613 150 Q541 8 335 -113 L276 -24 Q505 103 548 249 L292 249 L292 343 L562 343 L562 595 L320 595 L320 690 L562 690 L562 805 L658 801 L658 690 L900 690 L900 595 L658 595 L658 343 L924 343 L924 249 ZM239 802 L334 776 Q295 653 256 573 L256 -99 L162 -99 L162 399 Q136 353 82 277 L18 366 Q83 457 145.5 574.5 Q208 692 239 802 ZM767 349 L690 395 Q745 466 808 583 L885 538 Q835 442 767 349 ZM333 535 L409 581 Q487 472 524 400 L450 346 Q403 439 333 535 Z" /><glyph glyph-name="Identity.8469" unicode="&#x4fa3;" d="M234 820 L333 790 Q297 677 251 580 L251 -81 L152 -81 L152 400 Q116 347 71 284 L5 378 Q68 462 132 582 Q196 702 234 820 ZM851 773 L851 429 L376 429 L376 773 L851 773 ZM756 523 L756 680 L474 680 L474 523 L756 523 ZM351 335 L885 335 L885 -84 L787 -84 L787 -38 L448 -38 L448 -83 L351 -83 L351 335 ZM448 57 L787 57 L787 239 L448 239 L448 57 Z" /><glyph glyph-name="Identity.8471" unicode="&#x4fa5;" d="M846 137 L931 106 Q926 48 922 23 Q912 -37 889 -57 Q866 -77 806 -81 Q761 -84 718 -81 Q659 -77 635 -53.5 Q611 -30 611 27 L611 207 L519 207 Q518 206 518 200 Q514 79 467 14.5 Q420 -50 298 -113 L242 -38 L242 -91 L147 -91 L147 402 Q90 313 78 296 L13 378 Q144 570 217 813 L313 785 Q271 651 242 587 L242 -33 Q343 14 379.5 63.5 Q416 113 422 204 L422 207 L292 207 L292 296 L896 296 L896 207 L707 207 L707 58 Q707 37 712 27 Q717 17 723.5 15 Q730 13 747 11 Q771 8 795 11 Q817 15 825 24.5 Q833 34 839 59 Q846 96 846 137 ZM300 668 L431 684 Q414 746 401 802 L502 813 Q526 712 530 696 L878 737 L888 649 L559 607 Q574 567 597 526 Q599 524 599 522 Q713 573 800 636 L850 560 Q769 497 660 446 Q713 398 765 398 Q793 398 805 407.5 Q817 417 827 443 Q833 458 850 511 L928 461 Q918 424 901 388 Q881 344 848.5 325 Q816 306 765 306 Q720 306 665.5 331.5 Q611 357 566 406 Q475 369 314 329 L283 420 Q393 443 510 485 Q481 538 460 595 L310 576 L300 668 Z" /><glyph glyph-name="Identity.8472" unicode="&#x4fa6;" d="M630 723 L918 723 L918 635 L630 635 L630 545 L856 545 L856 129 L760 129 L760 454 L443 454 L443 129 L346 129 L346 545 L531 545 L531 813 L630 809 L630 723 ZM230 812 L328 786 Q293 676 253 585 L253 -91 L156 -91 L156 403 Q137 371 81 290 L18 380 Q164 583 230 812 ZM647 409 L647 266 Q647 134 575.5 49.5 Q504 -35 312 -106 L266 -14 Q361 21 416.5 49.5 Q472 78 503 114 Q534 150 543 187 Q552 224 552 284 L552 413 L647 409 ZM620 72 L666 154 Q810 73 918 -12 L871 -107 Q748 2 620 72 Z" /><glyph glyph-name="Identity.8473" unicode="&#x4fa7;" d="M192 806 L281 784 Q259 698 224 606 L224 -95 L143 -95 L143 428 Q138 418 117.5 379.5 Q97 341 85 320 L18 392 Q69 471 117.5 583 Q166 695 192 806 ZM805 787 L887 783 L887 26 Q887 -39 868.5 -56.5 Q850 -74 778 -82 L737 -87 L705 2 L770 9 Q792 11 798.5 20 Q805 29 805 60 L805 787 ZM376 663 L376 159 L300 159 L300 756 L603 756 L603 162 L526 162 L526 663 L376 663 ZM742 696 L742 132 L662 132 L662 700 L742 696 ZM488 613 L488 332 Q488 219 469 149.5 Q450 80 409 27.5 Q368 -25 281 -99 L224 -33 Q289 16 324.5 51.5 Q360 87 380.5 133 Q401 179 406 225.5 Q411 272 411 355 L411 617 L488 613 ZM458 94 L511 156 Q594 80 650 10 L586 -60 Q514 37 458 94 Z" /><glyph glyph-name="Identity.8474" unicode="&#x4fa8;" d="M954 263 L911 171 Q833 209 770 257 L770 -95 L673 -95 L673 288 L736 285 Q659 356 610 452 L603 452 Q563 360 482 285 L538 283 L538 202 Q538 88 504.5 18 Q471 -52 375 -122 L309 -49 Q360 -11 385.5 17.5 Q411 46 425.5 89.5 Q440 133 440 199 L440 249 Q385 206 319 163 L266 238 L266 -93 L170 -93 L170 408 Q131 343 76 270 L19 358 Q86 451 147.5 574 Q209 697 241 813 L339 782 Q307 678 266 589 L266 251 Q355 304 407.5 350 Q460 396 491 452 L303 452 L303 544 L528 544 Q544 591 553 664 Q411 654 357 651 L353 745 Q653 760 859 794 L870 701 Q804 689 657 674 Q648 602 633 544 L912 544 L912 452 L712 452 Q753 393 808 351 Q863 309 954 263 Z" /><glyph glyph-name="Identity.8480" unicode="&#x4fae;" d="M940 262 L845 262 L841 122 L910 122 L910 36 L837 36 L837 30 Q833 -41 804 -65.5 Q775 -90 697 -96 L612 -103 L583 -12 L666 -5 Q705 -2 720 6 Q735 14 739 36 L310 36 L335 262 L269 262 L269 348 L344 348 L359 483 L342 462 L267 529 Q320 590 370 669 Q420 748 450 818 L538 788 Q530 767 512 725 L908 725 L908 635 L464 635 Q443 599 419 563 L855 563 Q855 558 854 528 Q853 498 851 446 Q849 394 848 348 L940 348 L940 262 ZM218 807 L314 782 Q275 659 248 594 L248 -96 L153 -96 L153 404 Q127 360 84 297 L22 387 Q162 612 218 807 ZM451 477 L437 348 L615 348 Q565 393 514 429 L549 477 L451 477 ZM647 348 L756 348 Q762 476 762 477 L593 477 Q647 437 682 405 L647 348 ZM428 262 L413 122 L612 122 Q552 177 498 212 L533 262 L428 262 ZM628 122 L744 122 Q746 145 748.5 197 Q751 249 752 262 L571 262 Q616 230 666 187 L628 122 Z" /><glyph glyph-name="Identity.8481" unicode="&#x4faf;" d="M241 807 L337 782 Q306 673 255 562 L255 -101 L158 -101 L158 386 Q128 340 82 279 L21 367 Q80 448 143.5 572 Q207 696 241 807 ZM928 158 L674 158 Q739 39 953 -13 L911 -105 Q709 -44 620 67 Q584 14 512 -28.5 Q440 -71 319 -114 L274 -27 Q413 21 477 62.5 Q541 104 559 158 L287 158 L287 242 L363 242 L297 286 Q375 379 422 498 L306 498 L306 583 L727 583 L734 675 L380 675 L380 762 L836 762 L823 583 L932 583 L932 498 L425 498 L509 468 Q495 434 487 417 L881 417 L881 334 L666 334 L663 242 L928 242 L928 158 ZM570 334 L444 334 Q410 278 383 242 L569 242 Q570 269 570 334 Z" /><glyph glyph-name="Identity.8487" unicode="&#x4fb5;" d="M226 804 L320 781 Q282 646 243 561 L243 -103 L156 -103 L156 393 Q112 319 84 278 L19 360 Q77 444 135.5 566.5 Q194 689 226 804 ZM858 770 L858 453 L345 453 L345 527 L765 527 L765 576 L374 576 L374 647 L765 647 L765 696 L352 696 L352 770 L858 770 ZM949 -15 L919 -100 Q704 -56 604 -7 Q489 -65 309 -106 L271 -23 Q414 5 513 47 Q449 96 404 161 L460 203 L375 203 L375 236 L294 236 L294 402 L915 402 L915 236 L844 236 L844 206 Q776 105 692 45 Q789 10 949 -15 ZM828 329 L381 329 L381 275 L828 275 L828 329 ZM734 203 L484 203 Q532 133 599 91 Q671 135 734 203 Z" /><glyph glyph-name="Identity.8497" unicode="&#x4fbf;" d="M948 6 L926 -91 Q675 -66 549 -5 Q475 -59 287 -112 L250 -24 L250 -101 L155 -101 L155 379 Q117 314 82 269 L12 353 Q153 550 225 801 L321 775 Q298 681 250 568 L250 -22 Q398 12 462 49 Q402 95 350 164 L402 205 L337 205 L337 597 L559 597 L559 675 L330 675 L330 768 L919 768 L919 675 L652 675 L652 597 L881 597 L881 205 L649 205 Q641 116 613 66 Q721 22 948 6 ZM559 513 L431 513 L431 445 L559 445 L559 513 ZM787 513 L652 513 L652 445 L787 445 L787 513 ZM431 357 L431 289 L559 289 L559 357 L431 357 ZM652 289 L787 289 L787 357 L652 357 L652 289 ZM555 205 L430 205 Q475 149 527 111 Q548 148 555 205 Z" /><glyph glyph-name="Identity.8501" unicode="&#x4fc3;" d="M683 183 L683 25 Q816 19 950 25 L934 -69 Q810 -75 685 -69 Q589 -65 528 -33.5 Q467 -2 428 70 Q394 -14 324 -98 L260 -58 L260 -98 L161 -98 L161 389 Q128 336 86 280 L19 359 Q78 447 141.5 572.5 Q205 698 235 801 L329 775 Q299 672 260 579 L260 -18 Q325 67 352.5 148 Q380 229 386 357 L484 348 Q478 257 466 201 Q502 77 584 43 L584 414 L371 414 L371 765 L875 765 L875 414 L683 414 L683 276 L906 276 L906 183 L683 183 ZM471 668 L471 511 L775 511 L775 668 L471 668 Z" /><glyph glyph-name="Identity.8502" unicode="&#x4fc4;" d="M234 807 L326 782 Q293 671 253 578 L253 -96 L161 -96 L161 397 Q142 364 91 284 L18 361 Q74 438 139 569 Q204 700 234 807 ZM886 168 L967 128 Q965 120 957 82 Q949 44 943 18 Q928 -43 901.5 -70.5 Q875 -98 835 -98 Q794 -98 762.5 -69 Q731 -40 704 27 Q700 36 694 54 Q688 72 686 77 Q622 20 553 -22 L510 57 L510 23 Q510 -38 483 -59 Q456 -80 381 -89 L327 -95 L297 3 L350 9 Q391 13 403.5 22 Q416 31 416 59 L416 203 Q320 180 298 176 L280 275 Q316 281 416 304 L416 437 L281 437 L281 535 L416 535 L416 637 Q360 626 318 620 L307 712 Q457 736 576 775 L596 683 Q580 678 510 658 L510 535 L624 534 L620 608 Q612 773 612 804 L709 800 Q708 765 714 605 Q716 546 718 534 L926 534 L926 437 L725 437 Q732 344 745 260 Q801 325 843 405 L918 363 Q852 245 765 152 Q780 91 799 49 Q819 11 835 11 Q850 11 867 73 Q877 111 886 168 ZM918 628 L851 554 Q822 598 723 718 L790 776 Q885 674 918 628 ZM510 226 L510 69 Q604 127 662 177 Q643 275 630 437 L510 437 L510 327 Q577 344 612 356 L624 259 Q615 256 598.5 251 Q582 246 556 239 Q530 232 510 226 Z" /><glyph glyph-name="Identity.8508" unicode="&#x4fca;" d="M949 -16 L907 -105 Q714 -42 616 15 Q497 -57 310 -113 L265 -22 Q434 25 531 74 Q480 114 438 171 Q385 115 321 64 L263 137 Q328 188 390 260.5 Q452 333 489 401 Q403 335 314 283 L266 370 Q406 443 486 520 L336 510 L316 600 Q340 606 378 630 Q406 648 462.5 710 Q519 772 555 823 L637 769 Q563 673 482 607 L737 619 Q693 663 663 690 L727 753 Q824 665 929 551 L870 478 Q842 510 817 536 Q791 535 674 529 Q557 523 491 520 L544 447 Q521 427 491 403 L570 365 L552 331 L841 331 Q712 413 648 445 L695 526 Q746 498 825.5 449.5 Q905 401 942 373 L906 287 Q871 312 846 328 L846 253 Q777 137 695 71 Q788 23 949 -16 ZM239 808 L334 783 Q299 665 253 565 L253 -96 L159 -96 L159 391 Q120 331 86 286 L22 364 Q81 443 146 571.5 Q211 700 239 808 ZM498 245 Q540 176 612 122 Q684 175 735 249 L500 249 Q499 248 498 245 Z" /><glyph glyph-name="Identity.8513" unicode="&#x4fcf;" d="M668 803 L668 539 L886 539 L886 21 Q886 -45 862 -67.5 Q838 -90 769 -96 L710 -102 L681 -5 L737 1 Q768 4 777 13.5 Q786 23 786 53 L786 100 L456 100 L456 -88 L357 -88 L357 539 L568 539 L568 807 L668 803 ZM222 801 L320 776 Q292 679 257 598 L257 -95 L159 -95 L159 405 Q123 345 84 288 L17 366 Q74 442 134.5 568 Q195 694 222 801 ZM843 787 L917 726 Q857 641 772 547 L697 610 Q793 719 843 787 ZM541 615 L471 540 Q403 632 333 713 L405 780 Q473 707 541 615 ZM786 363 L786 444 L456 444 L456 363 L786 363 ZM456 187 L786 187 L786 274 L456 274 L456 187 Z" /><glyph glyph-name="Identity.8514" unicode="&#x4fd0;" d="M730 130 L643 130 L643 196 L594 145 Q552 211 503 272 L503 -93 L412 -93 L412 261 Q366 161 304 79 L244 155 L244 -96 L152 -96 L152 398 Q122 348 86 299 L15 372 Q72 450 130 573 Q188 696 215 801 L309 776 Q307 768 300.5 746 Q294 724 290 712 Q441 731 588 777 L604 688 Q551 673 503 662 L503 532 L614 532 L614 438 L503 438 L503 348 L531 372 Q608 288 643 234 L643 684 L730 680 L730 130 ZM804 779 L892 775 L892 28 Q892 -42 869 -64 Q846 -86 763 -94 L698 -100 L671 -7 L731 -1 Q777 3 790.5 12.5 Q804 22 804 56 L804 779 ZM244 584 L244 157 Q337 279 400 438 L282 438 L282 532 L412 532 L412 642 Q344 628 304 622 L289 709 Q260 624 244 584 Z" /><glyph glyph-name="Identity.8521" unicode="&#x4fd7;" d="M920 591 L866 505 Q829 545 752.5 618 Q676 691 634 725 L697 797 Q739 763 810.5 697 Q882 631 920 591 ZM341 509 L280 590 Q387 674 495 796 L561 728 Q459 609 341 509 ZM964 298 L911 207 Q864 235 836 257 L836 -101 L739 -101 L739 -56 L468 -56 L468 -101 L371 -101 L371 250 L302 203 L254 282 L254 -94 L155 -94 L155 389 Q123 336 89 289 L20 367 Q76 442 137 565 Q198 688 227 793 L321 767 Q291 663 254 579 L254 298 Q465 429 562 601 L642 601 Q738 431 964 298 ZM438 303 L776 303 Q659 399 604 506 Q548 399 438 303 ZM468 34 L739 34 L739 213 L468 213 L468 34 Z" /><glyph glyph-name="Identity.8522" unicode="&#x4fd8;" d="M216 806 L312 778 Q279 666 245 591 L245 -94 L148 -94 L148 396 Q112 333 70 272 L7 359 Q65 445 124.5 569.5 Q184 694 216 806 ZM331 606 L411 652 L328 648 L319 739 Q654 755 875 796 L892 706 Q711 673 412 652 Q459 575 492 512 L415 456 Q385 524 331 606 ZM780 454 L699 502 Q765 599 800 678 L881 632 Q833 531 780 454 ZM685 521 L600 469 Q586 510 526 619 L610 663 Q679 536 685 521 ZM931 242 L931 154 L656 154 L656 26 Q656 -37 630 -59.5 Q604 -82 528 -88 L456 -94 L428 0 L502 6 Q535 8 545 16 Q555 24 555 51 L555 154 L284 154 L284 242 L555 242 L555 276 L716 367 L350 367 L350 452 L880 452 L880 370 L663 242 L931 242 Z" /><glyph glyph-name="Identity.8527" unicode="&#x4fdd;" d="M230 800 L330 775 Q295 662 253 567 L253 -99 L159 -99 L159 388 Q131 344 88 284 L20 366 Q78 449 140 572.5 Q202 696 230 800 ZM863 763 L863 430 L363 430 L363 763 L863 763 ZM764 523 L764 670 L463 670 L463 523 L764 523 ZM919 250 L686 250 Q781 131 960 39 L908 -55 Q749 50 656 171 L656 -96 L562 -96 L562 168 Q471 38 312 -63 L256 27 Q355 79 418 130.5 Q481 182 527 250 L309 250 L309 338 L562 338 L562 411 L656 407 L656 338 L919 338 L919 250 Z" /><glyph glyph-name="Identity.8531" unicode="&#x4fe1;" d="M225 806 L321 778 Q293 679 254 585 L254 -98 L158 -98 L158 398 Q100 308 87 290 L17 370 Q78 455 138.5 578 Q199 701 225 806 ZM672 700 L940 700 L940 608 L306 608 L306 700 L563 700 L535 784 L638 799 Q640 793 652.5 758 Q665 723 672 700 ZM854 543 L854 460 L359 460 L359 543 L854 543 ZM359 310 L359 395 L854 395 L854 310 L359 310 ZM350 -96 L350 246 L865 246 L865 -96 L765 -96 L765 -47 L450 -47 L450 -96 L350 -96 ZM765 158 L450 158 L450 39 L765 39 L765 158 Z" /><glyph glyph-name="Identity.8539" unicode="&#x4fe9;" d="M208 804 L302 782 Q278 680 240 579 L240 -90 L147 -90 L147 382 Q100 304 89 289 L18 360 Q67 433 124 564 Q181 695 208 804 ZM937 671 L739 671 L739 557 L897 557 L897 22 Q897 -48 877 -68.5 Q857 -89 786 -95 L730 -100 L698 -3 L753 1 Q786 3 795.5 12 Q805 21 805 53 L805 135 L771 110 Q749 155 706 227 Q679 134 612 18 L532 64 Q586 151 612 217 L571 186 L535 252 Q510 148 451 45 L411 73 L411 -89 L322 -89 L322 557 L471 557 L471 671 L307 671 L307 763 L937 763 L937 671 ZM561 557 L652 557 Q652 575 652.5 614.5 Q653 654 653 671 L562 671 Q562 655 561.5 615.5 Q561 576 561 557 ZM411 466 L411 173 Q442 240 454.5 304.5 Q467 369 469 466 L411 466 ZM555 381 Q593 328 628 266 Q651 349 652 466 L559 466 Q559 417 555 381 ZM805 229 L805 466 L738 466 Q737 408 730 348 Q760 306 805 229 Z" /><glyph glyph-name="Identity.8543" unicode="&#x4fed;" d="M304 399 L252 471 L252 -95 L153 -95 L153 384 Q133 351 80 276 L17 364 Q78 436 139 563 Q200 690 235 810 L337 784 Q305 678 252 564 L252 487 Q459 626 556 816 L638 816 Q733 632 961 480 L902 397 Q859 427 805 470 L805 405 L390 405 L390 465 Q346 427 304 399 ZM598 712 Q538 598 432 501 L770 501 Q655 603 598 712 ZM670 135 L586 100 Q577 151 553.5 228 Q530 305 509 358 L597 388 Q637 283 670 135 ZM770 383 L863 347 Q818 203 744 26 L910 26 L910 -66 L287 -66 L287 26 L642 26 Q733 250 770 383 ZM500 105 L414 65 Q399 138 329 345 L415 376 Q470 223 500 105 Z" /><glyph glyph-name="Identity.8544" unicode="&#x4fee;" d="M741 499 Q834 454 956 425 L925 336 Q792 376 727 407 L765 339 Q625 245 449 183 L412 265 Q580 320 720 410 Q670 436 660 442 Q556 379 394 327 L374 373 L374 68 L293 68 L293 667 L374 663 L374 577 Q487 684 548 817 L632 783 Q625 767 609 737 L879 737 L879 658 Q824 566 741 499 ZM216 805 L304 783 Q270 656 228 558 L228 -100 L141 -100 L141 378 Q87 288 83 281 L14 350 Q70 437 129.5 567 Q189 697 216 805 ZM769 656 L560 656 Q558 654 557 652 Q556 650 555 648 Q593 595 661 547 Q726 593 769 656 ZM374 540 L374 418 Q503 459 580 498 Q537 533 502 579 Q465 534 412 488 L374 540 ZM798 306 L843 240 Q684 118 430 39 L395 116 Q622 186 798 306 ZM389 -107 L352 -31 Q668 48 878 203 L924 136 Q736 -17 389 -107 Z" /><glyph glyph-name="Identity.8545" unicode="&#x4fef;" d="M527 611 L614 585 Q592 511 560 438 L560 -91 L478 -91 L478 292 Q460 266 439 241 L410 279 Q404 164 384.5 85 Q365 6 323 -87 L242 -53 L242 -97 L153 -97 L153 394 Q109 319 81 282 L19 367 Q73 440 129 561.5 Q185 683 212 794 L311 772 Q284 672 242 572 L242 -27 Q290 67 305 152.5 Q320 238 320 390 L320 706 L591 706 Q579 745 565 785 L665 800 Q669 786 680 754 Q691 722 696 706 L925 706 L925 614 L412 614 L413 413 L413 355 Q490 468 527 611 ZM937 471 L937 384 L843 384 L843 30 Q843 -39 820 -63.5 Q797 -88 727 -94 L674 -98 L645 -5 L697 -1 Q737 1 747.5 11 Q758 21 758 58 L758 384 L581 384 L581 471 L758 471 L758 590 L843 586 L843 471 L937 471 ZM743 171 L672 123 Q658 160 628.5 222 Q599 284 580 315 L655 356 Q708 264 743 171 Z" /><glyph glyph-name="Identity.8547" unicode="&#x4ff1;" d="M216 793 L310 773 Q285 674 247 580 L247 -99 L153 -99 L153 389 Q118 328 88 287 L22 370 Q78 447 131.5 562.5 Q185 678 216 793 ZM942 205 L942 119 L703 119 Q818 56 924 -13 L879 -103 Q750 -13 651 42 L698 119 L507 119 L560 51 Q456 -35 314 -111 L268 -22 Q386 27 494 119 L277 119 L277 205 L372 205 L372 763 L845 763 L845 205 L942 205 ZM749 676 L465 676 L465 620 L749 620 L749 676 ZM749 482 L749 542 L465 542 L465 482 L749 482 ZM749 405 L465 405 L465 344 L749 344 L749 405 ZM465 266 L465 205 L749 205 L749 266 L465 266 Z" /><glyph glyph-name="Identity.8556" unicode="&#x4ffa;" d="M872 124 L957 96 Q956 67 949 25 Q939 -40 916.5 -61.5 Q894 -83 826 -89 Q740 -95 655 -89 Q592 -85 566.5 -61.5 Q541 -38 541 19 L541 63 L337 63 L337 375 Q310 357 280 334 L243 394 L243 -97 L153 -97 L153 402 Q115 341 78 292 L18 374 Q71 448 130.5 573.5 Q190 699 219 806 L313 782 Q283 672 243 579 L243 423 Q378 511 450 617 L301 617 L301 702 L498 702 Q522 754 537 813 L635 795 Q622 749 603 702 L903 702 L903 617 L725 617 Q802 496 951 422 L904 336 Q879 350 845 373 L845 63 L631 63 L631 36 Q631 10 642.5 1 Q654 -8 686 -10 Q749 -17 813 -10 Q839 -8 848.5 3 Q858 14 864 45 Q870 75 872 124 ZM621 617 L561 617 Q513 534 431 455 L541 455 L541 554 L631 550 L631 455 L746 455 Q667 534 621 617 ZM541 296 L541 376 L426 376 L426 296 L541 296 ZM631 376 L631 296 L754 296 L754 376 L631 376 ZM426 145 L541 145 L541 219 L426 219 L426 145 ZM631 145 L754 145 L754 219 L631 219 L631 145 Z" /><glyph glyph-name="Identity.8575" unicode="&#x500d;" d="M778 446 L941 446 L941 353 L309 353 L309 446 L455 446 Q430 597 429 607 L351 607 L351 700 L578 700 Q574 716 569 733 Q564 750 558 767.5 Q552 785 550 792 L644 805 Q662 758 678 700 L899 700 L899 607 L816 607 Q787 478 778 446 ZM236 801 L336 773 Q305 679 262 586 L262 -102 L163 -102 L163 396 Q130 339 94 287 L17 362 Q168 561 236 801 ZM725 607 L523 607 L552 446 L687 446 Q709 516 725 607 ZM376 -103 L376 268 L863 268 L863 -103 L762 -103 L762 -58 L477 -58 L477 -103 L376 -103 ZM762 181 L477 181 L477 29 L762 29 L762 181 Z" /><glyph glyph-name="Identity.8580" unicode="&#x5012;" d="M181 800 L277 778 Q248 668 216 586 L216 -101 L129 -101 L129 400 Q107 360 75 306 L12 382 Q60 461 108 576.5 Q156 692 181 800 ZM801 783 L890 779 L890 26 Q890 -44 866 -66.5 Q842 -89 762 -97 L708 -103 L679 -11 L732 -5 Q774 -1 787.5 9 Q801 19 801 52 L801 783 ZM555 394 Q547 392 524.5 391 Q502 390 489 389 L489 276 L603 276 L603 184 L489 184 L489 75 Q613 87 637 92 L641 1 Q632 0 451 -20.5 Q270 -41 245 -43 L237 52 Q266 52 401 66 L401 184 L269 184 L269 276 L401 276 L401 383 Q306 375 273 371 L250 455 Q251 456 256.5 461 Q262 466 267.5 471 Q273 476 275 479 Q305 519 364 644 L270 644 L270 738 L619 738 L619 644 L457 644 Q395 510 369 470 L515 480 Q485 543 463 577 L535 612 Q601 503 641 399 L572 353 L566 369 Q559 385 555 394 ZM734 673 L734 121 L651 121 L651 677 L734 673 Z" /><glyph glyph-name="Identity.8582" unicode="&#x5014;" d="M327 764 L902 764 L902 505 L427 505 L427 452 Q427 271 403.5 155 Q380 39 322 -87 L245 -51 L245 -97 L152 -97 L152 392 Q130 349 88 279 L12 355 Q154 560 212 802 L311 778 Q285 692 245 590 L245 -4 Q293 95 310 188 Q327 281 327 454 L327 764 ZM806 588 L806 678 L427 678 L427 588 L806 588 ZM815 27 L815 178 L896 174 L896 -99 L815 -99 L815 -58 L448 -58 L448 179 L529 175 L529 27 L626 27 L626 229 L468 229 L468 441 L546 437 L546 315 L626 315 L626 485 L710 481 L710 315 L799 315 L799 440 L876 436 L876 229 L710 229 L710 27 L815 27 Z" /><glyph glyph-name="Identity.8586" unicode="&#x5018;" d="M651 795 L651 535 L892 535 L892 28 Q892 -46 870.5 -67 Q849 -88 767 -94 L721 -97 L690 -2 L739 2 Q778 4 788 13 Q798 22 798 55 L798 438 L418 438 L418 -86 L326 -86 L326 535 L551 535 L551 799 L651 795 ZM207 797 L304 775 Q278 682 240 584 L240 -96 L146 -96 L146 395 Q117 345 77 286 L16 369 Q143 547 207 797 ZM513 622 L448 547 Q380 641 316 706 L386 773 Q447 712 513 622 ZM821 768 L894 707 Q841 630 760 544 L688 612 Q770 694 821 768 ZM732 365 L732 51 L478 51 L478 365 L732 365 ZM653 138 L653 275 L554 275 L554 138 L653 138 Z" /><glyph glyph-name="Identity.8587" unicode="&#x5019;" d="M211 806 L300 781 Q276 690 233 580 L233 -97 L146 -97 L146 395 Q124 353 82 281 L19 361 Q71 450 127.5 576.5 Q184 703 211 806 ZM929 587 L929 505 L404 505 L404 587 L726 587 L734 678 L457 678 L457 763 L834 763 L820 587 L929 587 ZM383 685 L383 52 L298 52 L298 689 L383 685 ZM915 164 L713 164 Q771 40 949 -15 L897 -98 Q728 -31 661 73 Q629 20 567.5 -20.5 Q506 -61 401 -104 L345 -23 Q558 55 596 164 L402 164 L402 247 L457 247 L390 291 Q451 376 494 497 L574 472 L556 422 L877 422 L877 339 L708 339 L705 247 L915 247 L915 164 ZM608 339 L519 339 Q496 291 466 247 L608 247 L608 339 Z" /><glyph glyph-name="Identity.8588" unicode="&#x501a;" d="M221 803 L320 781 Q287 667 253 591 L253 -98 L159 -98 L159 403 Q125 345 81 281 L18 360 Q73 433 132 561.5 Q191 690 221 803 ZM940 443 L940 356 L846 356 L846 28 Q846 -43 821.5 -66 Q797 -89 720 -95 L670 -99 L640 -8 L688 -4 Q730 0 741 10 Q752 20 752 54 L752 356 L283 356 L283 443 L361 443 L330 505 Q423 534 468.5 560.5 Q514 587 531 628 L333 628 L333 716 L549 716 Q551 731 554 801 L652 797 L649 716 L888 716 L888 628 L637 628 Q637 626 636 625 Q760 568 857 508 L828 443 L940 443 ZM599 552 Q552 494 425 443 L791 443 Q757 464 599 552 ZM657 285 L657 15 L348 15 L348 285 L657 285 ZM578 92 L578 208 L428 208 L428 92 L578 92 Z" /><glyph glyph-name="Identity.8593" unicode="&#x501f;" d="M220 803 L318 781 Q291 686 252 588 L252 -99 L155 -99 L155 391 Q126 340 91 290 L20 364 Q76 446 135 572 Q194 698 220 803 ZM774 499 L939 499 L939 410 L283 410 L283 499 L436 499 L436 603 L325 603 L325 691 L436 691 L436 797 L532 793 L532 691 L676 691 L676 797 L774 793 L774 691 L900 691 L900 603 L774 603 L774 499 ZM532 603 L532 499 L676 499 L676 603 L532 603 ZM362 -98 L362 346 L848 346 L848 -96 L748 -96 L748 -57 L464 -57 L464 -98 L362 -98 ZM748 261 L464 261 L464 185 L748 185 L748 261 ZM464 26 L748 26 L748 102 L464 102 L464 26 Z" /><glyph glyph-name="Identity.8595" unicode="&#x5021;" d="M233 803 L332 777 Q298 670 257 581 L257 -99 L161 -99 L161 401 Q134 355 84 280 L19 366 Q79 440 141.5 566.5 Q204 693 233 803 ZM853 757 L853 394 L381 394 L381 757 L853 757 ZM756 675 L475 675 L475 616 L756 616 L756 675 ZM475 476 L756 476 L756 539 L475 539 L475 476 ZM345 329 L893 329 L893 -94 L798 -94 L798 -56 L440 -56 L440 -95 L345 -95 L345 329 ZM798 247 L440 247 L440 179 L798 179 L798 247 ZM440 24 L798 24 L798 99 L440 99 L440 24 Z" /><glyph glyph-name="Identity.8600" unicode="&#x5026;" d="M589 154 L646 158 Q671 160 678.5 166.5 Q686 173 688 196 Q688 200 689.5 212 Q691 224 691 228 L487 228 L487 61 Q487 26 497.5 15.5 Q508 5 545 3 Q638 -4 713 3 Q755 7 766.5 16 Q778 25 784 54 Q792 91 793 125 L886 93 Q882 50 873 16 Q859 -42 831.5 -62 Q804 -82 736 -86 Q642 -93 527 -86 Q456 -82 426.5 -56.5 Q397 -31 397 33 L397 207 Q356 171 285 117 L248 174 L248 -100 L153 -100 L153 405 Q113 341 80 293 L17 377 Q74 453 133 577 Q192 701 219 807 L312 777 Q282 673 248 591 L248 210 Q376 300 442 391 L286 391 L286 475 L492 475 Q509 511 518 539 L316 539 L316 622 L425 622 Q386 680 343 729 L416 782 Q462 730 511 655 L474 622 L538 622 Q560 742 569 811 L660 800 Q652 718 632 622 L723 622 L687 647 Q734 694 789 781 L861 734 Q823 672 780 622 L898 622 L898 539 L614 539 Q599 491 593 475 L925 475 L925 391 L759 391 Q829 307 961 240 L915 149 Q838 198 779 249 Q778 235 777 208 Q776 181 774 170 Q770 116 749 97 Q728 78 671 74 L615 70 L589 154 ZM500 314 L712 314 Q677 352 654 391 L553 391 Q522 342 500 314 Z" /><glyph glyph-name="Identity.8620" unicode="&#x503a;" d="M645 470 L941 470 L941 397 L282 397 L282 470 L551 470 L551 522 L337 522 L337 593 L551 593 L551 645 L327 645 L327 716 L551 716 L551 805 L645 801 L645 716 L898 716 L898 645 L645 645 L645 593 L869 593 L869 522 L645 522 L645 470 ZM225 796 L321 778 Q291 671 252 581 L252 -101 L155 -101 L155 389 Q135 353 91 291 L22 365 Q82 448 139 567 Q196 686 225 796 ZM842 68 L752 68 L752 263 L449 263 L449 66 L359 66 L359 342 L842 342 L842 68 ZM646 233 L643 198 Q637 126 620 80.5 Q603 35 562 -1.5 Q521 -38 465.5 -63 Q410 -88 310 -120 L272 -27 Q364 -3 419.5 19.5 Q475 42 503.5 71 Q532 100 541.5 126.5 Q551 153 556 199 L560 237 L646 233 ZM622 27 L653 107 Q767 58 911 -22 L873 -113 Q741 -31 622 27 Z" /><glyph glyph-name="Identity.8622" unicode="&#x503c;" d="M204 809 L306 787 Q277 681 242 591 L242 -93 L147 -93 L147 393 Q114 336 80 284 L18 371 Q150 575 204 809 ZM857 20 L941 20 L941 -63 L272 -63 L272 20 L353 20 L353 574 L550 574 L550 644 L320 644 L320 731 L550 731 L550 805 L650 801 L650 731 L905 731 L905 644 L650 644 L650 574 L857 574 L857 20 ZM758 490 L452 490 L452 432 L758 432 L758 490 ZM758 297 L758 356 L452 356 L452 297 L758 297 ZM758 221 L452 221 L452 160 L758 160 L758 221 ZM452 85 L452 20 L758 20 L758 85 L452 85 Z" /><glyph glyph-name="Identity.8624" unicode="&#x503e;" d="M195 807 L287 785 Q265 703 230 610 L230 -88 L141 -88 L141 408 Q121 366 75 281 L15 356 Q67 443 122.5 577.5 Q178 712 195 807 ZM478 227 L505 124 Q503 122 438 72 Q373 22 334 -8 L281 72 Q303 86 310 101 Q317 116 317 142 L317 785 L404 781 L404 561 L493 561 L493 467 L404 467 L404 166 L478 227 ZM515 579 L643 579 Q654 623 663 679 L500 679 L500 763 L930 763 L930 679 L754 679 Q749 646 734 579 L888 579 L888 121 L806 121 L806 499 L594 499 L594 122 L515 122 L515 579 ZM739 452 L739 285 Q739 140 690 57.5 Q641 -25 498 -109 L444 -25 Q503 5 541.5 32.5 Q580 60 604.5 87 Q629 114 641 149 Q653 184 657 218 Q661 252 661 305 L661 456 L739 452 ZM714 70 L764 138 Q852 63 939 -24 L883 -102 Q782 12 714 70 Z" /><glyph glyph-name="Identity.8633" unicode="&#x5047;" d="M208 800 L304 783 Q274 675 239 588 L239 -100 L147 -100 L147 402 Q125 364 80 296 L16 373 Q74 459 126.5 573.5 Q179 688 208 800 ZM585 95 L399 95 L399 -94 L310 -94 L310 768 L583 768 L583 470 L399 470 L399 375 L569 375 L569 286 L399 286 L399 185 L585 185 L585 95 ZM879 767 L879 472 L617 472 L617 565 L791 565 L791 676 L618 676 L618 767 L879 767 ZM496 676 L399 676 L399 560 L496 560 L496 676 ZM955 -6 L905 -103 Q790 -40 725 25 Q649 -45 532 -107 L478 -22 Q591 34 665 97 Q617 168 587 276 L670 302 Q689 216 727 160 Q779 225 803 307 L587 307 L587 395 L892 395 L892 305 Q858 185 787 93 Q845 44 955 -6 Z" /><glyph glyph-name="Identity.8640" unicode="&#x504e;" d="M209 801 L307 777 Q280 683 236 579 L236 -103 L144 -103 L144 403 Q110 347 63 284 L4 372 Q139 567 209 801 ZM859 763 L859 383 L341 383 L342 763 L859 763 ZM550 686 L438 686 L438 609 L550 609 L550 686 ZM761 609 L761 686 L634 686 L634 609 L761 609 ZM437 536 L437 458 L550 458 L550 536 L437 536 ZM634 458 L761 458 L761 536 L634 536 L634 458 ZM729 83 Q805 29 941 -9 L894 -91 Q732 -35 645 37.5 Q558 110 506 243 L448 243 L448 16 L601 75 L605 -22 Q530 -40 414 -88 Q404 -92 386 -102.5 Q368 -113 361 -116 L320 -29 Q342 -18 349.5 -6.5 Q357 5 357 24 L357 243 L257 243 L257 328 L918 328 L918 243 L601 243 Q630 182 665 141 Q744 188 818 243 L870 173 Q828 144 729 83 Z" /><glyph glyph-name="Identity.8641" unicode="&#x504f;" d="M409 397 L896 397 L896 4 Q896 -40 879.5 -61 Q863 -82 826 -87 L775 -93 L749 -12 L782 -8 Q808 -5 808 26 L808 122 L740 122 L740 -45 L662 -45 L662 122 L600 122 L600 -44 L519 -44 L519 122 L466 122 L466 -88 L382 -88 L382 202 Q349 57 285 -48 L236 -7 L236 -95 L146 -95 L146 392 Q117 345 85 296 L18 368 Q78 458 132 577 Q186 696 209 800 L302 772 Q270 656 236 571 L236 61 Q283 145 302 243 Q321 341 321 502 L321 717 L566 717 Q565 721 541 793 L635 807 Q649 772 666 717 L881 717 L881 467 L411 467 Q411 443 409 397 ZM786 636 L411 636 L411 550 L786 550 L786 636 ZM466 200 L519 200 L519 316 L466 316 L466 200 ZM600 200 L662 200 L662 316 L600 316 L600 200 ZM740 200 L808 200 L808 316 L740 316 L740 200 Z" /><glyph glyph-name="Identity.8652" unicode="&#x505a;" d="M785 172 Q850 69 961 -25 L900 -110 Q792 -10 732 83 Q669 -10 554 -113 L491 -31 Q502 -23 508 -17 L284 -17 L284 385 L377 385 L377 544 L261 544 L261 635 L377 635 L377 802 L468 798 L468 635 L577 635 L577 544 L468 544 L468 385 L552 385 L552 21 Q632 92 681 171 Q634 269 611 391 Q604 378 588 354 L526 429 Q570 506 608.5 612.5 Q647 719 662 811 L751 795 Q739 727 719 650 L935 650 L935 556 L875 556 Q852 311 785 172 ZM184 806 L277 781 Q253 683 224 607 L224 -98 L134 -98 L134 409 Q104 351 72 302 L8 381 Q147 632 184 806 ZM670 509 Q685 375 732 270 Q774 379 791 556 L688 556 Q682 536 670 509 ZM469 73 L469 293 L367 293 L367 73 L469 73 Z" /><glyph glyph-name="Identity.8654" unicode="&#x505c;" d="M220 807 L316 787 Q274 649 248 583 L248 -92 L157 -92 L157 396 Q122 339 84 287 L19 371 Q77 458 133 575.5 Q189 693 220 807 ZM667 718 L920 718 L920 641 L319 641 L319 718 L564 718 Q564 720 539 790 L637 804 L667 718 ZM363 592 L848 592 L848 402 L363 402 L363 592 ZM754 469 L754 525 L456 525 L456 469 L754 469 ZM293 179 L293 360 L915 360 L915 178 L821 178 L821 284 L385 284 L385 179 L293 179 ZM397 137 L397 218 L810 218 L810 137 L666 137 L666 14 Q666 -47 639.5 -67.5 Q613 -88 533 -94 L470 -99 L441 -7 L512 -3 Q547 -1 557 6.5 Q567 14 567 40 L567 137 L397 137 Z" /><glyph glyph-name="Identity.8663" unicode="&#x5065;" d="M618 586 L618 648 L503 648 L503 723 L618 723 L618 802 L703 798 L703 723 L873 723 L873 586 L926 586 L926 508 L873 508 L873 375 L703 375 L703 309 L884 309 L884 236 L703 236 L703 181 L910 181 L910 108 L703 108 L703 28 L618 28 L618 108 L461 108 L461 181 L618 181 L618 236 L498 236 L498 309 L618 309 L618 375 L503 375 L503 448 L618 448 L618 508 L474 508 L474 586 L618 586 ZM633 10 Q761 5 940 12 L924 -66 Q750 -73 625 -68 Q538 -65 476 -45 Q414 -25 366 23 Q333 -33 277 -106 L219 -58 L219 -94 L133 -94 L133 398 Q109 351 74 290 L10 368 Q60 453 108 572 Q156 691 179 797 L269 779 Q250 691 219 602 L219 -27 Q271 36 308 99 Q264 176 232 307 L311 332 Q333 240 354 197 Q381 273 389 383 L246 383 L246 465 L382 656 L265 656 L265 738 L483 738 L483 655 L350 465 L473 465 L473 379 Q453 201 409 106 Q487 16 633 10 ZM789 648 L703 648 L703 586 L789 586 L789 648 ZM789 448 L789 508 L703 508 L703 448 L789 448 Z" /><glyph glyph-name="Identity.8680" unicode="&#x5076;" d="M218 803 L316 780 Q284 673 242 576 L242 -98 L149 -98 L149 395 Q112 332 68 275 L11 365 Q160 579 218 803 ZM638 316 L894 316 L894 8 Q894 -45 869 -67 Q844 -89 775 -95 L720 -100 L693 -11 L750 -5 Q784 -1 792 6.5 Q800 14 800 40 L800 231 L638 231 L638 135 Q648 136 666 137 Q684 138 692 140 Q676 183 673 189 L739 211 Q771 141 797 40 L733 9 Q722 50 718 61 Q544 48 437 35 L428 120 L547 128 L547 231 L406 231 L406 -86 L315 -86 L315 316 L547 316 L547 379 L341 379 L341 765 L857 765 L857 379 L638 379 L638 316 ZM547 685 L435 685 L435 613 L547 613 L547 685 ZM763 613 L763 685 L638 685 L638 613 L763 613 ZM435 461 L547 461 L547 534 L435 534 L435 461 ZM638 461 L763 461 L763 534 L638 534 L638 461 Z" /><glyph glyph-name="Identity.8681" unicode="&#x5077;" d="M555 810 L649 810 Q751 660 956 564 L912 473 Q819 522 766 561 L766 508 L435 508 L435 549 Q376 503 297 458 L248 549 Q454 659 555 810 ZM222 802 L321 782 Q286 665 239 563 L239 -100 L149 -100 L149 397 Q125 357 84 295 L21 383 Q79 459 136 576 Q193 693 222 802 ZM480 586 L734 586 Q649 654 603 727 Q554 650 480 586 ZM791 37 L791 466 L874 462 L874 12 Q874 -50 851.5 -67.5 Q829 -85 758 -94 L706 -100 L677 -16 L738 -10 Q771 -7 781 1.5 Q791 10 791 37 ZM318 -91 L318 457 L605 457 L605 -9 Q605 -57 584.5 -74 Q564 -91 510 -95 L477 -98 L448 -8 L478 -5 Q502 -3 508 2 Q514 7 514 24 L514 95 L401 95 L401 -91 L318 -91 ZM736 429 L736 74 L655 74 L655 433 L736 429 ZM514 383 L401 383 L401 312 L514 312 L514 383 ZM401 169 L514 169 L514 237 L401 237 L401 169 Z" /><glyph glyph-name="Identity.8689" unicode="&#x507f;" d="M790 610 L922 610 L922 397 L825 397 L825 521 L392 521 L392 398 L299 398 L299 610 L434 610 Q402 671 354 741 L425 783 Q468 726 509 649 L455 610 L560 610 L560 802 L655 798 L655 610 L761 610 L710 643 Q765 712 795 779 L867 737 Q836 673 790 610 ZM223 799 L317 776 Q288 677 242 570 L242 -97 L151 -97 L151 388 Q112 322 74 269 L16 354 Q96 492 141.5 587.5 Q187 683 223 799 ZM408 434 L811 434 L811 347 L408 347 L408 434 ZM296 177 L296 265 L922 265 L922 177 L592 177 Q521 66 472 25 L742 36 Q697 99 671 130 L744 174 Q777 140 826 74 Q875 8 910 -46 L836 -104 L798 -45 Q784 -46 712.5 -49.5 Q641 -53 582 -56 Q523 -59 452.5 -63.5 Q382 -68 344 -72 L323 11 Q346 22 363 39 Q420 96 474 177 L296 177 Z" /><glyph glyph-name="Identity.8690" unicode="&#x5080;" d="M885 101 L951 79 Q946 32 942 13 Q932 -41 909.5 -60.5 Q887 -80 824 -84 Q749 -88 674 -84 Q608 -80 581.5 -58 Q555 -36 555 23 L555 126 Q478 4 292 -109 L244 -31 L244 -95 L150 -95 L150 402 Q106 325 73 277 L11 360 Q69 448 127.5 571 Q186 694 216 803 L308 778 Q281 689 244 596 L244 -16 Q359 48 425.5 119 Q492 190 521 282 L329 282 L329 727 L517 727 Q535 784 538 803 L645 791 L626 727 L859 727 L859 282 L723 282 L790 254 Q779 228 732 131 L794 136 L766 193 L822 226 Q863 153 885 101 ZM542 644 L418 644 L418 543 L542 543 L542 644 ZM767 543 L767 644 L634 644 L634 543 L767 543 ZM418 364 L538 364 Q542 396 542 440 L542 460 L418 460 L418 364 ZM631 364 L767 364 L767 460 L634 460 L634 440 Q634 400 631 364 ZM717 282 L619 282 Q612 255 609 246 L646 244 L646 137 Q647 138 649 139.5 Q651 141 652 143 Q664 161 684.5 204.5 Q705 248 717 282 ZM806 2 Q839 4 850 14 Q861 24 865 49 L868 67 L832 43 Q825 64 820 75 Q700 65 646 57 L646 46 Q646 20 656 12 Q666 4 698 2 Q750 -2 806 2 Z" /><glyph glyph-name="Identity.8695" unicode="&#x5085;" d="M941 189 L941 110 L810 110 L810 18 Q810 -43 783 -66.5 Q756 -90 683 -96 L623 -102 L594 -13 L652 -7 Q691 -3 703.5 7 Q716 17 716 46 L716 110 L462 110 Q523 66 559 32 L508 -46 Q456 5 373 64 L407 110 L277 110 L277 189 L716 189 L716 237 L781 237 L781 267 L646 267 L646 224 L559 224 L559 267 L426 267 L426 217 L334 217 L334 582 L559 582 L559 634 L316 634 L316 712 L559 712 L559 805 L646 801 L646 712 L758 712 Q696 764 691 767 L742 828 Q778 802 845 742 L824 712 L919 712 L919 634 L646 634 L646 582 L874 582 L874 217 L810 217 L810 189 L941 189 ZM225 803 L317 777 Q290 681 254 594 L254 -101 L158 -101 L158 394 Q115 320 78 269 L11 345 Q165 569 225 803 ZM559 510 L426 510 L426 457 L559 457 L559 510 ZM781 510 L646 510 L646 457 L781 457 L781 510 ZM426 334 L559 334 L559 389 L426 389 L426 334 ZM646 334 L781 334 L781 389 L646 389 L646 334 Z" /><glyph glyph-name="Identity.8703" unicode="&#x508d;" d="M286 530 L415 530 Q412 551 405.5 593 Q399 635 398 638 L292 638 L292 720 L546 720 Q538 752 523 794 L618 808 L647 720 L895 720 L895 638 L787 638 L761 530 L896 530 L896 375 L801 375 L801 448 L380 448 L380 375 L286 375 L286 530 ZM194 799 L288 781 Q255 664 225 590 L225 -96 L136 -96 L136 404 Q101 340 75 300 L7 372 Q60 453 113 570.5 Q166 688 194 799 ZM511 530 L671 530 Q683 576 697 638 L492 638 Q495 622 501 584.5 Q507 547 511 530 ZM923 261 L514 261 Q513 232 508 200 L830 200 Q830 197 815 21 Q813 -36 783.5 -61 Q754 -86 682 -92 L610 -98 L582 -9 L659 -3 Q695 0 708.5 9.5 Q722 19 725 45 Q727 55 728 81 Q729 107 730 117 L496 117 Q478 42 429.5 -13 Q381 -68 285 -122 L230 -38 Q326 15 365 61.5 Q404 108 415 198 Q420 236 421 261 L279 261 L279 345 L560 345 Q551 372 535 415 L628 429 L659 345 L923 345 L923 261 Z" /><glyph glyph-name="Identity.8730" unicode="&#x50a8;" d="M214 806 L308 784 Q277 664 241 574 L241 -95 L153 -95 L153 386 Q118 325 83 274 L17 358 Q78 449 132.5 572 Q187 695 214 806 ZM940 427 L765 427 Q725 380 692 347 L873 347 L873 -91 L791 -91 L791 -50 L616 -50 L616 -91 L535 -91 L535 217 Q505 195 472 173 L431 257 Q556 333 647 427 L459 427 L459 511 L604 511 L604 615 L498 615 L498 699 L604 699 L604 805 L687 801 L687 699 L792 699 L792 628 Q822 687 845 748 L928 715 Q876 589 825 511 L940 511 L940 427 ZM476 621 L402 565 Q381 609 305 741 L376 786 Q434 702 476 621 ZM687 511 L718 511 Q758 564 785 615 L687 615 L687 511 ZM424 108 L492 165 L517 67 Q486 46 365 -62 L307 14 Q325 27 330 40.5 Q335 54 335 76 L335 421 L260 421 L260 515 L424 515 L424 108 ZM791 190 L791 267 L616 267 L616 190 L791 190 ZM616 28 L791 28 L791 112 L616 112 L616 28 Z" /><glyph glyph-name="Identity.8734" unicode="&#x50ac;" d="M896 760 L896 567 L340 567 L340 764 L432 760 L432 655 L573 655 L573 803 L665 799 L665 655 L804 655 L804 764 L896 760 ZM938 26 L938 -53 L460 -53 L460 -100 L366 -100 L366 284 Q337 246 294 196 L254 250 L254 -100 L158 -100 L158 387 Q118 316 72 252 L6 334 Q153 548 219 801 L319 776 Q292 674 254 584 L254 294 Q367 416 416 561 L501 537 L474 471 L622 471 Q610 509 600 539 L691 555 Q700 535 720 471 L911 471 L911 389 L705 389 L705 322 L898 322 L898 245 L705 245 L705 179 L898 179 L898 102 L705 102 L705 26 L938 26 ZM613 322 L613 389 L460 389 L460 322 L613 322 ZM613 179 L613 245 L460 245 L460 179 L613 179 ZM460 102 L460 26 L613 26 L613 102 L460 102 Z" /><glyph glyph-name="Identity.8740" unicode="&#x50b2;" d="M961 -30 L896 -105 Q806 -15 746 83 Q690 -9 585 -113 L531 -39 Q511 -49 466 -54 L421 -58 L393 22 L438 26 Q470 28 480.5 37.5 Q491 47 495 75 Q505 145 505 188 L412 188 Q390 35 286 -94 L235 -44 L235 -99 L147 -99 L147 402 Q103 325 78 289 L7 359 Q150 578 206 801 L297 778 Q276 695 235 590 L235 0 Q284 62 306 118 Q328 174 332 254 L335 332 L253 332 L253 414 L405 414 L405 482 L288 482 L288 562 L405 562 L405 626 L280 626 L280 707 L405 707 L405 806 L490 802 L490 707 L614 707 L614 626 L490 626 L490 562 L582 562 L582 482 L490 482 L490 414 L582 414 L562 431 Q658 590 690 810 L775 793 Q765 739 741 650 L933 650 L933 557 L886 557 Q863 318 794 170 Q855 65 961 -30 ZM807 557 L711 557 Q707 545 697 521 Q707 377 747 271 Q788 382 807 557 ZM560 -7 Q649 77 700 171 Q653 275 635 392 Q631 387 625 377 L595 403 L595 332 L423 332 L420 272 L589 272 L575 59 Q570 14 560 -7 Z" /><glyph glyph-name="Identity.8749" unicode="&#x50bb;" d="M948 -17 L916 -106 Q729 -64 613 -5 Q502 -59 295 -112 L260 -29 Q407 -1 521 50 Q477 81 438 123 Q381 72 316 28 L269 108 Q335 150 405.5 214.5 Q476 279 510 329 L577 284 Q574 278 564 264 L847 264 Q738 322 672 346 L699 390 L498 390 L527 347 Q441 287 293 211 L250 286 Q338 325 444 390 L337 390 L337 736 L512 736 Q529 777 543 819 L639 797 Q629 768 614 736 L880 736 L880 390 L769 390 Q873 344 933 304 L913 226 L850 263 L850 192 Q787 104 706 49 Q813 1 948 -17 ZM228 799 L321 777 Q294 680 247 568 L247 -100 L154 -100 L154 388 Q129 344 90 290 L20 362 Q80 449 140 571 Q200 693 228 799 ZM426 655 L426 470 L466 470 L442 516 Q489 534 546 562 Q474 597 456 604 L486 655 L426 655 ZM625 600 Q678 626 726 655 L511 655 Q589 618 625 600 ZM793 470 L793 655 L735 655 L766 606 Q755 599 694 565 Q741 539 768 522 L748 470 L793 470 ZM505 470 L719 470 Q701 481 619 525 Q567 498 505 470 ZM723 185 L507 185 Q552 135 613 97 Q682 138 723 185 Z" /><glyph glyph-name="Identity.8769" unicode="&#x50cf;" d="M773 244 Q802 173 845.5 120.5 Q889 68 955 14 L896 -56 Q763 51 709 207 L676 188 Q690 137 690 56 Q690 -26 661.5 -54 Q633 -82 552 -91 L499 -96 L471 -13 L529 -8 Q573 -4 587.5 12.5 Q602 29 602 82 Q602 102 601 113 Q489 8 285 -80 L246 1 Q465 73 587 191 Q586 196 584 200.5 Q582 205 579.5 211 Q577 217 576 221 Q470 138 292 60 L259 136 Q443 205 544 280 Q537 294 529 303 Q464 258 296 203 L264 280 Q450 334 508 386 L343 386 L343 526 L305 499 L262 583 Q401 674 489 819 L577 787 Q563 761 552 745 L797 745 L797 671 L731 602 L880 602 L880 386 L611 386 Q599 367 591 358 Q628 307 647 267 Q761 330 835 386 L882 311 Q847 287 773 244 ZM215 804 L311 780 Q275 657 246 588 L246 -97 L154 -97 L154 399 Q118 336 73 273 L6 349 Q153 568 215 804 ZM688 669 L498 669 Q471 637 435 602 L623 602 L688 669 ZM431 533 L431 456 L559 456 Q572 489 577 533 L431 533 ZM794 456 L794 533 L654 533 Q649 486 640 456 L794 456 Z" /><glyph glyph-name="Identity.8780" unicode="&#x50da;" d="M837 145 L643 145 L643 12 Q643 -51 624 -69.5 Q605 -88 537 -94 L493 -98 L465 -7 L507 -4 Q533 -2 541 6.5 Q549 15 549 43 L549 145 L375 145 L375 365 Q332 337 281 312 L243 384 L243 -10 Q349 61 419 144 L483 76 Q423 6 302 -91 L243 -16 L243 -97 L156 -97 L156 398 Q121 338 87 289 L20 364 Q78 451 136 571 Q194 691 224 799 L317 777 Q285 661 243 567 L243 398 Q341 452 388 489 Q336 545 301 574 L359 635 Q382 619 449 548 Q483 587 509 635 L309 635 L309 720 L541 720 Q552 757 560 807 L658 803 Q650 757 640 720 L919 720 L919 635 L690 635 Q717 583 756 544 Q799 578 848 630 L910 567 Q884 539 821 488 Q876 448 952 413 L909 324 Q872 342 837 363 L837 145 ZM507 472 L706 472 Q647 537 605 621 Q569 538 507 472 ZM747 346 L747 397 L459 397 L459 346 L747 346 ZM459 276 L459 220 L747 220 L747 276 L459 276 ZM698 70 L752 141 Q868 66 942 -4 L894 -87 Q812 -8 698 70 Z" /><glyph glyph-name="Identity.8793" unicode="&#x50e7;" d="M760 698 L901 698 L901 356 L313 356 L313 698 L449 698 Q423 737 391 774 L470 826 Q513 783 548 722 L520 698 L644 698 Q700 773 724 820 L810 774 Q795 748 760 698 ZM212 799 L305 777 Q270 658 245 598 L245 -98 L152 -98 L152 404 Q133 371 82 291 L18 366 Q71 445 127 567.5 Q183 690 212 799 ZM399 614 L399 438 L487 438 Q444 506 404 559 L465 608 Q513 549 550 493 L489 438 L561 438 L561 614 L399 614 ZM814 438 L814 614 L644 614 L644 438 L814 438 ZM734 609 L800 568 Q761 494 714 438 L649 483 Q683 521 734 609 ZM352 -100 L352 302 L853 302 L853 -100 L760 -100 L760 -62 L445 -62 L445 -100 L352 -100 ZM760 222 L445 222 L445 160 L760 160 L760 222 ZM445 17 L760 17 L760 83 L445 83 L445 17 Z" /><glyph glyph-name="Identity.8807" unicode="&#x50f5;" d="M201 806 L299 784 Q270 670 233 575 L233 -96 L141 -96 L141 378 Q114 329 77 273 L16 370 Q66 446 121 572.5 Q176 699 201 806 ZM908 778 L908 704 L310 704 L310 778 L908 778 ZM868 433 L331 433 L331 664 L868 664 L868 433 ZM551 612 L425 612 L425 566 L551 566 L551 612 ZM777 566 L777 612 L638 612 L638 566 L777 566 ZM425 517 L425 486 L551 486 L551 517 L425 517 ZM638 485 L777 485 L777 517 L638 517 L638 485 ZM929 400 L929 336 L267 336 L267 400 L929 400 ZM875 47 L326 47 L326 292 L875 292 L875 47 ZM551 236 L421 236 L421 196 L551 196 L551 236 ZM781 196 L781 236 L639 236 L639 196 L781 196 ZM421 145 L421 104 L551 104 L551 145 L421 145 ZM639 104 L781 104 L781 145 L639 145 L639 104 ZM268 -3 L941 -3 L941 -72 L268 -72 L268 -3 Z" /><glyph glyph-name="Identity.8813" unicode="&#x50fb;" d="M308 509 L308 758 L575 758 L575 434 L392 434 Q390 380 383 331 L575 331 L575 -53 L340 -53 L340 165 Q311 92 269 15 L226 54 L226 -93 L139 -93 L139 391 Q112 345 73 287 L14 371 Q65 444 121 572 Q177 700 204 809 L298 791 Q271 676 226 566 L226 129 Q272 214 290 292.5 Q308 371 308 509 ZM930 323 L796 323 L796 208 L921 208 L921 120 L796 120 L796 -100 L709 -100 L709 120 L597 120 L597 208 L709 208 L709 323 L586 323 L586 414 L655 414 Q652 448 642 527.5 Q632 607 631 618 L598 618 L598 707 L722 707 Q704 769 696 793 L777 805 Q786 780 808 707 L917 707 L917 618 L882 618 Q873 535 852 414 L930 414 L930 323 ZM490 668 L392 668 L392 524 L490 524 L490 668 ZM803 618 L709 618 Q723 474 732 414 L774 414 Q780 449 790.5 527 Q801 605 803 618 ZM419 243 L419 38 L496 38 L496 243 L419 243 Z" /><glyph glyph-name="Identity.8881" unicode="&#x513f;" d="M363 785 L363 448 Q363 290 342 196 Q321 102 271.5 32.5 Q222 -37 120 -118 L39 -33 Q136 37 181.5 96.5 Q227 156 244.5 233.5 Q262 311 262 448 L262 789 L363 785 ZM835 208 L931 180 Q931 126 918 53 Q905 -17 874 -46.5 Q843 -76 766 -78 Q727 -80 689 -78 Q607 -76 573.5 -45 Q540 -14 540 70 L540 788 L642 784 L642 90 Q642 52 655.5 40 Q669 28 705 26 Q730 25 755 26 Q791 28 803.5 42 Q816 56 823 90 Q830 124 835 208 Z" /><glyph glyph-name="Identity.8883" unicode="&#x5141;" d="M836 196 L938 162 Q930 56 928 43 Q918 -26 886.5 -53 Q855 -80 779 -82 Q724 -83 670 -82 Q596 -80 564 -48.5 Q532 -17 532 62 L532 394 Q441 392 396 389 Q396 376 395.5 356 Q395 336 395 330 Q391 215 364 140.5 Q337 66 282 9 Q227 -48 119 -121 L39 -32 Q181 47 230.5 119.5 Q280 192 288 330 Q290 360 290 384 Q178 378 110 373 L77 479 Q118 491 152 519 Q210 564 286 654 Q362 744 425 835 L521 777 Q365 568 262 483 L704 498 Q614 593 571 634 L639 703 Q779 569 898 432 L832 353 Q825 361 810.5 378 Q796 395 789 403 L637 398 L637 86 Q637 48 650.5 36 Q664 24 701 23 Q730 21 757 23 Q797 25 811 38 Q825 51 829 88 Q835 132 836 196 Z" /><glyph glyph-name="Identity.8885" unicode="&#x5143;" d="M835 754 L835 652 L150 652 L150 754 L835 754 ZM836 198 L936 164 Q927 57 926 48 Q916 -20 885 -46.5 Q854 -73 779 -77 Q732 -81 672 -76 Q599 -72 567.5 -41.5 Q536 -11 536 67 L536 394 L393 394 Q393 323 392 303 Q388 167 328.5 75.5 Q269 -16 118 -118 L47 -28 Q183 48 231 119 Q279 190 285 303 Q287 343 287 394 L74 394 L74 494 L913 494 L913 394 L639 394 L639 92 Q639 55 653 41.5 Q667 28 703 26 Q731 25 761 26 Q798 28 810 41.5 Q822 55 828 94 Q834 137 836 198 Z" /><glyph glyph-name="Identity.8886" unicode="&#x5144;" d="M843 167 L938 134 Q933 82 925 31 Q915 -33 886.5 -57 Q858 -81 782 -85 Q722 -88 663 -85 Q594 -81 564.5 -53.5 Q535 -26 535 43 L535 329 L405 329 L403 307 Q395 191 363 115.5 Q331 40 268 -15.5 Q205 -71 93 -124 L38 -29 Q187 38 240.5 105.5 Q294 173 300 308 Q300 310 300.5 317.5 Q301 325 301 329 L144 329 L144 763 L829 763 L829 329 L634 329 L634 75 Q634 40 646.5 30 Q659 20 698 18 Q732 15 766 18 Q807 22 818 31.5 Q829 41 835 74 Q838 100 843 167 ZM244 667 L244 424 L730 424 L730 667 L244 667 Z" /><glyph glyph-name="Identity.8887" unicode="&#x5145;" d="M837 159 L933 131 Q933 82 927 36 Q918 -28 886.5 -55 Q855 -82 774 -86 Q716 -89 658 -86 Q586 -82 557.5 -56.5 Q529 -31 529 41 L529 314 Q490 311 409 309 Q407 283 407 273 Q399 125 330 42 Q261 -41 92 -124 L33 -29 Q176 34 233.5 98 Q291 162 303 276 Q305 292 305 304 L129 293 L105 392 Q135 396 160 416 Q237 480 333 595 L69 595 L69 696 L447 696 Q443 709 437 730 Q431 751 426.5 766 Q422 781 418 791 L521 806 Q547 725 555 696 L901 696 L901 595 L468 595 Q373 479 284 402 L683 416 Q665 436 645 457.5 Q625 479 605.5 500 Q586 521 578 529 L655 584 Q793 442 874 340 L808 267 L764 323 L631 318 L631 64 Q631 34 644 24.5 Q657 15 695 12 Q729 9 763 12 Q803 16 813.5 24 Q824 32 830 62 Q837 109 837 159 Z" /><glyph glyph-name="Identity.8888" unicode="&#x5146;" d="M850 156 L945 121 Q943 77 935 27 Q925 -35 897.5 -56.5 Q870 -78 794 -84 Q732 -88 667 -84 Q592 -80 561.5 -53 Q531 -26 531 44 L531 800 L630 796 L630 499 Q714 575 803 701 L883 634 Q805 534 697 426 L630 488 L630 408 L646 431 Q768 360 876 268 L829 169 Q767 225 630 320 L630 79 Q630 44 642.5 33 Q655 22 692 19 Q736 15 775 19 Q813 23 824.5 33.5 Q836 44 842 79 Q845 95 847 122.5 Q849 150 850 156 ZM337 422 L337 797 L436 793 L436 383 Q436 278 419.5 204 Q403 130 361.5 72 Q320 14 264 -29 Q208 -72 117 -121 L49 -29 Q151 24 205.5 65.5 Q260 107 292 163 Q324 219 333 301 Q108 181 99 177 L58 283 Q81 292 185 343.5 Q289 395 337 422 ZM332 491 L247 426 Q217 473 168 539 Q119 605 86 642 L165 704 Q245 618 332 491 Z" /><glyph glyph-name="Identity.8890" unicode="&#x5148;" d="M848 165 L943 135 Q942 126 941 107.5 Q940 89 938 72.5 Q936 56 933 40 Q921 -34 891.5 -58.5 Q862 -83 783 -85 Q730 -87 676 -85 Q604 -83 577 -57 Q550 -31 550 43 L550 307 L423 307 Q423 296 422 292 Q412 136 348 51 Q284 -34 121 -120 L57 -19 Q203 46 256.5 108.5 Q310 171 316 293 Q316 295 316.5 299.5 Q317 304 317 307 L61 307 L61 402 L454 402 L454 561 L265 561 Q228 478 181 405 L88 453 Q179 579 237 778 L336 755 Q323 709 304 657 L454 657 L454 807 L553 803 L553 657 L874 657 L874 561 L553 561 L553 402 L920 402 L920 307 L651 307 L651 76 Q651 44 665 31.5 Q679 19 713 17 Q741 16 769 17 Q808 19 820.5 31 Q833 43 840 74 Q846 110 848 165 Z" /><glyph glyph-name="Identity.8891" unicode="&#x5149;" d="M839 170 L937 143 Q936 134 933.5 101.5 Q931 69 928 47 Q916 -31 887 -55.5 Q858 -80 777 -84 Q719 -87 662 -84 Q588 -80 560.5 -53 Q533 -26 533 50 L533 340 L404 340 Q404 336 403.5 331.5 Q403 327 403 325 Q393 159 331 66 Q269 -27 109 -113 L29 -23 Q181 49 236 118.5 Q291 188 295 327 Q295 337 296 340 L67 340 L67 439 L435 439 L435 802 L538 798 L538 439 L914 439 L914 340 L636 340 L636 82 Q636 50 649 39.5 Q662 29 699 26 Q731 23 764 26 Q805 30 815.5 39 Q826 48 832 81 Q838 125 839 170 ZM780 750 L862 688 Q778 556 688 459 L608 525 Q703 629 780 750 ZM364 534 L288 462 Q261 508 209 576.5 Q157 645 119 685 L197 747 Q234 708 286 642 Q338 576 364 534 Z" /><glyph glyph-name="Identity.8893" unicode="&#x514b;" d="M842 153 L933 121 Q926 49 921 21 Q911 -40 882.5 -62 Q854 -84 780 -88 Q721 -91 661 -88 Q592 -84 566 -58.5 Q540 -33 540 33 L540 217 L424 217 Q423 210 421 192.5 Q419 175 417 168 Q403 66 329.5 2 Q256 -62 95 -127 L48 -28 Q194 21 249 67 Q304 113 316 200 L319 217 L157 217 L157 534 L441 534 L441 621 L73 621 L73 713 L441 713 L441 805 L534 801 L534 713 L910 713 L910 621 L534 621 L534 534 L826 534 L826 217 L635 217 L635 61 Q635 28 647.5 18 Q660 8 698 6 Q732 3 767 6 Q804 10 815.5 20 Q827 30 833 59 Q841 100 842 153 ZM252 441 L252 307 L732 307 L732 441 L252 441 Z" /><glyph glyph-name="Identity.8895" unicode="&#x514d;" d="M836 155 L929 125 Q929 82 917 17 Q907 -37 882.5 -57.5 Q858 -78 789 -82 Q698 -88 608 -82 Q539 -78 513 -55 Q487 -32 487 35 L487 183 Q441 86 352.5 18.5 Q264 -49 101 -115 L46 -17 Q193 36 272.5 90 Q352 144 392 222 L145 222 L145 452 Q121 432 94 413 L50 504 Q236 640 339 816 L427 774 Q416 758 398 728 L748 728 L748 641 L645 542 L849 542 L849 222 L580 222 L580 67 Q580 36 591.5 27 Q603 18 638 15 Q708 8 762 15 Q800 19 810.5 28 Q821 37 827 67 Q834 108 836 155 ZM619 639 L333 639 Q296 591 247 542 L518 542 L619 639 ZM241 308 L422 308 Q437 371 440 453 L241 453 L241 308 ZM753 308 L753 453 L543 453 Q539 378 526 308 L753 308 Z" /><glyph glyph-name="Identity.8899" unicode="&#x5151;" d="M839 146 L934 118 Q929 61 922 22 Q910 -41 881 -63.5 Q852 -86 777 -90 Q718 -93 658 -90 Q586 -86 559 -60.5 Q532 -35 532 30 L532 255 L409 255 Q408 254 408 251 Q403 175 386.5 123 Q370 71 332 28 Q294 -15 242 -48 Q190 -81 102 -122 L44 -31 Q195 29 248.5 87 Q302 145 308 255 L143 255 L143 644 L311 644 Q271 708 227 767 L309 821 Q375 735 412 674 L370 644 L542 644 Q605 726 656 821 L742 771 Q722 732 662 644 L823 644 L823 255 L631 255 L631 66 Q631 34 643.5 23 Q656 12 693 10 Q728 7 764 10 Q803 14 813.5 23 Q824 32 830 64 Q836 102 839 146 ZM242 348 L726 348 L726 550 L242 550 L242 348 Z" /><glyph glyph-name="Identity.8902" unicode="&#x5154;" d="M840 159 L933 127 Q930 63 922 21 Q912 -31 886.5 -51 Q861 -71 793 -75 Q697 -81 601 -75 Q531 -71 503.5 -48.5 Q476 -26 476 39 L476 180 Q431 86 341 18.5 Q251 -49 92 -112 L37 -14 Q185 42 264.5 96 Q344 150 383 228 L139 228 L139 460 Q131 453 121.5 446.5 Q112 440 101 431.5 Q90 423 83 418 L35 512 Q233 656 329 821 L420 776 L392 732 L745 732 L745 646 L645 551 L851 551 L851 228 L699 228 Q760 178 802 130 L742 49 Q719 78 678.5 118 Q638 158 613 177 L657 228 L572 228 L572 71 Q572 44 585 33 Q598 22 632 19 Q699 12 766 19 Q803 23 814 32.5 Q825 42 831 71 Q838 113 840 159 ZM606 644 L327 644 Q288 594 243 551 L505 551 L606 644 ZM238 320 L415 320 Q428 382 433 461 L238 461 L238 320 ZM753 320 L753 461 L536 461 Q531 381 520 320 L753 320 Z" /><glyph glyph-name="Identity.8908" unicode="&#x515a;" d="M188 544 L188 414 L91 414 L91 639 L269 639 Q224 692 178 738 L249 796 Q309 742 358 678 L322 639 L443 639 L443 810 L540 806 L540 639 L653 639 L622 668 Q687 728 737 795 L811 740 Q785 704 723 639 L894 639 L894 414 L798 414 L798 544 L188 544 ZM834 135 L927 105 Q921 43 916 15 Q904 -49 879.5 -69 Q855 -89 781 -93 Q718 -96 653 -93 Q589 -91 561.5 -66 Q534 -41 534 19 L534 172 L413 172 Q408 111 384.5 64.5 Q361 18 318 -16.5 Q275 -51 225.5 -74.5 Q176 -98 104 -122 L62 -21 Q112 -8 140 0.5 Q168 9 203.5 25 Q239 41 258 59 Q277 77 292.5 105.5 Q308 134 313 172 L202 172 L202 467 L787 467 L787 172 L631 172 L631 52 Q631 24 643 14.5 Q655 5 692 3 Q726 0 759 3 Q797 7 808 15 Q819 23 825 49 Q832 84 834 135 ZM300 381 L300 258 L690 258 L690 381 L300 381 Z" /><glyph glyph-name="Identity.8910" unicode="&#x515c;" d="M664 724 L664 261 L322 261 L322 724 L430 724 Q444 778 449 801 L549 793 Q542 760 532 724 L664 724 ZM287 402 L298 296 Q140 219 136 217 L90 301 Q114 318 114 342 L114 698 Q156 710 277 755 L308 663 Q268 643 211 624 L211 362 L287 402 ZM874 725 L874 257 L689 257 L689 352 L779 352 L779 628 L690 628 L690 725 L874 725 ZM571 634 L415 634 L415 536 L571 536 L571 634 ZM415 351 L571 351 L571 447 L415 447 L415 351 ZM850 145 L943 111 Q943 84 938 26 Q930 -41 903 -62.5 Q876 -84 802 -88 Q727 -93 652 -88 Q589 -84 563 -61 Q537 -38 537 26 L537 236 L634 232 L634 66 Q634 32 645 22.5 Q656 13 695 9 Q743 4 782 8 Q819 10 829.5 19.5 Q840 29 844 64 Q846 78 847.5 104 Q849 130 850 145 ZM306 187 L309 235 L411 231 Q411 199 409 184 Q399 73 330.5 8 Q262 -57 85 -114 L37 -21 Q144 10 202.5 42 Q261 74 282 106.5 Q303 139 306 187 Z" /><glyph glyph-name="Identity.8916" unicode="&#x5162;" d="M483 176 L514 85 Q507 79 469.5 50 Q432 21 390 -11.5 Q348 -44 322 -65 L266 7 Q288 20 293.5 33.5 Q299 47 299 72 L299 252 L250 252 Q248 226 248 216 Q244 109 210 41 Q176 -27 98 -108 L27 -38 Q76 8 99.5 38 Q123 68 137.5 110.5 Q152 153 156 218 Q157 222 157.5 234 Q158 246 158 252 L92 252 L92 539 L227 539 L227 629 L74 629 L74 717 L227 717 L227 808 L320 804 L320 717 L458 717 L458 629 L320 629 L320 539 L457 539 L457 252 L385 252 L385 100 L483 176 ZM876 150 L957 123 Q957 120 954 77.5 Q951 35 948 15 Q939 -40 922 -58.5 Q905 -77 852 -79 Q821 -80 790 -79 Q744 -77 722.5 -55.5 Q701 -34 701 16 L701 252 L658 252 L655 213 Q649 105 610 31.5 Q571 -42 473 -118 L413 -41 Q504 19 532.5 73.5 Q561 128 568 224 Q568 230 570 252 L506 252 L506 539 L643 539 L643 629 L498 629 L498 717 L643 717 L643 808 L734 804 L734 717 L907 717 L907 629 L734 629 L734 539 L880 539 L880 252 L791 252 L791 48 Q791 28 797.5 21.5 Q804 15 822 15 L840 15 Q848 15 853 16.5 Q858 18 861 25 Q864 32 865 34.5 Q866 37 868 49 Q874 82 876 150 ZM182 454 L182 335 L369 335 L369 454 L182 454 ZM596 454 L596 335 L790 335 L790 454 L596 454 Z" /><glyph glyph-name="Identity.8919" unicode="&#x5165;" d="M557 590 Q587 450 635 351 Q683 252 752.5 173 Q822 94 944 -5 L866 -98 Q705 43 627 150.5 Q549 258 500 425 Q409 140 110 -98 L32 -8 Q395 255 444 600 Q416 646 379 670 L313 714 L365 794 L431 753 Q535 688 557 590 Z" /><glyph glyph-name="Identity.8922" unicode="&#x5168;" d="M791 388 L541 388 L541 264 L817 264 L817 169 L541 169 L541 24 L903 24 L903 -68 L82 -68 L82 24 L435 24 L435 169 L168 169 L168 264 L435 264 L435 388 L194 388 L194 445 Q182 437 78 379 L31 475 Q330 623 451 812 L534 812 Q657 619 953 473 L903 381 Q834 417 791 443 L791 388 ZM493 709 Q416 594 254 484 L728 484 Q578 586 493 709 Z" /><glyph glyph-name="Identity.8925" unicode="&#x516b;" d="M954 -18 L866 -97 Q749 38 687.5 152.5 Q626 267 594 416 Q562 565 554 793 L660 789 Q664 582 694 443.5 Q724 305 783.5 202 Q843 99 954 -18 ZM310 773 L415 769 Q407 597 391.5 484.5 Q376 372 339.5 272 Q303 172 254 93.5 Q205 15 118 -95 L28 -22 Q135 104 190 203.5 Q245 303 273.5 434.5 Q302 566 310 773 Z" /><glyph glyph-name="Identity.8926" unicode="&#x516c;" d="M543 771 L636 804 Q689 654 762.5 557 Q836 460 954 378 L889 289 Q762 388 680 497.5 Q598 607 543 771 ZM346 790 L442 757 Q337 496 95 287 L31 372 Q256 561 346 790 ZM555 242 L637 298 Q769 113 854 -43 L773 -113 Q749 -64 727 -29 Q623 -33 430.5 -45.5 Q238 -58 160 -69 L128 30 Q156 36 169 43.5 Q182 51 198 69 Q251 131 317 246.5 Q383 362 430 476 L529 435 Q480 325 417.5 214 Q355 103 305 40 L673 62 Q598 182 555 242 Z" /><glyph glyph-name="Identity.8927" unicode="&#x516d;" d="M923 597 L923 496 L62 496 L62 597 L460 597 Q436 722 417 777 L522 789 Q538 739 569 597 L923 597 ZM567 357 L659 412 Q722 321 801.5 192.5 Q881 64 925 -17 L835 -96 Q790 -5 709 131 Q628 267 567 357 ZM145 -102 L55 -35 Q131 55 202.5 174.5 Q274 294 316 404 L418 365 Q316 122 145 -102 Z" /><glyph glyph-name="Identity.8930" unicode="&#x5170;" d="M879 609 L879 507 L104 507 L104 609 L321 609 Q273 678 206 757 L284 825 Q370 725 417 656 L369 609 L535 609 Q637 743 687 830 L779 768 Q744 713 670 609 L879 609 ZM819 243 L163 243 L163 341 L819 341 L819 243 ZM51 46 L932 46 L932 -54 L51 -54 L51 46 Z" /><glyph glyph-name="Identity.8931" unicode="&#x5171;" d="M709 316 L922 316 L922 217 L52 217 L52 316 L262 316 L262 538 L81 538 L81 636 L262 636 L262 810 L370 806 L370 636 L604 636 L604 810 L709 806 L709 636 L892 636 L892 538 L709 538 L709 316 ZM370 538 L370 316 L604 316 L604 538 L370 538 ZM110 -108 L51 -16 Q119 22 205 83.5 Q291 145 351 199 L418 118 Q313 28 110 -108 ZM559 116 L623 199 Q818 73 910 -3 L857 -104 Q717 13 559 116 Z" /><glyph glyph-name="Identity.8933" unicode="&#x5173;" d="M898 277 L548 277 Q631 83 930 3 L880 -102 Q598 -14 489 177 Q389 13 99 -105 L46 -3 Q367 117 422 277 L75 277 L75 375 L436 375 L436 525 L119 525 L119 622 L311 622 Q230 733 210 757 L294 812 Q321 779 409 659 L366 622 L535 622 Q626 736 679 824 L771 767 Q722 695 663 622 L852 622 L852 525 L543 525 L543 375 L898 375 L898 277 Z" /><glyph glyph-name="Identity.8934" unicode="&#x5174;" d="M574 461 L477 424 Q465 490 436.5 595.5 Q408 701 386 762 L485 787 Q534 655 574 461 ZM782 756 L875 709 Q807 537 714 384 L629 437 Q670 502 714.5 594 Q759 686 782 756 ZM356 446 L267 386 Q239 458 190.5 557 Q142 656 109 706 L201 753 Q303 571 356 446 ZM934 268 L49 268 L49 368 L934 368 L934 268 ZM341 236 L417 159 Q305 30 138 -108 L66 -18 Q130 28 206.5 98.5 Q283 169 341 236 ZM901 -5 L834 -103 Q674 67 557 155 L633 236 Q776 123 901 -5 Z" /><glyph glyph-name="Identity.8935" unicode="&#x5175;" d="M719 259 L938 259 L938 164 L48 164 L48 259 L212 259 L212 730 Q577 749 820 795 L838 702 Q603 650 315 638 L315 525 L900 525 L900 431 L719 431 L719 259 ZM315 431 L315 259 L618 259 L618 431 L315 431 ZM567 73 L621 158 Q756 86 905 -15 L861 -113 Q803 -69 716 -14 Q629 41 567 73 ZM116 -114 L68 -21 Q128 6 220 61.5 Q312 117 362 157 L420 74 Q362 27 275.5 -26 Q189 -79 116 -114 Z" /><glyph glyph-name="Identity.8936" unicode="&#x5176;" d="M769 216 L933 216 L933 128 L51 128 L51 216 L215 216 L215 621 L81 621 L81 709 L215 709 L215 802 L315 798 L315 709 L669 709 L669 802 L769 798 L769 709 L903 709 L903 621 L769 621 L769 216 ZM669 621 L315 621 L315 543 L669 543 L669 621 ZM315 456 L315 380 L669 380 L669 456 L315 456 ZM315 291 L315 216 L669 216 L669 291 L315 291 ZM111 -119 L72 -27 Q219 26 371 122 L415 35 Q242 -65 111 -119 ZM563 32 L602 119 Q762 55 899 -22 L864 -115 Q701 -23 563 32 Z" /><glyph glyph-name="Identity.8937" unicode="&#x5177;" d="M940 204 L940 118 L605 118 Q720 73 907 -10 L870 -107 Q739 -35 558 36 L596 118 L377 118 L422 46 Q303 -28 100 -115 L62 -25 Q225 37 355 118 L43 118 L43 204 L186 204 L186 769 L797 769 L797 204 L940 204 ZM698 686 L285 686 L285 627 L698 627 L698 686 ZM698 486 L698 546 L285 546 L285 486 L698 486 ZM698 407 L285 407 L285 346 L698 346 L698 407 ZM285 265 L285 204 L698 204 L698 265 L285 265 Z" /><glyph glyph-name="Identity.8938" unicode="&#x5178;" d="M849 232 L941 232 L941 137 L45 137 L45 232 L140 232 L140 693 L344 693 L344 796 L441 792 L441 693 L546 693 L546 796 L639 792 L639 693 L849 693 L849 232 ZM344 599 L239 599 L239 462 L344 462 L344 599 ZM546 599 L441 599 L441 462 L546 462 L546 599 ZM751 599 L639 599 L639 462 L751 462 L751 599 ZM239 369 L239 232 L344 232 L344 369 L239 369 ZM546 232 L546 369 L441 369 L441 232 L546 232 ZM639 369 L639 232 L751 232 L751 369 L639 369 ZM103 -124 L64 -31 Q245 43 377 128 L424 41 Q264 -53 103 -124 ZM559 35 L598 124 Q746 61 907 -22 L871 -117 Q692 -20 559 35 Z" /><glyph glyph-name="Identity.8941" unicode="&#x517b;" d="M945 166 L908 68 Q785 108 689 169 L689 -97 L590 -97 L590 209 L635 209 Q578 256 536 311 L433 311 Q391 254 329 206 L407 205 Q407 72 361 -1.5 Q315 -75 187 -135 L122 -52 Q232 -9 267.5 42.5 Q303 94 305 188 Q205 118 72 67 L33 164 Q221 230 308 311 L64 311 L64 395 L376 395 Q394 426 408 466 L130 466 L130 548 L429 548 Q433 566 439 621 L98 621 L98 706 L303 706 Q289 721 264 748 Q239 775 233 781 L304 837 Q317 826 354 788.5 Q391 751 404 735 L372 706 L565 706 Q630 775 670 829 L753 780 Q738 762 687 706 L884 706 L884 621 L539 621 Q532 561 529 548 L852 548 L852 466 L509 466 Q498 426 483 395 L918 395 L918 311 L652 311 Q703 260 772 226.5 Q841 193 945 166 Z" /><glyph glyph-name="Identity.8942" unicode="&#x517c;" d="M822 198 L653 198 Q770 73 937 8 L893 -86 Q725 -7 618 105 L618 -104 L525 -104 L525 198 L416 198 L416 -104 L324 -104 L324 105 Q228 -2 71 -93 L18 0 Q191 86 287 198 L107 198 L107 278 L324 278 L324 340 L44 340 L44 421 L324 421 L324 481 L116 481 L116 564 L324 564 L324 634 L61 634 L61 716 L276 716 Q240 770 229 784 L310 832 Q352 784 375 740 L340 716 L554 716 Q612 789 634 834 L721 786 Q701 752 674 716 L896 716 L896 634 L618 634 L618 564 L822 564 L822 421 L919 421 L919 340 L822 340 L822 198 ZM416 634 L416 564 L525 564 L525 634 L416 634 ZM416 481 L416 421 L525 421 L525 481 L416 481 ZM728 481 L618 481 L618 421 L728 421 L728 481 ZM416 278 L525 278 L525 340 L416 340 L416 278 ZM728 278 L728 340 L618 340 L618 278 L728 278 Z" /><glyph glyph-name="Identity.8943" unicode="&#x517d;" d="M854 709 L854 354 L127 354 L127 709 L305 709 Q287 734 257 765 L337 826 Q382 775 411 735 L383 709 L556 709 Q603 761 644 823 L733 767 Q725 755 688 709 L854 709 ZM444 629 L221 629 L221 568 L445 568 L444 629 ZM762 568 L762 629 L539 629 L539 568 L762 568 ZM221 493 L221 427 L447 427 L446 493 L221 493 ZM539 427 L762 427 L762 493 L539 493 L539 427 ZM42 311 L942 311 L942 237 L42 237 L42 311 ZM164 -98 L164 187 L818 187 L818 -98 L725 -98 L725 -61 L259 -61 L259 -98 L164 -98 ZM725 109 L259 109 L259 17 L725 17 L725 109 Z" /><glyph glyph-name="Identity.8951" unicode="&#x5185;" d="M543 664 L870 664 L870 34 Q870 -42 843.5 -65.5 Q817 -89 733 -95 L658 -101 L627 1 L702 7 Q744 11 757 21.5 Q770 32 770 66 L770 566 L543 566 Q541 503 530 453 Q666 327 770 208 L707 117 Q644 192 494 348 Q435 227 274 103 L218 178 L218 -91 L116 -91 L116 664 L443 664 L443 802 L543 798 L543 664 ZM218 566 L218 198 Q345 295 392 374 Q439 453 443 566 L218 566 Z" /><glyph glyph-name="Identity.8954" unicode="&#x5188;" d="M109 763 L877 763 L877 51 Q877 -39 854 -63 Q831 -87 738 -95 L661 -102 L628 1 L699 7 Q751 11 764.5 23 Q778 35 778 82 L778 665 L209 665 L209 -91 L109 -91 L109 763 ZM736 137 L665 52 Q579 162 496 258 Q390 137 279 41 L215 124 Q333 223 431 333 Q342 435 241 545 L312 610 Q350 571 496 411 Q579 512 643 619 L729 563 Q668 468 563 337 Q655 233 736 137 Z" /><glyph glyph-name="Identity.8958" unicode="&#x518c;" d="M943 429 L943 335 L838 335 L838 22 Q838 -45 813.5 -65.5 Q789 -86 715 -92 L649 -98 L619 1 L686 7 Q724 9 733.5 18.5 Q743 28 743 60 L743 335 L620 335 Q618 162 598.5 76 Q579 -10 519 -113 L422 -63 Q423 -61 427 -55 Q431 -49 433 -45 Q411 -69 331 -80 L278 -86 L249 7 L308 13 Q340 16 351.5 25.5 Q363 35 363 63 L363 335 L254 335 Q252 163 231 77.5 Q210 -8 146 -113 L50 -61 Q113 28 134 104.5 Q155 181 157 335 L42 335 L42 429 L158 429 L158 764 L456 764 L456 429 L525 429 L525 764 L838 764 L838 429 L943 429 ZM254 429 L363 429 L363 670 L254 670 L254 429 ZM620 429 L743 429 L743 670 L620 670 L620 429 ZM447 -22 Q490 50 506 123 Q522 196 524 335 L456 335 L456 40 Q456 0 447 -22 Z" /><glyph glyph-name="Identity.8959" unicode="&#x518d;" d="M943 220 L943 129 L826 129 L826 30 Q826 -45 801 -67.5 Q776 -90 685 -98 L624 -104 L594 -2 L658 4 Q704 8 715 17.5 Q726 27 726 63 L726 129 L259 129 L259 -94 L159 -94 L159 129 L42 129 L42 220 L159 220 L159 584 L446 584 L446 665 L83 665 L83 755 L904 755 L904 665 L545 665 L545 584 L826 584 L826 220 L943 220 ZM446 493 L259 493 L259 403 L446 403 L446 493 ZM726 493 L545 493 L545 403 L726 403 L726 493 ZM259 317 L259 220 L446 220 L446 317 L259 317 ZM545 220 L726 220 L726 317 L545 317 L545 220 Z" /><glyph glyph-name="Identity.8964" unicode="&#x5192;" d="M101 771 L872 771 L872 444 L768 444 L768 687 L203 687 L203 444 L101 444 L101 771 ZM721 645 L721 572 L253 572 L253 645 L721 645 ZM253 453 L253 523 L721 523 L721 453 L253 453 ZM163 -102 L163 407 L808 407 L808 -100 L706 -100 L706 -55 L264 -55 L264 -102 L163 -102 ZM706 335 L264 335 L264 276 L706 276 L706 335 ZM264 203 L264 148 L706 148 L706 203 L264 203 ZM264 18 L706 18 L706 74 L264 74 L264 18 Z" /><glyph glyph-name="Identity.8967" unicode="&#x5195;" d="M213 695 L213 487 L117 487 L117 775 L865 775 L865 486 L769 486 L769 695 L213 695 ZM711 609 L272 609 L272 668 L711 668 L711 609 ZM844 107 L933 75 Q928 32 921 4 Q909 -47 885.5 -64.5 Q862 -82 802 -84 Q709 -89 617 -84 Q552 -82 526 -62 Q500 -42 500 17 L500 92 Q454 27 360 -20 Q266 -67 92 -111 L57 -24 Q210 8 290.5 43 Q371 78 407 128 L160 128 L160 260 L117 236 L71 318 Q229 407 327 512 L272 512 L272 571 L711 571 L711 512 L342 512 L414 479 Q406 469 401 464 L749 464 L749 407 L673 343 L848 343 L848 128 L589 128 L589 50 Q589 21 600 10.5 Q611 0 643 -2 Q708 -7 772 -2 Q805 0 817 11.5 Q829 23 835 50 Q838 65 844 107 ZM617 401 L344 401 Q313 370 280 343 L545 343 L617 401 ZM252 201 L440 201 Q448 233 452 272 L252 272 L252 201 ZM758 201 L758 272 L556 272 Q551 232 544 201 L758 201 Z" /><glyph glyph-name="Identity.8969" unicode="&#x5197;" d="M777 488 L777 655 L199 655 L199 488 L88 488 L88 751 L886 751 L886 488 L777 488 ZM120 -103 L55 -18 Q122 17 162 47 Q202 77 225 115.5 Q248 154 255.5 195.5 Q263 237 263 303 L263 501 L677 501 L677 75 Q677 44 685.5 35 Q694 26 721 26 L769 26 Q800 26 808 34.5 Q816 43 820 74 Q828 132 828 182 L925 150 Q923 93 917 42 Q909 -23 880 -46.5 Q851 -70 783 -70 L686 -70 Q627 -70 601 -43.5 Q575 -17 575 47 L575 402 L366 402 L366 294 Q366 217 358 168 Q350 119 324 70.5 Q298 22 249.5 -18 Q201 -58 120 -103 Z" /><glyph glyph-name="Identity.8971" unicode="&#x5199;" d="M94 760 L900 760 L900 537 L790 537 L790 665 L198 665 L198 533 L94 533 L94 760 ZM327 456 L318 357 L846 357 Q846 336 838.5 203.5 Q831 71 831 66 Q825 -20 787 -52.5 Q749 -85 653 -91 L557 -98 L527 -2 L624 4 Q682 8 702 24.5 Q722 41 726 90 Q738 234 738 264 L205 264 L240 629 L343 625 L336 546 L777 546 L777 456 L327 456 ZM678 170 L678 78 L76 78 L76 170 L678 170 Z" /><glyph glyph-name="Identity.8973" unicode="&#x519b;" d="M197 672 L197 572 L97 572 L97 761 L896 761 L896 572 L796 572 L796 672 L197 672 ZM937 131 L937 41 L565 41 L565 -103 L466 -103 L466 41 L51 41 L51 131 L466 131 L466 232 L163 232 L163 323 Q201 364 267 465 L105 465 L105 554 L321 554 Q352 606 378 664 L472 632 Q465 616 451 588.5 Q437 561 434 554 L882 554 L882 465 L385 465 Q341 388 290 323 L466 323 L466 427 L565 423 L565 323 L846 323 L846 232 L565 232 L565 131 L937 131 Z" /><glyph glyph-name="Identity.8974" unicode="&#x519c;" d="M659 259 Q759 134 951 43 L884 -56 Q707 43 607 158 Q507 273 448 451 Q410 385 361 325 L361 36 L568 121 L587 15 Q552 3 439.5 -42.5 Q327 -88 264 -116 L220 -19 Q238 -9 247.5 3 Q257 15 259 24 Q261 33 261 47 L261 221 Q174 141 63 69 L10 168 Q173 273 267 377 Q361 481 404 610 L203 610 L203 471 L104 471 L104 702 L428 702 Q438 756 443 816 L555 806 Q548 746 539 702 L874 702 L874 491 L777 491 L777 610 L515 610 L507 585 Q542 442 601 343 Q678 398 772 487 L836 399 Q718 301 659 259 Z" /><glyph glyph-name="Identity.8978" unicode="&#x51a0;" d="M180 669 L180 576 L80 576 L80 764 L894 764 L894 574 L797 574 L797 669 L180 669 ZM674 56 L622 50 L594 137 L647 141 Q680 144 688.5 152 Q697 160 697 189 L697 408 L488 408 L488 502 L697 502 L697 595 L794 591 L794 502 L909 502 L909 408 L794 408 L794 167 Q794 106 770 84 Q746 62 674 56 ZM125 469 L125 560 L462 560 L462 469 L125 469 ZM500 353 L572 395 Q609 345 668 242 L597 186 Q551 281 500 353 ZM849 157 L945 122 Q939 63 934 32 Q922 -32 891.5 -55.5 Q861 -79 776 -83 Q616 -90 456 -83 Q378 -79 350 -53.5 Q322 -28 322 49 L322 290 L262 290 L262 257 Q262 132 226.5 53 Q191 -26 108 -109 L30 -47 Q112 37 137.5 96 Q163 155 167 259 Q167 263 167.5 273.5 Q168 284 168 290 L56 290 L56 383 L490 383 L490 290 L420 290 L420 83 Q420 41 432 28.5 Q444 16 483 14 Q622 6 762 14 Q804 16 819 28.5 Q834 41 840 79 Q848 116 849 157 Z" /><glyph glyph-name="Identity.8982" unicode="&#x51a4;" d="M188 680 L188 548 L88 548 L88 768 L884 768 L884 547 L784 547 L784 680 L188 680 ZM848 135 L941 105 L932 21 Q926 -34 896.5 -58 Q867 -82 797 -86 Q702 -92 608 -86 Q539 -82 511.5 -58 Q484 -34 484 32 L484 122 Q437 46 344.5 -9 Q252 -64 89 -117 L50 -16 Q205 30 286 73.5 Q367 117 406 182 L158 182 L158 345 Q147 336 123 320 L71 403 Q145 452 224 529 Q303 606 348 671 L434 624 L411 591 L760 591 L760 518 L672 444 L847 444 L847 182 L703 182 Q767 136 800 103 L748 29 Q714 66 622 133 L664 182 L578 182 L578 60 Q578 28 591 16.5 Q604 5 640 3 Q707 -3 774 3 Q813 7 825.5 18 Q838 29 842 61 Q844 72 845.5 97 Q847 122 848 135 ZM616 511 L345 511 Q334 500 279 444 L532 444 L616 511 ZM256 264 L437 264 Q445 298 450 364 L256 364 L256 264 ZM751 264 L751 364 L549 364 Q546 310 537 264 L751 264 Z" /><glyph glyph-name="Identity.8990" unicode="&#x51ac;" d="M591 431 Q736 363 953 313 L921 208 Q654 284 496 374 Q443 345 328 294 Q527 252 695 204 L679 106 Q481 165 287 200 L304 284 Q200 242 71 200 L35 299 Q251 362 400 436 Q327 488 259 560 Q196 491 118 430 L60 509 Q137 572 213.5 661.5 Q290 751 331 825 L429 786 L392 727 L830 727 L831 636 Q731 521 591 431 ZM327 639 L324 636 Q397 547 493 485 Q619 557 691 639 L327 639 ZM180 24 L199 119 Q460 75 758 2 L742 -104 Q631 -72 460 -33 Q289 6 180 24 Z" /><glyph glyph-name="Identity.8993" unicode="&#x51af;" d="M304 500 L210 448 Q189 501 143 590 Q97 679 67 728 L152 770 Q202 695 304 500 ZM781 396 L908 396 Q908 386 898.5 229 Q889 72 889 61 Q882 -29 846 -57.5 Q810 -86 700 -94 L606 -101 L574 -3 L669 3 Q735 7 760.5 22.5 Q786 38 790 84 Q790 96 796 191.5 Q802 287 802 298 L354 299 L393 634 L495 625 L464 396 L680 396 L711 667 L338 667 L338 763 L823 763 L781 396 ZM203 370 L301 335 Q281 279 219.5 124 Q158 -31 138 -74 L37 -34 Q58 8 121.5 162.5 Q185 317 203 370 ZM744 199 L744 106 L283 106 L283 199 L744 199 Z" /><glyph glyph-name="Identity.8994" unicode="&#x51b0;" d="M965 74 L881 -9 Q702 179 624 391 L624 28 Q624 -41 598 -65 Q572 -89 495 -95 L428 -101 L396 -3 L463 3 Q504 7 514.5 17.5 Q525 28 525 66 L525 804 L624 800 L624 662 Q647 564 677 483 Q757 562 831 648 L906 564 Q837 488 719 386 Q804 215 965 74 ZM257 494 L174 448 Q120 616 71 715 L156 748 Q232 581 257 494 ZM503 580 L503 482 Q478 335 425 217.5 Q372 100 273 -17 L186 49 Q360 246 408 484 L274 484 L274 580 L503 580 ZM162 370 L249 350 Q238 311 123 -56 L32 -23 Q137 274 162 370 Z" /><glyph glyph-name="Identity.8996" unicode="&#x51b2;" d="M884 639 L884 169 L642 169 L642 -100 L545 -100 L545 169 L315 169 L315 639 L545 639 L545 807 L642 803 L642 639 L884 639 ZM281 524 L198 461 Q176 514 132.5 598 Q89 682 60 727 L146 774 Q210 671 281 524 ZM416 273 L545 273 L545 538 L416 538 L416 273 ZM784 273 L784 538 L642 538 L642 273 L784 273 ZM136 -45 L42 -5 Q144 235 188 377 L283 345 Q225 167 136 -45 Z" /><glyph glyph-name="Identity.8997" unicode="&#x51b3;" d="M924 268 L606 268 Q645 174 728 107 Q811 40 946 -13 L888 -114 Q646 -9 546 170 Q508 87 433 17.5 Q358 -52 235 -119 L170 -23 Q311 47 378 112.5 Q445 178 467 268 L271 268 L271 350 Q224 196 132 -53 L31 -21 Q123 224 171 381 L271 356 L271 364 L481 364 L481 371 Q481 373 481.5 402.5 Q482 432 482.5 477.5 Q483 523 483 564 L311 564 L311 660 L483 660 L483 807 L588 803 Q588 800 588 779 Q588 758 587.5 725 Q587 692 587 660 L834 660 L834 364 L924 364 L924 268 ZM271 518 L178 462 Q101 658 63 725 L153 767 Q202 679 271 518 ZM586 377 L586 364 L738 364 L738 564 L587 564 Q587 524 586.5 480 Q586 436 586 407.5 Q586 379 586 377 Z" /><glyph glyph-name="Identity.8999" unicode="&#x51b5;" d="M282 517 L193 463 Q126 627 64 732 L149 776 Q229 638 282 517 ZM863 150 L954 123 Q952 76 945 12 Q936 -42 913 -62.5 Q890 -83 829 -83 L744 -83 Q684 -83 659.5 -61 Q635 -39 635 19 L635 332 L537 332 Q537 312 535 290 Q529 182 503.5 112.5 Q478 43 428.5 -7.5 Q379 -58 286 -116 L221 -35 Q345 33 389.5 99.5 Q434 166 440 294 L442 332 L331 332 L331 754 L866 754 L866 332 L731 332 L731 51 Q731 14 775 14 L810 14 Q835 14 843 22 Q851 30 854 50 Q856 62 863 150 ZM431 660 L431 424 L768 424 L768 660 L431 660 ZM195 375 L287 335 Q225 129 133 -66 L40 -13 Q147 192 195 375 Z" /><glyph glyph-name="Identity.9000" unicode="&#x51b6;" d="M920 439 L840 372 Q820 408 809 425 Q365 404 304 396 L275 494 Q310 507 334 533 Q371 573 433 662 Q495 751 528 820 L621 775 Q582 703 526 623 Q470 543 433 508 L748 522 Q676 626 651 659 L730 713 Q843 563 920 439 ZM286 523 L194 459 Q139 596 65 731 L152 779 Q210 684 286 523 ZM139 -71 L40 -34 Q137 208 184 362 L283 331 Q233 174 139 -71 ZM336 -99 L336 319 L852 319 L852 -99 L754 -99 L754 -55 L434 -55 L434 -99 L336 -99 ZM754 226 L434 226 L434 38 L754 38 L754 226 Z" /><glyph glyph-name="Identity.9001" unicode="&#x51b7;" d="M545 818 L633 818 Q729 624 958 483 L902 390 Q800 453 716.5 538 Q633 623 589 713 Q515 559 306 398 L242 485 Q448 626 545 818 ZM278 540 L194 476 Q172 526 129 611 Q86 696 62 737 L149 782 Q247 612 278 540 ZM675 421 L610 354 L855 354 L855 260 L652 51 Q719 9 757 -18 L711 -114 Q542 10 347 123 L398 201 Q417 191 443 176 Q469 161 505.5 139.5 Q542 118 564 105 Q668 215 723 263 L316 263 L316 354 L607 354 Q543 440 484 503 L554 562 Q617 499 675 421 ZM150 -39 L49 -7 Q76 56 123 183 Q170 310 186 363 L285 335 Q268 274 223.5 151.5 Q179 29 150 -39 Z" /><glyph glyph-name="Identity.9005" unicode="&#x51bb;" d="M883 289 L660 289 L660 21 Q660 -47 635 -67.5 Q610 -88 531 -97 L468 -103 L438 -3 L501 3 Q541 7 551 15.5 Q561 24 561 57 L562 289 L315 289 L315 384 Q347 430 416 592 L297 592 L298 687 L456 687 Q486 757 503 813 L600 790 Q595 774 563 687 L906 687 L906 592 L524 592 Q453 422 425 384 L563 384 L564 545 L660 541 L660 384 L883 384 L883 289 ZM270 512 L179 461 Q133 590 63 732 L149 774 Q225 629 270 512 ZM179 369 L271 340 Q245 257 127 -57 L34 -24 Q50 13 109 172 Q168 331 179 369 ZM698 194 L776 255 Q879 132 965 0 L885 -63 Q799 71 698 194 ZM392 252 L479 204 Q420 78 305 -72 L222 -10 Q321 104 392 252 Z" /><glyph glyph-name="Identity.9010" unicode="&#x51c0;" d="M934 391 L934 307 L846 307 L846 108 L604 108 L604 29 Q604 -35 579 -55.5 Q554 -76 475 -85 L415 -91 L385 1 L448 7 Q490 11 500.5 19 Q511 27 511 57 L511 108 L294 108 L294 197 L511 197 L511 307 L265 307 L265 391 L511 391 L511 485 L330 485 L330 507 L260 568 Q393 704 446 826 L544 801 Q528 765 515 743 L779 743 L779 667 L692 567 L846 567 L846 391 L934 391 ZM252 532 L161 484 Q102 643 47 748 L135 786 Q195 676 252 532 ZM656 659 L463 659 Q431 612 392 567 L573 567 L656 659 ZM604 485 L604 391 L756 391 L756 485 L604 485 ZM134 -38 L37 -5 Q53 31 104.5 183 Q156 335 169 382 L262 353 Q246 300 196.5 148.5 Q147 -3 134 -38 ZM756 197 L756 307 L604 307 L604 197 L756 197 Z" /><glyph glyph-name="Identity.9014" unicode="&#x51c4;" d="M845 421 L845 300 L446 300 L530 277 L512 239 L924 239 L924 165 L781 165 Q742 90 693 45 Q758 24 901 -24 L878 -110 Q746 -58 609 -11 Q506 -65 244 -113 L214 -22 Q386 1 486 31 L307 88 Q338 126 362 165 L223 165 L223 239 L407 239 Q419 261 438 300 L289 300 L289 369 L511 369 L511 421 L230 421 L230 487 L511 487 L511 538 L293 538 L293 607 L511 607 L511 657 L269 657 L269 732 L511 732 L511 809 L602 805 L602 732 L898 732 L898 657 L602 657 L602 607 L845 607 L845 487 L929 487 L929 421 L845 421 ZM241 519 L159 480 Q90 685 64 748 L146 778 Q201 657 241 519 ZM602 538 L602 487 L757 487 L757 538 L602 538 ZM602 369 L757 369 L757 421 L602 421 L602 369 ZM151 392 L241 370 Q197 194 121 -49 L31 -24 Q59 58 98 190 Q137 322 151 392 ZM678 165 L470 165 Q445 126 441 121 Q447 119 501.5 103.5 Q556 88 592 77 Q645 109 678 165 Z" /><glyph glyph-name="Identity.9016" unicode="&#x51c6;" d="M933 49 L933 -37 L447 -37 L447 -98 L348 -98 L348 421 Q315 368 284 329 L214 411 Q345 570 409 816 L512 799 Q491 716 469 661 L627 661 Q621 686 607 731.5 Q593 777 591 785 L681 799 Q710 710 723 661 L918 661 L918 571 L701 571 L701 461 L892 461 L892 375 L701 375 L701 265 L892 265 L892 179 L701 179 L701 49 L933 49 ZM280 538 L194 476 Q171 528 130.5 611.5 Q90 695 69 731 L156 777 Q223 667 280 538 ZM607 461 L607 571 L447 571 L447 461 L607 461 ZM607 265 L607 375 L447 375 L447 265 L607 265 ZM153 -66 L51 -32 Q137 180 179 340 L279 307 Q222 105 153 -66 ZM447 179 L447 49 L607 49 L607 179 L447 179 Z" /><glyph glyph-name="Identity.9019" unicode="&#x51c9;" d="M916 712 L916 619 L297 619 L297 712 L556 712 Q544 751 530 791 L633 806 Q660 724 664 712 L916 712 ZM270 528 L185 467 Q104 664 69 725 L156 770 Q213 666 270 528 ZM855 241 L661 241 L661 11 Q661 -48 634.5 -67.5 Q608 -87 530 -96 L477 -102 L447 -5 L503 1 Q540 5 549.5 12.5 Q559 20 559 47 L559 241 L341 241 L341 542 L855 542 L855 241 ZM440 449 L440 333 L757 333 L757 449 L440 449 ZM191 379 L284 342 Q267 289 216.5 159.5 Q166 30 131 -53 L35 -13 Q70 61 122.5 192.5 Q175 324 191 379 ZM394 212 L477 158 Q401 23 301 -90 L221 -23 Q329 96 394 212 ZM713 148 L792 209 Q881 110 954 6 L890 -80 Q805 45 713 148 Z" /><glyph glyph-name="Identity.9022" unicode="&#x51cc;" d="M945 -19 L913 -110 Q712 -54 596 11 Q467 -58 263 -115 L229 -28 Q403 12 513 65 Q461 104 420 153 Q363 98 301 54 L246 131 Q313 177 376 243.5 Q439 310 476 370 Q376 295 292 249 L249 336 Q207 161 138 -54 L40 -28 Q117 204 160 380 L254 355 Q252 344 249 336 Q335 378 450 462 L277 462 L277 548 L539 548 L539 630 L320 630 L320 716 L539 716 L539 806 L638 802 L638 716 L873 716 L873 630 L638 630 L638 548 L921 548 L921 462 L722 462 Q810 417 924 345 L883 259 Q878 263 863 272 Q848 281 840 287 L840 233 Q775 134 680 64 Q776 17 945 -19 ZM262 520 L179 468 Q123 623 70 728 L156 766 Q200 681 262 520 ZM496 462 L531 412 L483 375 L559 336 Q555 328 542 307 L806 307 Q727 355 638 400 L674 462 L496 462 ZM480 219 Q529 154 594 111 Q662 157 717 226 L486 226 Q481 221 480 219 Z" /><glyph glyph-name="Identity.9025" unicode="&#x51cf;" d="M881 163 L953 136 Q948 90 936 34 Q917 -43 898 -67 Q879 -91 845 -91 Q809 -91 779.5 -67.5 Q750 -44 722 21 Q710 49 707 59 Q646 -19 558 -94 L495 -23 Q533 6 566 36 L397 36 L397 347 L613 347 L613 84 Q646 118 677 165 Q638 332 625 584 L369 584 L369 240 Q369 156 344 54.5 Q319 -47 279 -113 L198 -53 Q285 78 285 240 L285 675 L621 675 L614 808 L703 804 L710 675 L796 675 Q780 697 724 761 L783 809 Q827 769 875 708 L841 675 L911 675 L911 584 L716 584 Q728 408 744 291 Q784 383 807 515 L890 501 Q855 292 771 151 Q783 103 803 57 Q822 18 837 18 Q852 18 866 81 Q877 133 881 163 ZM241 517 L155 475 Q113 622 55 744 L142 775 Q196 664 241 517 ZM617 502 L617 415 L398 415 L398 502 L617 502 ZM139 387 L233 370 Q187 180 119 -35 L21 -12 Q86 177 139 387 ZM542 124 L542 257 L472 257 L472 124 L542 124 Z" /><glyph glyph-name="Identity.9027" unicode="&#x51d1;" d="M725 240 L611 240 L608 187 L608 181 L824 181 L824 109 L598 109 Q594 99 594 96 Q782 24 877 -25 L844 -117 Q703 -41 551 21 Q514 -21 442.5 -52 Q371 -83 249 -114 L220 -22 Q353 7 414.5 37.5 Q476 68 497 109 L309 109 L309 181 L514 181 Q514 182 514.5 185 Q515 188 515 189 Q516 201 516 240 L405 240 L405 264 Q339 198 240 135 L198 204 Q132 -29 125 -51 L29 -28 Q111 235 141 373 L236 355 Q228 316 201 218 Q325 304 385 380 L239 380 L239 454 L433 454 Q448 479 461 516 L296 516 L296 589 L483 589 Q491 619 495 645 L267 645 L267 721 L507 721 L517 805 L620 800 L609 721 L874 721 L874 645 L595 645 Q590 614 583 589 L846 589 L846 516 L562 516 Q551 481 538 454 L901 454 L901 380 L733 380 Q805 288 943 232 L907 145 Q793 204 725 264 L725 240 ZM245 516 L159 471 Q116 617 57 742 L143 774 Q203 654 245 516 ZM626 380 L499 380 Q479 347 448 310 L679 310 Q644 351 626 380 Z" /><glyph glyph-name="Identity.9039" unicode="&#x51dd;" d="M354 483 Q306 485 287.5 501.5 Q269 518 269 571 L269 792 L356 788 L356 701 Q472 752 505 771 L536 704 Q494 681 356 628 L356 591 Q356 572 362 566 Q368 560 388 558 Q412 557 437 558 Q462 559 468 565 Q474 571 477 596 Q477 597 480 633 L553 608 Q551 576 549 566 Q543 517 524 501 Q505 485 451 483 Q403 480 354 483 ZM228 514 L146 477 Q109 608 61 747 L141 775 Q191 641 228 514 ZM772 17 L808 14 Q880 11 952 14 L934 -78 Q866 -81 800 -78 Q654 -72 602 24 Q582 -32 532 -108 L453 -64 Q523 27 543.5 100 Q564 173 566 334 L642 329 Q640 227 634 169 Q651 85 691 51 L691 396 L543 396 L543 484 L698 484 Q641 551 586 604 L642 658 Q648 652 663 637.5 Q678 623 692.5 608 Q707 593 721 579 Q793 663 810 680 L561 680 L561 769 L910 769 L910 674 Q901 665 877 638 Q853 611 821.5 575 Q790 539 774 521 L788 504 L770 484 L921 484 L921 395 L883 300 L811 320 L842 396 L772 396 L772 258 L908 258 L908 172 L772 172 L772 17 ZM517 65 L467 -7 Q451 14 399 62 Q357 -23 242 -111 L170 -42 Q311 45 339 166 L222 166 L222 249 L351 249 Q354 271 356 333 L316 333 Q295 287 277 253 L211 291 Q259 379 284 479 L362 455 L347 411 L529 411 L529 333 L442 333 L440 249 L548 249 L548 166 L431 166 Q429 150 427 146 Q498 87 517 65 ZM142 380 L228 362 Q162 91 120 -42 L32 -18 Q47 27 88.5 177.5 Q130 328 142 380 Z" /><glyph glyph-name="Identity.9042" unicode="&#x51e0;" d="M126 -104 L42 -31 Q127 39 164.5 90 Q202 141 218 214 Q234 287 234 420 L234 752 L707 752 L707 73 Q707 40 714 32 Q721 24 752 24 L787 24 Q811 24 817.5 32.5 Q824 41 828 72 Q835 130 835 196 L935 164 Q935 128 926 32 Q918 -35 897.5 -56.5 Q877 -78 815 -78 L715 -78 Q653 -78 627 -53.5 Q601 -29 601 37 L601 647 L339 647 L339 420 Q339 272 321.5 188.5 Q304 105 261.5 43 Q219 -19 126 -104 Z" /><glyph glyph-name="Identity.9043" unicode="&#x51e1;" d="M839 192 L934 161 Q934 131 922 28 Q914 -34 891 -55.5 Q868 -77 806 -79 Q766 -80 726 -79 Q663 -77 636 -50.5 Q609 -24 609 43 L609 649 L312 649 L312 457 L381 525 Q513 393 601 285 L534 198 Q443 320 312 451 L312 401 Q312 204 275.5 104.5 Q239 5 122 -106 L38 -39 Q145 60 176 141 Q207 222 207 401 L207 754 L716 754 L716 77 Q716 42 724.5 32.5 Q733 23 762 23 L780 23 Q806 23 815.5 32.5 Q825 42 829 70 Q837 122 839 192 Z" /><glyph glyph-name="Identity.9046" unicode="&#x51e4;" d="M888 161 L962 114 Q936 -1 927 -29 Q901 -108 839 -108 Q809 -108 783 -82.5 Q757 -57 746 -13 Q719 117 719 337 L719 668 L234 668 L234 350 Q234 104 116 -107 L26 -54 Q87 54 111 135 Q135 216 135 350 L135 766 L816 766 L816 343 Q816 212 828 90 Q833 50 837.5 36.5 Q842 23 850 23 Q856 23 860 32.5 Q864 42 873 77 Q882 112 888 161 ZM677 580 L677 488 Q629 334 558 228 Q670 103 714 49 L651 -31 Q603 32 498 149 Q408 43 259 -59 L198 25 Q344 120 430 225 Q316 345 270 391 L334 458 Q430 365 487 303 Q536 378 578 488 L265 488 L265 580 L677 580 Z" /><glyph glyph-name="Identity.9053" unicode="&#x51eb;" d="M786 253 Q788 263 789 291 Q790 319 791 332 L137 332 L137 726 L344 726 Q372 783 381 815 L482 804 Q473 772 452 726 L801 726 Q799 705 796.5 643 Q794 581 793 559 Q789 502 761 481.5 Q733 461 660 455 L599 449 L571 532 L632 538 Q665 541 679 551.5 Q693 562 694 588 L698 638 L238 638 L238 415 L892 415 L885 230 Q881 157 859.5 133.5 Q838 110 770 104 L704 98 L674 191 L718 194 Q757 196 769.5 207.5 Q782 219 786 253 ZM306 572 L360 637 Q443 581 513 511 L457 439 Q409 491 306 572 ZM841 91 L935 58 Q933 34 929 7 Q921 -48 891 -66 Q861 -84 780 -90 Q692 -96 604 -90 Q538 -86 514.5 -64 Q491 -42 491 27 L491 173 L312 173 L312 153 Q312 56 264 -6.5 Q216 -69 99 -119 L41 -35 Q147 6 180 50.5 Q213 95 213 191 L213 265 L593 265 L593 49 Q593 20 602 10.5 Q611 1 641 -1 Q703 -7 763 -1 Q806 3 817.5 9.5 Q829 16 835 45 Q840 68 841 91 Z" /><glyph glyph-name="Identity.9055" unicode="&#x51ed;" d="M173 292 L173 522 Q134 479 82 430 L37 525 Q97 571 155 651.5 Q213 732 249 815 L334 782 Q304 712 272 657 L272 292 L173 292 ZM554 579 L554 666 Q436 655 342 649 L336 734 Q634 754 846 790 L856 706 Q752 688 652 677 L652 579 L919 579 L919 494 L652 494 L652 399 L884 399 L884 317 L334 317 L334 399 L554 399 L554 494 L299 494 L299 579 L554 579 ZM834 144 L924 111 Q922 67 915 25 Q905 -31 879 -51.5 Q853 -72 785 -74 Q739 -75 693 -74 Q626 -72 600.5 -50 Q575 -28 575 30 L575 163 L364 163 L364 149 Q364 58 317.5 6 Q271 -46 124 -109 L70 -18 Q196 27 229.5 64 Q263 101 263 190 L263 253 L674 253 L674 63 Q674 33 682.5 24.5 Q691 16 720 15 Q744 13 770 15 Q806 17 815 24.5 Q824 32 828 60 Q834 96 834 144 Z" /><glyph glyph-name="Identity.9057" unicode="&#x51ef;" d="M472 739 L472 513 L64 513 L64 743 L147 739 L147 606 L232 606 L232 807 L315 803 L315 606 L389 606 L389 743 L472 739 ZM869 177 L950 146 Q950 68 940 6 Q932 -44 911 -62.5 Q890 -81 842 -81 L805 -81 Q721 -81 721 16 L721 659 L607 659 L607 398 Q607 276 604 216.5 Q601 157 587 95 Q573 33 547 -9 Q521 -51 472 -108 L387 -53 Q433 -1 448 19 Q238 -33 119 -76 L80 2 Q100 22 100 51 L100 284 L361 284 L361 372 L81 372 L81 461 L453 461 L453 195 L191 195 L191 41 L447 115 L450 22 Q499 91 515 166.5 Q531 242 531 398 L531 753 L807 753 L807 39 Q807 27 811.5 23.5 Q816 20 826 20 L843 20 Q854 20 856.5 23.5 Q859 27 861 42 Q869 101 869 177 Z" /><glyph glyph-name="Identity.9058" unicode="&#x51f0;" d="M891 163 L963 119 Q953 56 939 1 Q910 -103 844 -103 Q822 -103 799.5 -82 Q777 -61 763 -22 Q729 64 729 300 L729 688 L220 688 L220 329 Q220 106 106 -103 L18 -50 Q78 61 101 154 Q124 247 124 376 L124 772 L822 772 L822 353 Q822 155 833 80 Q837 51 841 41 Q845 31 854 31 Q860 31 864 40 Q868 49 875 78 Q882 107 891 163 ZM433 674 L519 658 L503 616 L670 616 L670 325 L280 325 L280 616 L411 616 Q429 659 433 674 ZM584 501 L584 551 L365 551 L365 501 L584 501 ZM365 388 L584 388 L584 437 L365 437 L365 388 ZM526 81 L526 19 L739 19 L739 -54 L215 -54 L215 19 L435 19 L435 81 L268 81 L268 153 L435 153 L435 213 L253 213 L253 282 L699 282 L699 213 L526 213 L526 153 L684 153 L684 81 L526 81 Z" /><glyph glyph-name="Identity.9061" unicode="&#x51f3;" d="M761 569 Q841 521 947 489 L911 408 Q838 436 785 460 L785 310 L670 310 L705 279 Q694 264 660 230 L892 230 L892 160 L83 160 L83 230 L318 230 L271 278 L310 310 L186 310 L186 455 Q137 430 65 398 L23 475 Q149 527 211 564 Q143 613 114 629 L147 686 L79 686 L79 765 L469 765 L459 789 L544 813 Q570 759 600 718 Q713 778 759 812 L798 748 Q743 712 646 661 Q667 638 691 619 Q798 670 852 710 L891 641 Q853 616 761 569 ZM478 747 L478 688 Q443 637 398 597 L584 597 Q519 662 478 747 ZM370 686 L167 686 Q199 667 283 609 Q334 645 370 686 ZM252 492 L724 492 Q668 524 628 557 L628 524 L348 524 L348 556 Q315 530 252 492 ZM700 377 L700 426 L271 426 L271 377 L700 377 ZM386 230 L543 230 Q574 258 618 310 L352 310 Q382 282 409 250 L386 230 ZM813 23 Q819 45 821 88 L906 59 Q905 52 902.5 30.5 Q900 9 898 -2 Q887 -52 864.5 -69.5 Q842 -87 779 -89 Q723 -91 667 -89 Q566 -85 566 11 L566 61 L341 61 L341 49 Q341 -13 290 -50 Q239 -87 113 -109 L75 -22 Q157 -6 197 11 Q237 28 247 46 Q257 64 257 98 L257 134 L664 134 L664 37 Q664 14 672.5 3.5 Q681 -7 706 -9 Q735 -11 765 -9 Q794 -7 801 -1.5 Q808 4 813 23 Z" /><glyph glyph-name="Identity.9064" unicode="&#x51f6;" d="M774 672 L873 668 L873 -89 L774 -89 L774 -51 L105 -51 L105 664 L206 660 L206 194 Q317 305 424 443 Q262 656 206 722 L281 780 Q382 666 490 532 Q571 643 660 804 L748 750 Q666 600 556 448 Q667 311 748 197 L667 108 Q532 298 488 357 Q374 211 270 107 L206 175 L206 48 L774 48 L774 672 Z" /><glyph glyph-name="Identity.9066" unicode="&#x51f8;" d="M701 476 L887 476 L887 -96 L786 -96 L786 -47 L198 -47 L198 -96 L97 -96 L97 476 L283 476 L283 773 L701 773 L701 476 ZM198 57 L786 57 L786 377 L598 377 L598 671 L385 671 L385 377 L198 377 L198 57 Z" /><glyph glyph-name="Identity.9067" unicode="&#x51f9;" d="M554 758 L884 758 L884 -96 L782 -96 L782 -39 L203 -39 L203 -96 L102 -96 L102 757 L435 757 L435 385 L554 385 L554 758 ZM203 59 L782 59 L782 655 L650 655 L650 290 L339 290 L339 655 L203 655 L203 59 Z" /><glyph glyph-name="Identity.9068" unicode="&#x51fa;" d="M772 299 L874 295 L874 -96 L772 -96 L772 -63 L113 -63 L113 297 L215 293 L215 31 L444 31 L444 366 L142 366 L142 719 L243 715 L243 464 L444 464 L444 809 L543 805 L543 464 L744 464 L744 719 L844 715 L844 366 L543 366 L543 31 L772 31 L772 299 Z" /><glyph glyph-name="Identity.9069" unicode="&#x51fb;" d="M543 334 L543 36 L742 36 L742 265 L843 261 L843 -98 L742 -98 L742 -58 L144 -58 L144 264 L245 260 L245 36 L443 36 L443 334 L61 334 L61 431 L443 431 L443 576 L122 576 L122 673 L443 673 L443 811 L543 807 L543 673 L864 673 L864 576 L543 576 L543 431 L925 431 L925 334 L543 334 Z" /><glyph glyph-name="Identity.9071" unicode="&#x51fd;" d="M787 592 L888 588 L888 -104 L787 -104 L787 -73 L94 -73 L94 592 L196 588 L196 197 Q245 229 315 281 Q385 333 405 353 L443 308 L443 557 L646 666 L173 666 L173 761 L838 761 L838 674 L546 510 L546 304 L573 340 Q733 225 787 177 L787 460 Q719 380 627 313 L565 385 Q605 413 651.5 455 Q698 497 728 533 L787 473 L787 592 ZM421 404 L362 330 Q292 418 211 490 L275 549 Q343 494 421 404 ZM196 16 L787 16 L787 172 L741 92 Q683 147 546 252 L546 150 Q546 90 523.5 70 Q501 50 431 44 L376 40 L346 134 L398 138 Q428 140 435.5 147.5 Q443 155 443 181 L443 268 Q405 236 332.5 181.5 Q260 127 230 108 L196 159 L196 16 Z" /><glyph glyph-name="Identity.9073" unicode="&#x51ff;" d="M742 581 L942 581 L942 491 L627 491 L678 452 Q664 432 619 374 L739 374 L739 290 L544 290 L544 222 L723 222 L723 138 L544 138 L544 38 L444 38 L444 138 L265 138 L265 222 L444 222 L444 290 L250 290 L250 374 L376 374 Q340 421 312 451 L360 491 L45 491 L45 581 L235 581 Q161 678 121 721 L187 782 Q259 710 308 638 L254 581 L348 581 L348 801 L448 797 L448 581 L539 581 L539 801 L637 797 L637 581 L738 581 L670 641 Q755 731 794 793 L866 738 Q823 676 742 581 ZM428 374 L518 374 Q544 404 609 491 L383 491 Q427 442 457 401 L428 374 ZM768 21 L768 442 L866 438 L866 -101 L768 -101 L768 -66 L122 -66 L122 442 L220 438 L220 21 L768 21 Z" /><glyph glyph-name="Identity.9074" unicode="&#x5200;" d="M94 752 L859 752 Q859 731 845.5 424.5 Q832 118 832 88 Q828 -4 792 -36.5 Q756 -69 646 -75 L535 -82 L501 26 L608 32 Q679 36 700.5 53.5 Q722 71 726 132 Q729 175 738 397 Q747 619 747 649 L438 649 L431 489 Q423 275 352.5 146.5 Q282 18 113 -115 L28 -28 Q192 91 251 198.5 Q310 306 326 506 Q328 525 330.5 577.5 Q333 630 334 649 L94 649 L94 752 Z" /><glyph glyph-name="Identity.9075" unicode="&#x5201;" d="M501 21 L608 29 Q685 35 707 52 Q729 69 733 133 Q734 165 743 388.5 Q752 612 754 649 L109 649 L109 752 L866 752 Q854 531 840 99 Q836 -1 798 -34.5 Q760 -68 641 -76 L535 -84 L501 21 ZM654 536 L684 429 Q438 287 81 115 L37 223 Q180 284 353 372 Q526 460 654 536 Z" /><glyph glyph-name="Identity.9077" unicode="&#x5203;" d="M104 752 L862 752 L837 87 Q833 -2 794 -35 Q755 -68 651 -76 L541 -84 L508 24 L614 32 Q684 38 705.5 55 Q727 72 731 133 Q734 175 744 394.5 Q754 614 754 648 L505 648 Q499 542 499 503 Q494 382 474.5 299 Q455 216 408 143 Q361 70 292 11.5 Q223 -47 108 -119 L40 -27 Q167 45 238 111.5 Q309 178 346.5 269 Q384 360 394 495 Q394 501 396.5 559 Q399 617 399 648 L104 648 L104 752 ZM204 573 L302 535 Q253 378 165 209 L72 261 Q150 395 204 573 Z" /><glyph glyph-name="Identity.9080" unicode="&#x5206;" d="M957 425 L902 329 Q835 372 768 431 Q752 172 741 58 Q731 -21 695.5 -49.5 Q660 -78 569 -84 L480 -90 L449 12 L540 18 Q599 22 617 36 Q635 50 641 101 Q647 205 659 333 L409 333 L406 286 Q400 149 341.5 62 Q283 -25 126 -119 L49 -36 Q123 3 169 37 Q215 71 242.5 110.5 Q270 150 282 189 Q294 228 300 287 Q303 305 305 333 L174 333 L174 406 Q117 358 89 336 L32 424 Q253 586 348 803 L444 765 Q365 582 204 433 L766 433 Q687 504 630.5 587.5 Q574 671 533 783 L626 817 Q673 688 750.5 597.5 Q828 507 957 425 Z" /><glyph glyph-name="Identity.9081" unicode="&#x5207;" d="M413 242 L436 133 Q263 26 198 -19 L138 70 Q159 84 165.5 99.5 Q172 115 172 139 L172 432 L47 416 L37 521 L172 538 L172 805 L272 801 L272 550 L427 569 L430 466 L272 445 L272 151 L413 242 ZM400 740 L900 740 Q900 721 888 406 Q876 91 876 72 Q872 -8 837 -38.5 Q802 -69 709 -77 L647 -82 L615 24 L670 28 Q732 34 751 48 Q770 62 774 112 Q777 150 784.5 372.5 Q792 595 792 636 L619 636 Q616 506 615 492 Q606 257 558.5 139 Q511 21 371 -119 L284 -44 Q343 9 379 50 Q415 91 440 132 Q465 173 478 228.5 Q491 284 497.5 342.5 Q504 401 509 501 Q512 530 514 636 L400 636 L400 740 Z" /><glyph glyph-name="Identity.9084" unicode="&#x520a;" d="M774 797 L876 792 L876 31 Q876 -38 848.5 -62.5 Q821 -87 733 -95 L661 -101 L629 2 L711 8 Q750 10 762 22.5 Q774 35 774 71 L774 797 ZM329 653 L329 417 L512 417 L512 319 L329 319 L329 -94 L226 -94 L226 319 L39 319 L39 417 L226 417 L226 653 L85 653 L85 756 L488 756 L488 653 L329 653 ZM652 709 L652 115 L553 115 L553 713 L652 709 Z" /><glyph glyph-name="Identity.9091" unicode="&#x5211;" d="M788 795 L880 791 L880 33 Q880 -36 853 -61.5 Q826 -87 745 -95 L683 -101 L653 -5 L720 1 Q760 4 774 15 Q788 26 788 61 L788 795 ZM467 660 L467 408 L579 408 L579 316 L467 316 L467 -81 L373 -81 L373 316 L253 316 Q249 156 225 74.5 Q201 -7 129 -110 L45 -64 Q110 26 132.5 101 Q155 176 159 316 L47 316 L47 408 L160 408 L160 660 L76 660 L76 752 L562 752 L562 660 L467 660 ZM690 697 L690 119 L598 119 L598 701 L690 697 ZM254 408 L373 408 L373 660 L254 660 L254 408 Z" /><glyph glyph-name="Identity.9092" unicode="&#x5212;" d="M447 79 Q458 133 462 166 L547 123 Q542 93 524 26 Q495 -98 410 -98 Q376 -98 345.5 -74.5 Q315 -51 280 9 Q264 35 242 91 Q167 28 73 -30 L22 57 Q136 126 214 193 Q192 293 178 454 L62 434 L48 532 L171 553 L168 608 Q160 775 159 804 L258 800 Q261 709 265 599 Q265 593 265.5 583.5 Q266 574 266 570 L534 616 L545 519 L272 471 Q284 331 296 272 Q380 362 431 466 L508 416 Q434 277 322 163 Q339 107 368 59 Q383 34 392 25.5 Q401 17 412 17 Q435 17 447 79 ZM791 803 L883 799 L883 27 Q883 -39 857 -63 Q831 -87 751 -93 L693 -98 L662 0 L727 4 Q765 6 778 17.5 Q791 29 791 63 L791 803 ZM467 664 L414 596 Q361 668 289 734 L340 790 Q397 745 467 664 ZM686 710 L686 127 L592 127 L592 714 L686 710 Z" /><glyph glyph-name="Identity.9097" unicode="&#x5217;" d="M788 795 L886 791 L886 31 Q886 -35 856 -61.5 Q826 -88 745 -94 L664 -101 L633 2 L718 8 Q761 12 774.5 23.5 Q788 35 788 70 L788 795 ZM83 664 L83 761 L562 761 L562 664 L332 664 Q308 578 296 546 L528 546 L528 456 Q483 266 393.5 135.5 Q304 5 129 -121 L63 -36 Q229 79 305 183.5 Q381 288 424 453 L259 453 Q227 387 223 379 Q288 329 328 286 L281 196 Q238 242 173 293 Q140 239 90 176 L22 252 Q86 335 144.5 449.5 Q203 564 228 664 L83 664 ZM689 701 L689 125 L590 125 L590 705 L689 701 Z" /><glyph glyph-name="Identity.9098" unicode="&#x5218;" d="M225 789 L321 803 Q327 785 342.5 731.5 Q358 678 363 663 L547 663 L547 565 L473 565 Q443 386 378 252 Q456 146 520 50 L450 -32 Q406 38 324 157 Q247 38 98 -97 L25 -15 Q186 120 262 245 Q169 376 81 487 L153 548 Q225 460 311 344 Q347 431 371 565 L59 565 L59 663 L262 663 L225 789 ZM785 797 L883 793 L883 27 Q883 -37 853 -63 Q823 -89 746 -95 L684 -99 L654 1 L723 5 Q760 7 772.5 17 Q785 27 785 58 L785 797 ZM680 707 L680 114 L582 114 L582 711 L680 707 Z" /><glyph glyph-name="Identity.9099" unicode="&#x5219;" d="M873 783 L873 43 Q873 -29 844.5 -53.5 Q816 -78 733 -87 L675 -93 L641 4 L710 10 Q752 14 766.5 25 Q781 36 781 68 L781 787 L873 783 ZM417 164 L417 669 L198 669 L198 162 L103 162 L103 767 L509 767 L509 164 L417 164 ZM598 132 L598 710 L685 706 L685 132 L598 132 ZM355 612 L355 349 Q355 187 295 89.5 Q235 -8 85 -105 L25 -22 Q167 67 214 144.5 Q261 222 261 372 L261 616 L355 612 ZM547 21 L485 -65 Q475 -54 442.5 -18.5 Q410 17 398 30 Q386 43 363 66.5 Q340 90 319 108 L372 180 Q492 76 547 21 Z" /><glyph glyph-name="Identity.9100" unicode="&#x521a;" d="M804 788 L893 784 L893 25 Q893 -42 871 -65.5 Q849 -89 777 -95 L715 -101 L683 -6 L744 0 Q783 4 793.5 12 Q804 20 804 53 L804 788 ZM89 -89 L89 760 L573 760 L573 24 Q573 -40 550 -61 Q527 -82 460 -91 L407 -97 L378 -6 L430 0 Q465 4 475.5 14.5 Q486 25 486 55 L486 117 L420 64 L338 240 Q283 131 235 52 L177 96 L177 -89 L89 -89 ZM726 692 L726 119 L640 119 L640 696 L726 692 ZM486 671 L177 671 L177 573 L245 614 Q305 501 336 439 Q379 535 408 617 L484 583 Q441 461 386 340 L486 137 L486 671 ZM177 565 L177 134 Q238 234 290 340 Q203 518 177 565 Z" /><glyph glyph-name="Identity.9101" unicode="&#x521b;" d="M329 667 Q260 574 173 497 L502 497 Q502 398 496 272 Q494 206 469 181 Q444 156 373 150 L320 146 L293 235 L347 239 Q387 241 396.5 250 Q406 259 408 295 Q408 311 410 355 Q412 399 412 407 L228 407 L228 88 Q228 42 238 30.5 Q248 19 293 15 Q358 10 407 15 Q445 19 457 30.5 Q469 42 475 79 Q476 84 484 151 L579 121 Q572 56 567 32 Q555 -31 526.5 -53 Q498 -75 418 -79 Q341 -84 264 -79 Q190 -75 162 -46.5 Q134 -18 134 60 L134 463 Q127 457 81 422 L22 499 Q108 561 189 652 Q270 743 308 826 L397 781 L377 743 Q507 642 594 551 L538 470 Q448 568 329 667 ZM795 796 L887 792 L887 29 Q887 -40 862 -63 Q837 -86 753 -94 L692 -100 L659 5 L726 11 Q767 15 781 26 Q795 37 795 71 L795 796 ZM698 715 L698 145 L604 145 L604 719 L698 715 Z" /><glyph glyph-name="Identity.9103" unicode="&#x521d;" d="M421 237 L377 158 Q350 182 275 242 L275 -97 L175 -97 L175 301 Q116 238 61 188 L18 282 Q191 440 262 562 L70 562 L70 665 L187 665 Q163 753 148 794 L247 809 Q270 743 290 665 L384 665 L384 571 Q334 485 275 414 L275 350 L287 341 Q348 416 388 474 L455 419 Q373 309 356 288 Q371 277 393 259.5 Q415 242 421 237 ZM396 739 L898 740 Q870 79 869 64 Q865 -16 830 -46 Q795 -76 699 -84 L634 -89 L604 15 L662 19 Q727 25 745.5 39.5 Q764 54 768 107 Q770 134 780 373 Q790 612 792 638 L613 638 Q613 608 611 551 Q609 494 609 486 Q603 332 581 237.5 Q559 143 515 67.5 Q471 -8 379 -115 L293 -46 Q418 88 456.5 186.5 Q495 285 507 497 Q507 505 508.5 557 Q510 609 510 637 L396 637 L396 739 Z" /><glyph glyph-name="Identity.9106" unicode="&#x5220;" d="M805 791 L886 787 L886 31 Q886 -35 861.5 -60.5 Q837 -86 766 -94 L711 -100 L683 -13 L742 -7 Q779 -3 792 8.5 Q805 20 805 54 L805 791 ZM594 763 L594 423 L648 423 L648 335 L594 335 L594 20 Q594 -40 577 -60.5 Q560 -81 510 -83 L467 -86 L441 4 L479 6 Q502 8 508.5 17.5 Q515 27 515 60 L515 335 L461 335 Q459 174 440.5 85 Q422 -4 378 -100 L299 -67 L305 -56 Q288 -68 238 -73 L201 -76 L175 14 L213 16 Q235 18 243 28.5 Q251 39 251 66 L251 335 L197 335 Q195 172 174.5 87.5 Q154 3 103 -99 L24 -59 Q73 32 89.5 103.5 Q106 175 110 335 L49 335 L49 423 L111 423 L111 763 L330 763 L330 423 L380 423 L380 763 L594 763 ZM739 697 L739 130 L661 130 L661 701 L739 697 ZM197 423 L251 423 L251 674 L197 674 L197 423 ZM461 423 L515 423 L515 674 L461 674 L461 423 ZM329 -2 Q355 60 366 132 Q377 204 379 335 L330 335 L330 32 Q330 9 329 -2 Z" /><glyph glyph-name="Identity.9110" unicode="&#x5224;" d="M371 796 L371 481 L541 481 L541 387 L371 387 Q371 329 368 281 L560 281 L560 188 L357 188 Q340 91 295.5 24 Q251 -43 162 -122 L85 -55 Q163 12 201.5 64 Q240 116 257 188 L65 188 L65 281 L270 281 Q274 322 274 387 L92 387 L92 481 L274 481 L274 800 L371 796 ZM794 795 L888 791 L888 29 Q888 -39 861 -63.5 Q834 -88 752 -94 L680 -100 L647 6 L723 12 Q769 16 781.5 26.5 Q794 37 794 70 L794 795 ZM486 752 L563 713 Q546 672 511 606.5 Q476 541 449 503 L371 543 Q401 587 435.5 650.5 Q470 714 486 752 ZM250 557 L175 507 Q159 548 127 610 Q95 672 72 707 L150 747 Q221 629 250 557 ZM695 709 L695 123 L597 123 L597 713 L695 709 Z" /><glyph glyph-name="Identity.9114" unicode="&#x5228;" d="M529 226 Q528 163 505 138 L591 106 Q585 43 580 19 Q568 -41 541.5 -61 Q515 -81 442 -85 Q337 -91 233 -85 Q160 -81 130.5 -54.5 Q101 -28 101 45 L101 430 L86 407 L18 465 Q153 671 192 813 L285 790 Q275 754 256 708 L534 708 Q529 503 529 226 ZM799 793 L884 789 L884 28 Q884 -38 859 -61.5 Q834 -85 757 -93 L699 -99 L671 -6 L735 0 Q775 4 787 14 Q799 24 799 56 L799 793 ZM707 706 L707 131 L620 131 L620 710 L707 706 ZM433 6 Q471 8 481 18.5 Q491 29 497 65 Q500 85 502 134 Q476 110 397 102 L354 98 L322 178 L373 182 Q415 186 427 198.5 Q439 211 439 250 Q439 586 445 617 L213 617 Q192 575 153 511 L385 511 L385 208 L192 208 L192 71 Q192 34 204.5 21 Q217 8 257 6 Q345 0 433 6 ZM192 282 L297 282 L297 427 L192 427 L192 282 Z" /><glyph glyph-name="Identity.9115" unicode="&#x5229;" d="M789 795 L888 791 L888 34 Q888 -37 858 -63 Q828 -89 743 -97 L668 -104 L635 -2 L714 4 Q758 7 773.5 20 Q789 33 789 70 L789 795 ZM355 331 L392 370 Q477 296 544 216 L482 130 Q425 197 355 269 L355 -96 L256 -96 L256 275 Q190 159 88 49 L23 138 Q158 268 238 434 L68 434 L68 530 L256 530 L256 645 Q223 640 166.5 632.5 Q110 625 90 622 L80 719 Q334 746 501 786 L517 689 Q491 684 436 674.5 Q381 665 355 660 L355 530 L531 530 L531 434 L355 434 L355 331 ZM670 707 L670 119 L570 119 L570 711 L670 707 Z" /><glyph glyph-name="Identity.9117" unicode="&#x522b;" d="M776 792 L868 788 L868 31 Q868 -37 841 -62.5 Q814 -88 735 -96 L673 -102 L642 -2 L711 4 Q750 7 763 18.5 Q776 30 776 65 L776 792 ZM294 441 L290 342 L512 342 Q512 312 507.5 199 Q503 86 500 56 Q496 -15 464 -41.5 Q432 -68 347 -77 L307 -81 L279 11 L315 15 Q375 21 390.5 34 Q406 47 408 96 Q414 150 414 251 L284 251 Q275 169 252.5 108.5 Q230 48 198 2 Q166 -44 106 -109 L27 -44 Q104 32 137.5 92.5 Q171 153 185 251 L60 251 L60 342 L194 342 Q195 351 198 441 L100 441 L100 766 L503 766 L503 441 L294 441 ZM681 707 L681 139 L588 139 L588 711 L681 707 ZM196 678 L196 534 L406 534 L406 678 L196 678 Z" /><glyph glyph-name="Identity.9120" unicode="&#x522e;" d="M785 793 L880 789 L880 32 Q880 -36 851.5 -62.5 Q823 -89 745 -95 L679 -101 L648 2 L714 8 Q757 12 771 23 Q785 34 785 68 L785 793 ZM355 656 L355 528 L556 528 L556 433 L355 433 L355 310 L514 310 L514 -74 L104 -74 L104 310 L259 310 L259 433 L42 433 L42 528 L259 528 L259 645 Q207 639 79 630 L71 728 Q302 741 512 780 L527 682 Q459 669 355 656 ZM688 695 L688 121 L592 121 L592 699 L688 695 ZM416 23 L416 212 L202 212 L202 23 L416 23 Z" /><glyph glyph-name="Identity.9122" unicode="&#x5230;" d="M792 791 L889 787 L889 27 Q889 -42 860 -67 Q831 -92 753 -98 L686 -104 L653 -5 L721 1 Q763 5 777.5 15.5 Q792 26 792 60 L792 791 ZM471 402 Q425 400 365 396 L365 278 L542 278 L542 186 L365 186 L365 63 Q529 77 568 82 L570 -13 Q518 -17 304.5 -37 Q91 -57 53 -62 L45 34 L266 53 L266 186 L82 186 L82 278 L266 278 L266 391 Q157 385 92 378 L70 467 Q71 468 83.5 476.5 Q96 485 104 491 Q119 506 156 558.5 Q193 611 222 659 L66 659 L66 754 L556 754 L556 659 L331 659 Q239 515 205 478 L417 489 Q387 535 358 574 L430 625 Q530 488 572 415 L500 352 Q496 359 491.5 366.5 Q487 374 481 384.5 Q475 395 471 402 ZM694 707 L694 120 L601 120 L601 711 L694 707 Z" /><glyph glyph-name="Identity.9128" unicode="&#x5236;" d="M386 580 L386 483 L585 483 L585 392 L386 392 L386 308 L561 308 L561 48 Q561 0 540.5 -19 Q520 -38 468 -42 L427 -45 L398 45 L436 48 Q459 50 466 56.5 Q473 63 473 85 L473 220 L386 220 L386 -108 L293 -108 L293 220 L193 220 L193 -40 L104 -40 L104 308 L293 308 L293 392 L51 392 L51 483 L293 483 L293 580 L185 580 Q169 535 147 488 L61 518 Q119 648 143 768 L233 754 Q229 731 214 672 L293 672 L293 799 L386 795 L386 672 L564 672 L564 580 L386 580 ZM804 787 L897 783 L897 23 Q897 -47 872 -70 Q847 -93 765 -101 L702 -107 L668 -9 L735 -3 Q775 1 789.5 14 Q804 27 804 61 L804 787 ZM722 701 L722 110 L627 110 L627 705 L722 701 Z" /><glyph glyph-name="Identity.9129" unicode="&#x5237;" d="M806 801 L896 797 L896 22 Q896 -40 868.5 -62.5 Q841 -85 767 -94 L716 -100 L687 -9 L744 -3 Q781 1 793.5 10.5 Q806 20 806 47 L806 801 ZM122 441 L122 770 L580 770 L580 498 L208 498 L208 423 Q208 167 101 -64 L20 -25 Q122 184 122 441 ZM724 716 L724 128 L641 128 L641 720 L724 716 ZM490 684 L208 684 L208 582 L490 582 L490 684 ZM437 471 L437 389 L579 389 L579 83 Q579 28 562.5 7.5 Q546 -13 504 -17 L470 -21 L444 62 L469 65 Q487 67 493.5 76 Q500 85 500 108 L500 302 L437 302 L437 -96 L357 -96 L357 302 L295 302 L295 -10 L216 -10 L216 389 L357 389 L357 475 L437 471 Z" /><glyph glyph-name="Identity.9130" unicode="&#x5238;" d="M956 209 L907 110 Q819 151 754 199 Q752 176 749.5 140 Q747 104 745 79 Q743 54 742 45 Q736 -27 704 -53 Q672 -79 593 -85 L503 -92 L474 -1 L549 5 Q607 11 621.5 22 Q636 33 642 76 Q644 88 647.5 131.5 Q651 175 652 187 L446 187 Q428 66 360.5 -3 Q293 -72 140 -132 L89 -34 Q217 3 272 51.5 Q327 100 343 187 L248 187 L248 209 Q170 149 83 100 L34 195 Q201 286 280 372 L68 372 L68 459 L345 459 Q369 498 384 539 L102 539 L102 627 L261 627 Q214 698 173 745 L249 799 Q296 746 353 659 L317 627 L415 627 Q446 734 456 811 L557 795 Q537 686 520 627 L650 627 L617 650 Q679 722 731 800 L809 748 Q740 653 719 627 L878 627 L878 539 L493 539 Q482 505 460 459 L916 459 L916 372 L693 372 Q789 273 956 209 ZM322 273 L662 273 Q614 316 571 372 L407 372 Q376 327 322 273 Z" /><glyph glyph-name="Identity.9131" unicode="&#x5239;" d="M96 407 L55 508 Q155 549 246 605 Q150 666 81 706 L133 788 Q241 724 335 665 Q414 723 499 799 L562 720 Q484 651 426 607 L574 507 L521 415 Q386 512 338 543 Q235 473 96 407 ZM798 793 L889 789 L889 30 Q889 -35 858.5 -60.5 Q828 -86 749 -95 L686 -101 L657 -3 L722 2 Q765 6 781.5 17.5 Q798 29 798 63 L798 793 ZM704 710 L704 122 L611 122 L611 714 L704 710 ZM573 277 L381 277 L381 9 Q381 -51 356.5 -70.5 Q332 -90 262 -94 L202 -99 L172 -4 L231 0 Q267 2 278 12 Q289 22 289 56 L289 277 L60 277 L60 371 L289 371 L289 477 L381 473 L381 371 L573 371 L573 277 ZM149 256 L236 220 Q186 88 100 -53 L16 -4 Q80 93 149 256 ZM403 206 L482 252 Q570 108 603 34 L525 -25 Q484 65 403 206 Z" /><glyph glyph-name="Identity.9132" unicode="&#x523a;" d="M373 174 L408 220 Q489 162 594 70 L542 -10 Q486 42 373 137 L373 -106 L281 -106 L281 178 Q196 48 72 -56 L26 40 Q208 177 281 344 L281 455 L178 455 L178 239 L96 239 L96 541 L281 541 L281 618 L58 618 L58 709 L281 709 L281 803 L373 799 L373 709 L580 709 L580 618 L373 618 L373 541 L549 541 L549 327 Q549 275 531 256.5 Q513 238 458 232 L426 228 L398 314 L433 318 Q455 320 461.5 326 Q468 332 468 351 L468 455 L373 455 L373 174 ZM795 794 L889 790 L889 31 Q889 -35 858.5 -60.5 Q828 -86 749 -95 L686 -101 L656 -3 L722 3 Q763 6 779 17.5 Q795 29 795 63 L795 794 ZM708 695 L708 133 L616 133 L616 699 L708 695 Z" /><glyph glyph-name="Identity.9133" unicode="&#x523b;" d="M98 86 L47 166 Q198 252 290 353 Q155 347 110 340 L86 434 Q109 441 131 463 Q178 520 218 592 L65 592 L65 685 L288 685 Q279 720 261 780 L360 794 Q369 767 393 685 L578 685 L578 592 L325 592 Q273 493 227 447 L366 454 Q382 478 431 570 L509 528 Q433 384 336 278 Q239 172 98 86 ZM797 782 L891 776 L891 21 Q891 -46 862.5 -71.5 Q834 -97 758 -105 L687 -112 L655 -9 L729 -3 Q770 1 783.5 11.5 Q797 22 797 57 L797 782 ZM705 690 L705 108 L611 108 L611 694 L705 690 ZM492 364 L564 313 Q499 205 428 129 Q541 33 585 -11 L530 -103 Q423 4 357 60 Q256 -27 86 -121 L27 -34 Q193 46 301 137 Q409 228 492 364 Z" /><glyph glyph-name="Identity.9135" unicode="&#x523d;" d="M401 786 L389 761 Q534 635 607 562 L554 472 Q444 585 340 682 Q277 594 193 515 L509 515 L509 425 L156 425 L156 481 Q107 439 77 417 L23 499 Q109 563 193.5 659 Q278 755 315 828 L401 786 ZM800 797 L892 793 L892 29 Q892 -40 864.5 -62.5 Q837 -85 757 -94 L696 -100 L665 -3 L734 3 Q774 7 787 22 Q800 37 800 76 L800 797 ZM712 711 L712 135 L621 135 L621 715 L712 711 ZM379 174 L457 218 Q559 49 597 -24 L519 -77 Q509 -57 491 -23 Q195 -40 108 -51 L87 38 Q99 45 125 74 Q159 115 217 236 L61 236 L61 327 L592 327 L592 236 L320 236 Q250 93 213 54 L444 63 Q417 112 379 174 Z" /><glyph glyph-name="Identity.9140" unicode="&#x5242;" d="M570 609 L504 609 Q465 522 404 455 Q485 408 578 350 L541 255 Q472 300 331 387 Q229 307 62 241 L19 333 Q152 382 240 442 Q196 469 104 523 L148 598 Q257 540 317 505 Q363 548 399 609 L61 609 L61 704 L267 704 L236 793 L335 808 Q340 795 346 779 Q352 763 360 741 Q368 719 373 704 L570 704 L570 609 ZM789 792 L882 788 L882 42 Q882 -27 851 -55 Q820 -83 746 -89 L682 -94 L650 -2 L721 4 Q762 7 775.5 18 Q789 29 789 62 L789 792 ZM695 704 L695 115 L605 115 L605 708 L695 704 ZM384 -81 L384 288 L474 284 L474 -81 L384 -81 ZM163 241 Q164 246 164.5 262 Q165 278 165 284 L257 280 Q257 259 256 244 Q254 108 223.5 36 Q193 -36 107 -110 L34 -45 Q112 21 136.5 74 Q161 127 163 241 Z" /></font>
</defs>
</svg>
